<?xml version="1.0" encoding="UTF-8" standalone="no"?>
<!-- Created with Inkscape (http://www.inkscape.org/) -->

<svg
   xmlns:dc="http://purl.org/dc/elements/1.1/"
   xmlns:cc="http://creativecommons.org/ns#"
   xmlns:rdf="http://www.w3.org/1999/02/22-rdf-syntax-ns#"
   xmlns:svg="http://www.w3.org/2000/svg"
   xmlns="http://www.w3.org/2000/svg"
   xmlns:sodipodi="http://sodipodi.sourceforge.net/DTD/sodipodi-0.dtd"
   xmlns:inkscape="http://www.inkscape.org/namespaces/inkscape"
   width="468px"
   height="60px"
   id="svg28920"
   sodipodi:version="0.32"
   inkscape:version="0.91 r13725"
   inkscape:export-filename="/Users/rebecca/Documents/creative_commons/imagemarkers/plain/png/by-nc-nd_plain72.png"
   inkscape:export-xdpi="72"
   inkscape:export-ydpi="72"
   sodipodi:docname="By-nc-nd_plain.svg"
   inkscape:output_extension="org.inkscape.output.svg.inkscape"
   version="1.1">
  <defs
     id="defs28922" />
  <sodipodi:namedview
     id="base"
     pagecolor="#ffffff"
     bordercolor="#666666"
     borderopacity="1.0"
     inkscape:pageopacity="0.0"
     inkscape:pageshadow="2"
     inkscape:zoom="1.2"
     inkscape:cx="313.01458"
     inkscape:cy="30"
     inkscape:document-units="px"
     inkscape:current-layer="g24834"
     showborder="true"
     inkscape:window-width="1234"
     inkscape:window-height="695"
     inkscape:window-x="51"
     inkscape:window-y="38"
     showgrid="false"
     inkscape:window-maximized="0" />
  <metadata
     id="metadata28925">
    <rdf:RDF>
      <cc:Work
         rdf:about="">
        <dc:format>image/svg+xml</dc:format>
        <dc:type
           rdf:resource="http://purl.org/dc/dcmitype/StillImage" />
        <dc:title></dc:title>
      </cc:Work>
    </rdf:RDF>
  </metadata>
  <g
     id="layer1"
     inkscape:label="Layer 1"
     inkscape:groupmode="layer">
    <g
       style="fill:#000000;fill-opacity:1"
       id="g6307"
       transform="matrix(0.2716088,0,0,0.2716129,103.53439,-28.449423)">
      <path
         d="M 40.61133,208.38574 C 40.61133,207.24414 39.68457,206.31933 38.54492,206.31933 L 25.45557,206.31933 C 24.31446,206.31933 23.38916,207.24413 23.38916,208.38574 L 23.38916,221.47558 L 27.04004,221.47558 L 27.04004,236.97558 L 36.95996,236.97558 L 36.95996,221.47558 L 40.61133,221.47558 L 40.61133,208.38574 L 40.61133,208.38574 z "
         id="path6309"
         style="fill:#000000;fill-opacity:1" />
      <circle
         cx="32"
         cy="200.11914"
         r="4.47754"
         id="circle6311"
         sodipodi:cx="32"
         sodipodi:cy="200.11914"
         sodipodi:rx="4.47754"
         sodipodi:ry="4.47754"
         style="fill:#000000;fill-opacity:1" />
      <path
         clip-rule="evenodd"
         d="M 31.95996,184.30859 C 23.09521,184.30859 15.5918,187.40136 9.45166,193.58789 C 3.14941,199.98828 0,207.56152 0,216.30859 C 0,225.05468 3.14941,232.57617 9.45166,238.86914 C 15.75195,245.16211 23.25537,248.30859 31.95996,248.30859 C 40.77051,248.30859 48.40723,245.13671 54.86914,238.78906 C 60.95605,232.76367 64.00098,225.26953 64.00098,216.30859 C 64.00098,207.34765 60.90332,199.77441 54.70899,193.58789 C 48.51367,187.40137 40.93066,184.30859 31.95996,184.30859 z M 32.04004,190.06738 C 39.30274,190.06738 45.46973,192.62695 50.54395,197.74804 C 55.66993,202.81445 58.23243,209.00097 58.23243,216.30859 C 58.23243,223.66797 55.72364,229.77539 50.70313,234.6289 C 45.41602,239.85546 39.19532,242.46874 32.04004,242.46874 C 24.8833,242.46874 18.71582,239.8828 13.53613,234.70897 C 8.35644,229.53514 5.7666,223.40234 5.7666,216.30859 C 5.7666,209.21484 8.3833,203.02832 13.6167,197.74804 C 18.63672,192.62695 24.77686,190.06738 32.04004,190.06738 z "
         id="path6313"
         style="fill:#000000;fill-opacity:1;fill-rule:evenodd" />
    </g>
    <path
       style="fill:#000000;fill-opacity:1"
       d="M 136.03801,21.611165 C 138.47457,21.611165 140.53449,22.451202 142.21721,24.131541 C 143.8994,25.812149 144.74077,27.869139 144.74077,30.30278 C 144.74077,32.73642 143.91373,34.771926 142.26072,36.408765 C 140.5053,38.132608 138.43108,38.994394 136.03801,38.994394 C 133.67413,38.994394 131.63598,38.140033 129.9246,36.430517 C 128.21297,34.721264 127.35754,32.678334 127.35754,30.30278 C 127.35754,27.927225 128.21297,25.869972 129.9246,24.131541 C 131.59248,22.451202 133.63064,21.611165 136.03801,21.611165 z M 129.31295,27.968075 C 129.05353,28.701486 128.92382,29.47972 128.92382,30.30278 C 128.92382,32.229535 129.62726,33.895285 131.03413,35.300298 C 132.44126,36.705578 134.11603,37.408216 136.05976,37.408216 C 138.0035,37.408216 139.69312,36.698681 141.12917,35.278814 C 141.60979,34.814099 142.00554,34.30748 142.31641,33.758153 L 139.04007,32.299027 C 138.8178,33.401393 137.83533,34.146208 136.64755,34.233741 L 136.64755,35.573505 L 135.64996,35.573505 L 135.64996,34.233741 C 134.67438,34.222599 133.73196,33.823935 133.01155,33.192912 L 134.20887,31.985771 C 134.78525,32.528468 135.36163,32.772229 136.14889,32.772229 C 136.65869,32.772229 137.2242,32.572763 137.2242,31.908321 C 137.2242,31.67278 137.13296,31.509125 136.98919,31.386051 L 136.16082,31.017092 L 135.12875,30.557682 C 134.61842,30.330366 134.18607,30.137797 133.75211,29.944961 L 129.31295,27.968075 z M 136.05976,23.175326 C 134.08738,23.175326 132.41951,23.870806 131.05614,25.26176 C 130.6848,25.636024 130.36227,26.027263 130.08799,26.435477 L 133.41048,27.914761 C 133.71074,26.993293 134.58659,26.434416 135.64996,26.371819 L 135.64996,25.032057 L 136.64755,25.032057 L 136.64755,26.371819 C 137.33508,26.404976 138.08889,26.593301 138.8316,27.169154 L 137.68997,28.342873 C 137.26875,28.043938 136.73667,27.833331 136.20406,27.833331 C 135.77197,27.833331 135.16218,27.966484 135.16218,28.508914 C 135.16218,28.591674 135.18976,28.664614 135.24015,28.7296 L 136.35154,29.224285 L 137.10379,29.55956 C 137.58493,29.773615 138.04434,29.978121 138.49952,30.180767 L 142.953,32.163754 C 143.10049,31.58021 143.17423,30.959798 143.17423,30.302782 C 143.17423,28.317938 142.47821,26.6376 141.08566,25.261762 C 139.70743,23.870806 138.03267,23.175326 136.05976,23.175326 z "
       id="path6315" />
    <g
       id="g6317"
       transform="matrix(0.2716129,0,0,0.2715999,151.1807,21.612004)"
       style="fill:#000000;fill-opacity:1">
      <path
         id="path6319"
         d="M 31.1875,0 C 13.904525,0.43835438 3.7379722e-13,14.612004 0,32 C 2.3684758e-15,49.663996 14.336004,64 32,64 C 49.663996,64 64,49.663996 64,32 C 64,14.336004 49.663996,1.3812956e-13 32,0 C 31.724,3.7007434e-17 31.461833,-0.0069580061 31.1875,0 z M 31.15625,5.5 C 31.439783,5.4910103 31.714297,5.5 32,5.5 C 46.628003,5.4999998 58.5,17.371998 58.5,32 C 58.499998,46.628001 46.628002,58.5 32,58.5 C 17.371999,58.499999 5.5,46.628002 5.5,32 C 5.4999999,17.657701 16.922915,5.9512829 31.15625,5.5 z "
         style="opacity:1;fill:#000000;fill-opacity:1;fill-rule:nonzero;stroke:none;stroke-width:259.50698853;stroke-linecap:butt;stroke-linejoin:round;stroke-miterlimit:4;stroke-dasharray:none;stroke-dashoffset:0;stroke-opacity:1" />
      <path
         d="M 20.784527,24.431595 L 44.347734,24.431595 L 44.347734,30.211249 L 20.784527,30.211249 L 20.784527,24.431595 z M 20.784527,34.879433 L 44.347734,34.879433 L 44.347734,40.659087 L 20.784527,40.659087 L 20.784527,34.879433 z "
         style="opacity:1;fill:#000000;fill-opacity:1;fill-rule:nonzero;stroke:none;stroke-width:259.50698853;stroke-linecap:butt;stroke-linejoin:round;stroke-miterlimit:4;stroke-dashoffset:0;stroke-opacity:1"
         id="path6321" />
    </g>
    <g
       id="g24834"
       transform="matrix(0.3864876,0,0,0.3864876,-114.37345,20.532194)"
       inkscape:export-filename="/Users/rebecca/Documents/creative_commons/imagemarkers/by-nc-nd_plain.png"
       inkscape:export-xdpi="200"
       inkscape:export-ydpi="200">
      <text
         id="text6295"
         y="18.445837"
         x="742.46631"
         style="font-size:20px;fill:#000000;fill-opacity:1"
         xml:space="preserve"><tspan
           id="tspan6297"
           y="18.445837"
           x="742.46631"
           sodipodi:role="line"
           style="-inkscape-font-specification:'Fira Sans';font-family:'Fira Sans';font-weight:normal;font-style:normal;font-stretch:normal;font-variant:normal">Ce document est fourni sous licence Creative Commons BY-NC-ND</tspan></text>
      <text
         id="text6299"
         y="45.812576"
         x="742.66553"
         style="font-size:21px;font-weight:bold;fill:#000000;fill-opacity:1"
         xml:space="preserve"><tspan
           y="45.812576"
           x="742.66553"
           id="tspan6301"
           sodipodi:role="line"
           style="-inkscape-font-specification:'Fira Sans Bold';font-family:'Fira Sans';font-weight:bold;font-style:normal;font-stretch:normal;font-variant:normal">http://creativecommons.org/licenses/by-nc-nd/3.0</tspan><tspan
           id="tspan6303"
           y="72.062576"
           x="742.66553"
           sodipodi:role="line" /></text>
    </g>
  </g>
</svg>
