<?xml version="1.0" encoding="UTF-8" standalone="no"?>
<!-- Created with Inkscape (http://www.inkscape.org/) -->

<svg
   xmlns:dc="http://purl.org/dc/elements/1.1/"
   xmlns:cc="http://creativecommons.org/ns#"
   xmlns:rdf="http://www.w3.org/1999/02/22-rdf-syntax-ns#"
   xmlns:svg="http://www.w3.org/2000/svg"
   xmlns="http://www.w3.org/2000/svg"
   xmlns:sodipodi="http://sodipodi.sourceforge.net/DTD/sodipodi-0.dtd"
   xmlns:inkscape="http://www.inkscape.org/namespaces/inkscape"
   width="400mm"
   height="300mm"
   viewBox="0 0 400 300"
   version="1.1"
   id="svg1366"
   inkscape:version="0.92.2 5c3e80d, 2017-08-06"
   sodipodi:docname="fond.svg"
   inkscape:export-filename="/Users/fouroche74/Documents/d1/enseignement/informatique/os/cours/transparents/figures/logo/fond.png"
   inkscape:export-xdpi="99.963905"
   inkscape:export-ydpi="99.963905">
  <defs
     id="defs1360" />
  <sodipodi:namedview
     id="base"
     pagecolor="#ffffff"
     bordercolor="#666666"
     borderopacity="1.0"
     inkscape:pageopacity="0.0"
     inkscape:pageshadow="2"
     inkscape:zoom="0.7"
     inkscape:cx="858.64139"
     inkscape:cy="221.08215"
     inkscape:document-units="mm"
     inkscape:current-layer="layer1"
     showgrid="false"
     fit-margin-top="0"
     fit-margin-left="0"
     fit-margin-right="0"
     fit-margin-bottom="0"
     inkscape:window-width="1920"
     inkscape:window-height="991"
     inkscape:window-x="22"
     inkscape:window-y="0"
     inkscape:window-maximized="0" />
  <metadata
     id="metadata1363">
    <rdf:RDF>
      <cc:Work
         rdf:about="">
        <dc:format>image/svg+xml</dc:format>
        <dc:type
           rdf:resource="http://purl.org/dc/dcmitype/StillImage" />
        <dc:title />
      </cc:Work>
    </rdf:RDF>
  </metadata>
  <g
     inkscape:label="Calque 1"
     inkscape:groupmode="layer"
     id="layer1"
     transform="translate(348.99402,59.196432)">
    <rect
       style="opacity:1;fill:none;fill-opacity:1;stroke:none;stroke-width:0.96992081;stroke-linejoin:miter;stroke-miterlimit:4;stroke-dasharray:none;stroke-dashoffset:0;stroke-opacity:1"
       id="rect1911"
       width="399.03009"
       height="299.03009"
       x="-348.50906"
       y="-58.711472" />
    <g
       id="g2273">
      <path
         style="stroke-width:0.26458332"
         id="path3"
         d="m 6.2083814,-28.970876 v -11.700935 h 8.9595856 v 2.724679 H 9.4177772 v 1.554427 h 3.4602208 v 2.691342 H 9.4177772 v 2.005806 h 5.8673998 v 2.724681 z"
         inkscape:connector-curvature="0" />
      <path
         style="stroke-width:0.26458332"
         id="path5"
         d="m 25.816123,-28.970876 -4.613804,-6.602679 v 6.602679 h -3.008842 v -11.700935 h 2.858294 l 4.396317,6.218238 v -6.218238 h 3.008841 v 11.700935 z"
         inkscape:connector-curvature="0" />
      <path
         style="stroke-width:0.26458332"
         id="path7"
         d="m 36.146515,-28.786991 c -1.889125,0 -3.710781,-0.618597 -4.931304,-1.420814 l 1.571096,-2.540793 c 0.852752,0.584993 2.340504,1.169987 3.426883,1.169987 1.153054,0 1.521089,-0.200554 1.521089,-0.75221 0,-0.434711 -0.418041,-0.70194 -1.989402,-1.069975 -2.824956,-0.651934 -4.178829,-1.420813 -4.178829,-3.761052 0,-2.206361 1.788584,-3.694113 4.61354,-3.694113 1.989402,0 3.426619,0.484717 4.66381,1.353873 l -1.571096,2.540794 c -1.036637,-0.70194 -2.07301,-1.103313 -3.259666,-1.103313 -0.969434,0 -1.20359,0.300832 -1.20359,0.718873 0,0.434711 0.418042,0.635265 1.922463,0.986367 2.941902,0.701939 4.245768,1.604698 4.245768,3.794389 0,2.674673 -2.022475,3.777987 -4.830762,3.777987 z"
         inkscape:connector-curvature="0" />
      <path
         style="stroke-width:0.26458332"
         id="path9"
         d="m 43.936113,-28.970876 v -11.700935 h 3.309673 v 11.700935 z"
         inkscape:connector-curvature="0" />
      <path
         style="stroke-width:0.26458332"
         id="path11"
         d="m 10.85129,-16.062649 c -3.0273628,0 -4.6429086,-2.24155 -4.6429086,-5.254096 0,-3.274748 1.9211396,-5.253831 4.6574606,-5.253831 2.503223,0 3.493029,1.076854 4.191529,2.997993 l -2.561431,1.004359 c -0.363802,-0.94615 -0.713052,-1.542786 -1.64465,-1.542786 -1.1789836,0 -1.6883065,1.178984 -1.6883065,2.794529 0,1.557338 0.4947708,2.79453 1.7174105,2.79453 0.887677,0 1.266296,-0.480219 1.819275,-1.440657 l 2.386806,1.266032 c -0.684212,1.338527 -1.819275,2.633927 -4.235185,2.633927 z"
         inkscape:connector-curvature="0" />
      <path
         style="stroke-width:0.26458332"
         id="path13"
         d="m 23.240934,-16.222722 -0.55298,-1.790436 h -3.056466 l -0.553244,1.790436 h -3.027098 l 3.696758,-10.188046 h 2.852473 l 3.696759,10.188046 z m -1.426369,-4.701117 c -0.363802,-1.309952 -0.523875,-1.862931 -0.655108,-2.546879 -0.130969,0.683948 -0.291042,1.251479 -0.654844,2.546879 l -0.189177,0.669396 h 1.688306 z"
         inkscape:connector-curvature="0" />
      <path
         style="stroke-width:0.26458332"
         id="path15"
         d="m 27.975123,-16.222722 v -10.188046 h 7.800975 v 2.372519 h -5.00671 v 1.353343 h 3.01281 v 2.34315 h -3.01281 v 1.746515 h 5.108575 v 2.372519 z"
         inkscape:connector-curvature="0" />
      <path
         style="stroke-width:0.26458332"
         id="path17"
         d="m 44.946292,-16.222722 -2.430727,-3.362061 c -0.451115,-0.625739 -1.324504,-1.935691 -1.586442,-2.386806 0.07276,0.451115 0.08731,1.804723 0.08731,2.634456 v 3.114411 h -2.706949 v -10.188046 h 2.48867 l 2.241286,3.01281 c 0.465931,0.62574 1.36816,1.979348 1.586706,2.401359 -0.07276,-0.451115 -0.08758,-1.804459 -0.08758,-2.634192 v -2.779977 h 2.706952 v 10.188046 z"
         inkscape:connector-curvature="0" />
      <rect
         id="rect19"
         height="1.7163521"
         width="3.3631189"
         y="-49.098785"
         x="39.631603"
         style="fill:#ce5858;stroke-width:0.26458332" />
      <rect
         id="rect21"
         height="1.7163521"
         width="3.3631189"
         y="-49.098785"
         x="6.2083812"
         style="fill:#ce5858;stroke-width:0.26458332" />
      <rect
         id="rect23"
         height="1.7163521"
         width="3.3631189"
         y="-46.860947"
         x="14.58403"
         style="fill:#ce5858;stroke-width:0.26458332" />
      <rect
         id="rect25"
         height="1.7137063"
         width="3.3578272"
         y="-46.858299"
         x="35.44669"
         style="fill:#ce5858;stroke-width:0.26458332" />
      <rect
         id="rect27"
         height="1.7137063"
         width="3.3578272"
         y="-51.360184"
         x="18.760744"
         style="fill:#c0aa3b;stroke-width:0.26458332" />
      <rect
         id="rect29"
         height="1.7137063"
         width="3.5038772"
         y="-44.607491"
         x="27.027649"
         style="fill:#dc9448;stroke-width:0.26458332" />
      <rect
         id="rect31"
         height="1.7137063"
         width="3.5041418"
         y="-51.353302"
         x="22.846704"
         style="fill:#ce5858;stroke-width:0.26458332" />
      <rect
         id="rect33"
         height="1.7163521"
         width="3.3631189"
         y="-53.607552"
         x="31.275799"
         style="fill:#ce5858;stroke-width:0.26458332" />
      <rect
         id="rect35"
         height="1.7163521"
         width="3.5091686"
         y="-44.590027"
         x="43.736618"
         style="fill:#ce5858;stroke-width:0.26458332" />
      <rect
         id="rect37"
         height="1.7163521"
         width="3.3631189"
         y="-46.844543"
         x="10.386152"
         style="fill:#ce5858;stroke-width:0.26458332" />
      <rect
         id="rect39"
         height="1.7163521"
         width="3.3631189"
         y="-46.844543"
         x="31.275799"
         style="fill:#dc9448;stroke-width:0.26458332" />
      <rect
         id="rect41"
         height="1.7163521"
         width="3.3631189"
         y="-53.607552"
         x="39.631603"
         style="fill:#dc9448;stroke-width:0.26458332" />
      <rect
         id="rect43"
         height="1.7163521"
         width="3.5091686"
         y="-46.844543"
         x="43.736618"
         style="fill:#dc9448;stroke-width:0.26458332" />
      <rect
         id="rect45"
         height="1.7163521"
         width="3.3631189"
         y="-44.590027"
         x="14.564188"
         style="fill:#dc9448;stroke-width:0.26458332" />
      <rect
         id="rect47"
         height="1.7163521"
         width="3.5094333"
         y="-49.098785"
         x="22.846704"
         style="fill:#4abbbf;stroke-width:0.26458332" />
      <rect
         id="rect49"
         height="1.7137063"
         width="3.3578272"
         y="-49.109108"
         x="10.417638"
         style="fill:#dc9448;stroke-width:0.26458332" />
      <rect
         id="rect51"
         height="1.7163521"
         width="3.3631189"
         y="-51.353302"
         x="35.453568"
         style="fill:#dc9448;stroke-width:0.26458332" />
      <rect
         id="rect53"
         height="1.7163521"
         width="3.3631189"
         y="-51.353302"
         x="14.564188"
         style="fill:#dc9448;stroke-width:0.26458332" />
      <rect
         id="rect55"
         height="1.7163521"
         width="3.3631189"
         y="-44.590027"
         x="6.2083812"
         style="fill:#ce5858;stroke-width:0.26458332" />
      <rect
         id="rect57"
         height="1.7137063"
         width="3.3578272"
         y="-51.360184"
         x="39.618374"
         style="fill:#4abbbf;stroke-width:0.26458332" />
      <rect
         id="rect59"
         height="1.7137063"
         width="3.3578272"
         y="-46.858299"
         x="39.618374"
         style="fill:#c0aa3b;stroke-width:0.26458332" />
      <rect
         id="rect61"
         height="1.7137063"
         width="3.3578272"
         y="-49.098785"
         x="14.564188"
         style="fill:#4abbbf;stroke-width:0.26458332" />
      <rect
         id="rect63"
         height="1.7137063"
         width="3.5038772"
         y="-49.109108"
         x="27.03056"
         style="fill:#ce5858;stroke-width:0.26458332" />
      <rect
         id="rect65"
         height="1.7163521"
         width="3.3631189"
         y="-51.353302"
         x="31.275799"
         style="fill:#4abbbf;stroke-width:0.26458332" />
      <rect
         id="rect67"
         height="1.7163521"
         width="3.5091686"
         y="-51.353302"
         x="43.736618"
         style="fill:#ce5858;stroke-width:0.26458332" />
      <rect
         id="rect69"
         height="1.7163521"
         width="3.3631189"
         y="-46.844543"
         x="18.741959"
         style="fill:#dc9448;stroke-width:0.26458332" />
      <rect
         id="rect71"
         height="1.7163521"
         width="3.5091686"
         y="-51.353302"
         x="27.02474"
         style="fill:#c0aa3b;stroke-width:0.26458332" />
      <rect
         id="rect73"
         height="1.7163521"
         width="3.3631189"
         y="-49.098785"
         x="31.275799"
         style="fill:#c0aa3b;stroke-width:0.26458332" />
      <rect
         id="rect75"
         height="1.7163521"
         width="3.5091686"
         y="-49.098785"
         x="43.736618"
         style="fill:#c0aa3b;stroke-width:0.26458332" />
      <rect
         id="rect77"
         height="1.7163521"
         width="3.3631189"
         y="-49.098785"
         x="18.741959"
         style="fill:#ce5858;stroke-width:0.26458332" />
      <rect
         id="rect79"
         height="1.7137063"
         width="3.3578272"
         y="-44.607491"
         x="35.456215"
         style="fill:#c0aa3b;stroke-width:0.26458332" />
      <rect
         id="rect81"
         height="1.7137063"
         width="3.3578272"
         y="-46.858299"
         x="6.2462168"
         style="fill:#c0aa3b;stroke-width:0.26458332" />
      <rect
         id="rect83"
         height="1.7163521"
         width="3.3631189"
         y="-53.607552"
         x="35.453568"
         style="fill:#c0aa3b;stroke-width:0.26458332" />
      <rect
         id="rect85"
         height="1.7163521"
         width="3.3631189"
         y="-44.590027"
         x="18.741959"
         style="fill:#c0aa3b;stroke-width:0.26458332" />
      <rect
         id="rect87"
         height="1.7163521"
         width="3.5094333"
         y="-46.860947"
         x="22.853849"
         style="fill:#c0aa3b;stroke-width:0.26458332" />
      <rect
         id="rect89"
         height="1.7163521"
         width="3.3631189"
         y="-44.590027"
         x="31.275799"
         style="fill:#4abbbf;stroke-width:0.26458332" />
      <rect
         id="rect91"
         height="1.7163521"
         width="3.3631189"
         y="-49.098785"
         x="35.453568"
         style="fill:#4abbbf;stroke-width:0.26458332" />
      <rect
         id="rect93"
         height="1.7163521"
         width="3.3631189"
         y="-44.590027"
         x="39.631603"
         style="fill:#4abbbf;stroke-width:0.26458332" />
      <rect
         id="rect95"
         height="1.7163521"
         width="3.3631189"
         y="-44.590027"
         x="10.386152"
         style="fill:#4abbbf;stroke-width:0.26458332" />
      <rect
         id="rect97"
         height="1.7163521"
         width="3.5091686"
         y="-46.844543"
         x="27.02474"
         style="fill:#4abbbf;stroke-width:0.26458332" />
      <rect
         id="rect99"
         height="1.7163521"
         width="3.5094333"
         y="-44.590027"
         x="22.846704"
         style="fill:#ce5858;stroke-width:0.26458332" />
      <g
         id="g101"
         transform="matrix(0.26458333,0,0,0.26458333,-2.8684143,-64.756567)">
        <rect
           id="rect103"
           height="6.4770002"
           width="13.243"
           y="42.125"
           x="113.004"
           style="fill:#dc9448" />
        <path
           id="path105"
           d="m 97.191,48.625 h 13.264 V 42.24 c -4.339,0.316 -8.769,0.704 -13.264,1.172 z"
           inkscape:connector-curvature="0"
           style="fill:#c0aa3b" />
        <path
           id="path107"
           d="M 50.096,57.145 H 62.807 V 50.658 H 53.29 c -1.065,0.25 -2.13,0.504 -3.194,0.766 z"
           inkscape:connector-curvature="0"
           style="fill:#c0aa3b" />
        <path
           id="path109"
           d="m 65.887,48.625 h 12.711 v -2.828 c -4.215,0.647 -8.457,1.373 -12.711,2.188 z"
           inkscape:connector-curvature="0"
           style="fill:#ce5858" />
        <path
           id="path111"
           d="m 81.748,48.602 h 12.691 v -4.894 c -4.185,0.465 -8.421,1.002 -12.691,1.62 z"
           inkscape:connector-curvature="0"
           style="fill:#4abbbf" />
        <path
           id="path113"
           d="m 176.145,42.138 v 6.487 h 13.263 v -5.457 c -1.688,-0.187 -5.8,-0.609 -11.819,-1.03 z"
           inkscape:connector-curvature="0"
           style="fill:#4abbbf" />
        <path
           id="path115"
           d="m 34.306,57.145 h 12.711 v -4.947 c -4.259,1.096 -8.502,2.292 -12.711,3.598 z"
           inkscape:connector-curvature="0"
           style="fill:#4abbbf" />
        <path
           id="path117"
           d="m 34.306,52.56 v 1.667 1.568 c 4.209,-1.306 8.452,-2.501 12.711,-3.598 1.025,-0.264 2.052,-0.521 3.08,-0.774 1.064,-0.262 2.128,-0.517 3.194,-0.766 4.198,-0.982 8.402,-1.87 12.597,-2.673 4.254,-0.815 8.496,-1.541 12.711,-2.188 1.052,-0.161 2.102,-0.317 3.15,-0.469 4.271,-0.617 8.507,-1.155 12.691,-1.62 0.92,-0.102 1.837,-0.201 2.752,-0.296 4.495,-0.468 8.924,-0.856 13.264,-1.172 28.437,-2.068 53.026,-1.089 67.133,-0.102 6.02,0.421 10.132,0.844 11.819,1.03 v -1.03 c 0,-2.391 0,-3.093 0,-6.083 C 182.05,35.26 101.998,27.505 34.306,52.56 Z"
           inkscape:connector-curvature="0"
           style="fill:#020203" />
      </g>
      <g
         id="g119"
         transform="matrix(0.26458333,0,0,0.26458333,-2.8684143,-64.756567)">
        <path
           id="path121"
           d="m 38.426,201.714 h -4.121 v -6.236 h 4.121 v 0.999 h -2.934 v 1.49 h 2.895 v 0.976 h -2.895 v 1.718 h 2.934 z m -0.71,-8.305 -1.124,1.506 h -0.828 l 0.703,-1.506 z"
           inkscape:connector-curvature="0" />
        <path
           id="path123"
           d="m 45.849,200.59 c -0.312,0.38 -0.69,0.682 -1.136,0.905 -0.444,0.224 -0.935,0.335 -1.471,0.335 -0.463,0 -0.898,-0.084 -1.304,-0.253 -0.406,-0.169 -0.759,-0.399 -1.059,-0.69 -0.3,-0.292 -0.537,-0.634 -0.71,-1.026 -0.173,-0.394 -0.26,-0.815 -0.26,-1.269 0,-0.454 0.087,-0.876 0.26,-1.269 0.173,-0.393 0.41,-0.736 0.71,-1.03 0.3,-0.294 0.653,-0.524 1.059,-0.69 0.406,-0.166 0.84,-0.25 1.304,-0.25 0.536,0 1.026,0.112 1.471,0.336 0.445,0.224 0.816,0.515 1.112,0.874 l -0.835,0.858 c -0.193,-0.275 -0.441,-0.498 -0.745,-0.667 -0.305,-0.169 -0.639,-0.254 -1.003,-0.254 -0.292,0 -0.566,0.056 -0.824,0.168 -0.257,0.111 -0.483,0.263 -0.675,0.452 -0.193,0.19 -0.345,0.411 -0.457,0.664 -0.112,0.252 -0.167,0.521 -0.167,0.808 0,0.281 0.056,0.548 0.167,0.8 0.112,0.252 0.264,0.474 0.457,0.663 0.192,0.19 0.417,0.341 0.675,0.453 0.257,0.111 0.532,0.168 0.824,0.168 0.385,0 0.726,-0.087 1.022,-0.262 0.297,-0.174 0.544,-0.404 0.742,-0.69 z"
           inkscape:connector-curvature="0" />
        <path
           id="path125"
           d="m 53.388,198.592 c 0,0.447 -0.087,0.869 -0.261,1.264 -0.174,0.396 -0.412,0.739 -0.713,1.031 -0.302,0.291 -0.652,0.521 -1.053,0.69 -0.4,0.169 -0.826,0.253 -1.278,0.253 -0.452,0 -0.88,-0.084 -1.283,-0.253 -0.403,-0.169 -0.755,-0.399 -1.056,-0.69 -0.301,-0.292 -0.539,-0.634 -0.713,-1.026 -0.174,-0.394 -0.261,-0.815 -0.261,-1.269 0,-0.454 0.087,-0.877 0.261,-1.272 0.174,-0.396 0.412,-0.738 0.713,-1.03 0.301,-0.291 0.653,-0.521 1.056,-0.687 0.403,-0.166 0.831,-0.25 1.283,-0.25 0.452,0 0.878,0.084 1.278,0.25 0.4,0.166 0.751,0.396 1.053,0.69 0.301,0.294 0.539,0.638 0.713,1.03 0.174,0.393 0.261,0.816 0.261,1.269 z m -1.21,0 c 0,-0.286 -0.054,-0.556 -0.164,-0.808 -0.109,-0.253 -0.259,-0.474 -0.45,-0.664 -0.19,-0.189 -0.413,-0.341 -0.668,-0.452 -0.255,-0.112 -0.526,-0.168 -0.813,-0.168 -0.292,0 -0.566,0.056 -0.821,0.168 -0.255,0.111 -0.478,0.263 -0.668,0.452 -0.19,0.19 -0.341,0.411 -0.45,0.664 -0.11,0.252 -0.165,0.521 -0.165,0.808 0,0.281 0.055,0.549 0.165,0.804 0.109,0.255 0.259,0.478 0.45,0.667 0.19,0.19 0.413,0.341 0.668,0.453 0.255,0.112 0.529,0.168 0.821,0.168 0.287,0 0.558,-0.056 0.813,-0.168 0.255,-0.112 0.479,-0.263 0.668,-0.453 0.19,-0.189 0.34,-0.412 0.45,-0.667 0.11,-0.255 0.164,-0.523 0.164,-0.804 z"
           inkscape:connector-curvature="0" />
        <path
           id="path127"
           d="m 59.335,201.714 h -4.222 v -6.236 h 1.233 v 5.065 h 2.989 z"
           inkscape:connector-curvature="0" />
        <path
           id="path129"
           d="m 64.939,201.714 h -4.121 v -6.236 h 4.121 v 0.999 h -2.935 v 1.49 H 64.9 v 0.976 h -2.896 v 1.718 h 2.935 z"
           inkscape:connector-curvature="0" />
        <path
           id="path131"
           d="m 74.273,197.569 c 0,0.296 -0.056,0.573 -0.168,0.831 -0.112,0.258 -0.265,0.481 -0.458,0.671 -0.193,0.19 -0.42,0.339 -0.681,0.445 -0.261,0.106 -0.537,0.16 -0.829,0.16 h -1.033 v 2.037 h -1.21 v -6.236 h 2.244 c 0.292,0 0.568,0.054 0.829,0.16 0.261,0.106 0.487,0.253 0.68,0.44 0.193,0.187 0.345,0.409 0.458,0.664 0.112,0.256 0.168,0.531 0.168,0.828 z m -1.21,-0.015 c 0,-0.161 -0.03,-0.312 -0.089,-0.453 -0.06,-0.141 -0.142,-0.263 -0.246,-0.366 -0.104,-0.104 -0.226,-0.188 -0.367,-0.25 -0.141,-0.062 -0.292,-0.094 -0.453,-0.094 h -0.804 v 2.357 h 0.804 c 0.161,0 0.312,-0.033 0.453,-0.098 0.141,-0.065 0.263,-0.152 0.367,-0.262 0.104,-0.11 0.186,-0.235 0.246,-0.379 0.06,-0.142 0.089,-0.294 0.089,-0.455 z"
           inkscape:connector-curvature="0" />
        <path
           id="path133"
           d="m 81.298,195.47 v 3.388 c 0,0.416 -0.062,0.804 -0.188,1.163 -0.125,0.358 -0.306,0.672 -0.542,0.939 -0.237,0.269 -0.525,0.479 -0.866,0.633 -0.341,0.154 -0.73,0.23 -1.167,0.23 -0.426,0 -0.812,-0.076 -1.155,-0.227 -0.343,-0.151 -0.636,-0.357 -0.878,-0.621 -0.242,-0.263 -0.428,-0.572 -0.559,-0.929 -0.13,-0.356 -0.195,-0.74 -0.195,-1.15 v -3.427 h 1.209 v 3.434 c 0,0.24 0.034,0.465 0.102,0.676 0.068,0.211 0.167,0.395 0.297,0.55 0.13,0.156 0.292,0.28 0.488,0.371 0.196,0.091 0.417,0.137 0.667,0.137 0.266,0 0.496,-0.043 0.691,-0.129 0.195,-0.086 0.356,-0.205 0.484,-0.359 0.127,-0.153 0.224,-0.334 0.289,-0.542 0.065,-0.208 0.098,-0.438 0.098,-0.687 v -3.45 z"
           inkscape:connector-curvature="0" />
        <path
           id="path135"
           d="m 87.541,199.926 c 0,0.261 -0.053,0.501 -0.16,0.723 -0.106,0.221 -0.249,0.411 -0.425,0.569 -0.177,0.159 -0.381,0.282 -0.613,0.371 -0.231,0.088 -0.475,0.133 -0.73,0.133 l -2.521,-0.008 v -6.244 h 2.248 c 0.271,0 0.521,0.04 0.753,0.121 0.231,0.081 0.433,0.197 0.604,0.352 0.172,0.153 0.306,0.34 0.402,0.562 0.096,0.221 0.145,0.47 0.145,0.745 0,0.234 -0.052,0.461 -0.156,0.679 -0.104,0.219 -0.242,0.403 -0.414,0.555 0.136,0.067 0.256,0.153 0.363,0.258 0.107,0.104 0.198,0.22 0.273,0.347 0.075,0.128 0.133,0.264 0.172,0.406 0.04,0.142 0.059,0.285 0.059,0.431 z m -1.491,-2.654 c 0,-0.15 -0.028,-0.281 -0.085,-0.39 -0.058,-0.109 -0.134,-0.2 -0.23,-0.273 -0.096,-0.073 -0.207,-0.128 -0.332,-0.164 -0.125,-0.036 -0.255,-0.055 -0.391,-0.055 h -0.71 v 1.717 c 0.13,0.006 0.247,0.008 0.352,0.008 0.104,0 0.224,0 0.358,0 0.136,0 0.266,-0.016 0.391,-0.046 0.125,-0.032 0.235,-0.081 0.332,-0.148 0.096,-0.068 0.173,-0.155 0.23,-0.262 0.057,-0.107 0.085,-0.235 0.085,-0.387 z m 0.235,2.583 c 0,-0.13 -0.024,-0.249 -0.074,-0.358 -0.049,-0.109 -0.117,-0.202 -0.203,-0.277 -0.086,-0.075 -0.185,-0.134 -0.297,-0.175 -0.112,-0.042 -0.232,-0.062 -0.363,-0.062 -0.177,-0.006 -0.351,-0.007 -0.523,-0.005 -0.171,0.003 -0.346,0.005 -0.523,0.005 v 1.725 h 0.905 c 0.13,0 0.26,-0.016 0.391,-0.047 0.13,-0.031 0.246,-0.082 0.347,-0.152 0.101,-0.07 0.184,-0.159 0.246,-0.266 0.062,-0.107 0.094,-0.236 0.094,-0.388 z"
           inkscape:connector-curvature="0" />
        <path
           id="path137"
           d="M 93.402,201.714 H 89.18 v -6.236 h 1.233 v 5.065 h 2.989 z"
           inkscape:connector-curvature="0" />
        <path
           id="path139"
           d="m 96.095,201.714 h -1.209 v -6.236 h 1.209 z"
           inkscape:connector-curvature="0" />
        <path
           id="path141"
           d="m 104.392,198.592 c 0,0.369 -0.059,0.719 -0.176,1.05 -0.117,0.33 -0.285,0.633 -0.503,0.909 l 0.625,0.616 -0.718,0.719 -0.64,-0.648 c -0.266,0.183 -0.557,0.325 -0.875,0.43 -0.317,0.104 -0.653,0.156 -1.006,0.156 -0.453,0 -0.878,-0.085 -1.276,-0.254 -0.398,-0.169 -0.747,-0.4 -1.046,-0.694 -0.299,-0.295 -0.535,-0.637 -0.706,-1.026 -0.172,-0.391 -0.258,-0.81 -0.258,-1.257 0,-0.447 0.086,-0.868 0.258,-1.261 0.171,-0.393 0.407,-0.736 0.706,-1.03 0.299,-0.294 0.648,-0.525 1.046,-0.694 0.398,-0.169 0.824,-0.254 1.276,-0.254 0.452,0 0.879,0.085 1.28,0.254 0.4,0.169 0.75,0.4 1.05,0.694 0.299,0.294 0.535,0.638 0.706,1.03 0.171,0.392 0.257,0.813 0.257,1.26 z m -1.179,0 c 0,-0.286 -0.056,-0.557 -0.168,-0.812 -0.112,-0.255 -0.263,-0.479 -0.453,-0.672 -0.19,-0.192 -0.414,-0.345 -0.671,-0.456 -0.258,-0.112 -0.532,-0.168 -0.823,-0.168 -0.292,0 -0.565,0.056 -0.82,0.168 -0.255,0.111 -0.479,0.264 -0.671,0.456 -0.193,0.193 -0.344,0.417 -0.453,0.672 -0.109,0.255 -0.164,0.525 -0.164,0.812 0,0.287 0.055,0.557 0.164,0.812 0.109,0.255 0.26,0.478 0.453,0.667 0.192,0.19 0.416,0.341 0.671,0.453 0.255,0.112 0.528,0.168 0.82,0.168 0.197,0 0.386,-0.026 0.565,-0.078 0.18,-0.052 0.35,-0.125 0.511,-0.219 l -0.585,-0.569 0.718,-0.719 0.578,0.594 c 0.219,-0.34 0.328,-0.709 0.328,-1.109 z"
           inkscape:connector-curvature="0" />
        <path
           id="path143"
           d="m 111.58,195.47 v 3.388 c 0,0.416 -0.062,0.804 -0.188,1.163 -0.125,0.358 -0.306,0.672 -0.542,0.939 -0.237,0.269 -0.526,0.479 -0.867,0.633 -0.341,0.154 -0.729,0.23 -1.167,0.23 -0.426,0 -0.812,-0.076 -1.155,-0.227 -0.343,-0.151 -0.636,-0.357 -0.878,-0.621 -0.242,-0.263 -0.428,-0.572 -0.558,-0.929 -0.13,-0.356 -0.195,-0.74 -0.195,-1.15 v -3.427 h 1.209 v 3.434 c 0,0.24 0.034,0.465 0.101,0.676 0.068,0.211 0.167,0.395 0.297,0.55 0.13,0.156 0.293,0.28 0.488,0.371 0.195,0.091 0.418,0.137 0.667,0.137 0.266,0 0.496,-0.043 0.691,-0.129 0.195,-0.086 0.356,-0.205 0.484,-0.359 0.127,-0.153 0.224,-0.334 0.289,-0.542 0.065,-0.208 0.098,-0.438 0.098,-0.687 v -3.45 z"
           inkscape:connector-curvature="0" />
        <path
           id="path145"
           d="m 117.496,201.714 h -4.121 v -6.236 h 4.121 v 0.999 h -2.935 v 1.49 h 2.896 v 0.976 h -2.896 v 1.718 h 2.935 z"
           inkscape:connector-curvature="0" />
        <path
           id="path147"
           d="m 128,198.592 c 0,0.432 -0.072,0.836 -0.218,1.213 -0.146,0.378 -0.349,0.708 -0.609,0.992 -0.26,0.283 -0.571,0.507 -0.933,0.671 -0.362,0.164 -0.756,0.246 -1.183,0.246 h -2.606 v -6.244 h 2.606 c 0.427,0 0.821,0.083 1.183,0.25 0.361,0.166 0.673,0.39 0.933,0.671 0.261,0.281 0.463,0.611 0.609,0.991 0.146,0.38 0.218,0.783 0.218,1.21 z m -1.225,-0.031 c 0.006,-0.292 -0.038,-0.567 -0.132,-0.827 -0.094,-0.261 -0.229,-0.488 -0.406,-0.684 -0.177,-0.194 -0.394,-0.349 -0.651,-0.46 -0.258,-0.112 -0.548,-0.168 -0.87,-0.168 h -1.054 v 4.262 h 1.054 c 0.317,0 0.602,-0.054 0.854,-0.16 0.252,-0.106 0.467,-0.255 0.644,-0.445 0.177,-0.189 0.313,-0.413 0.41,-0.671 0.095,-0.259 0.146,-0.541 0.151,-0.847 z"
           inkscape:connector-curvature="0" />
        <path
           id="path149"
           d="m 130.452,196.398 c 0,0.125 -0.019,0.243 -0.055,0.355 -0.037,0.111 -0.09,0.21 -0.16,0.296 -0.07,0.086 -0.159,0.154 -0.266,0.203 -0.106,0.05 -0.23,0.074 -0.37,0.074 -0.053,0 -0.104,-0.005 -0.153,-0.016 -0.049,-0.01 -0.095,-0.021 -0.136,-0.031 v -0.086 c 0.15,-0.025 0.272,-0.096 0.366,-0.211 0.094,-0.114 0.141,-0.247 0.141,-0.397 0,-0.026 -0.002,-0.058 -0.008,-0.094 -0.005,-0.036 -0.013,-0.067 -0.023,-0.094 h -0.499 v -1.163 h 1.163 z"
           inkscape:connector-curvature="0" />
        <path
           id="path151"
           d="m 133.222,201.714 h -1.21 v -6.236 h 1.21 z"
           inkscape:connector-curvature="0" />
        <path
           id="path153"
           d="m 140.364,201.714 h -1.187 l -2.817,-4.379 v 4.379 h -1.187 v -6.244 h 1.357 l 2.646,4.074 v -4.074 h 1.187 v 6.244 z"
           inkscape:connector-curvature="0" />
        <path
           id="path155"
           d="m 148.059,200.566 c -0.178,0.219 -0.37,0.407 -0.578,0.565 -0.208,0.159 -0.425,0.29 -0.651,0.395 -0.227,0.104 -0.458,0.181 -0.695,0.23 -0.236,0.049 -0.472,0.073 -0.706,0.073 -0.463,0 -0.897,-0.083 -1.303,-0.249 -0.406,-0.166 -0.76,-0.396 -1.062,-0.688 -0.302,-0.291 -0.541,-0.635 -0.719,-1.03 -0.177,-0.395 -0.265,-0.821 -0.265,-1.279 0,-0.447 0.087,-0.868 0.261,-1.261 0.175,-0.393 0.414,-0.735 0.718,-1.026 0.305,-0.291 0.66,-0.521 1.066,-0.69 0.405,-0.169 0.84,-0.254 1.303,-0.254 0.536,0 1.023,0.109 1.464,0.328 0.439,0.219 0.812,0.51 1.12,0.874 l -0.818,0.835 c -0.234,-0.317 -0.496,-0.545 -0.787,-0.683 -0.291,-0.138 -0.615,-0.207 -0.974,-0.207 -0.297,0 -0.574,0.055 -0.834,0.164 -0.26,0.109 -0.487,0.259 -0.682,0.448 -0.195,0.19 -0.349,0.411 -0.46,0.664 -0.112,0.252 -0.168,0.521 -0.168,0.808 0,0.291 0.056,0.563 0.168,0.815 0.111,0.252 0.265,0.475 0.459,0.667 0.195,0.192 0.422,0.344 0.682,0.453 0.26,0.109 0.537,0.164 0.834,0.164 0.28,0 0.545,-0.053 0.794,-0.156 0.249,-0.104 0.473,-0.242 0.67,-0.414 v -0.601 h -1.28 v -1.03 h 2.443 z"
           inkscape:connector-curvature="0" />
        <path
           id="path157"
           d="m 153.896,201.714 h -4.12 v -6.236 h 4.12 v 0.999 h -2.934 v 1.49 h 2.896 v 0.976 h -2.896 v 1.718 h 2.934 z m -0.71,-8.305 -1.123,1.506 h -0.828 l 0.703,-1.506 z"
           inkscape:connector-curvature="0" />
        <path
           id="path159"
           d="m 160.804,201.714 h -1.187 l -2.817,-4.379 v 4.379 h -1.187 v -6.244 h 1.357 l 2.646,4.074 v -4.074 h 1.187 v 6.244 z"
           inkscape:connector-curvature="0" />
        <path
           id="path161"
           d="m 163.964,201.714 h -1.21 v -6.236 h 1.21 z"
           inkscape:connector-curvature="0" />
        <path
           id="path163"
           d="m 170.037,201.714 h -4.121 v -6.236 h 4.121 v 0.999 h -2.935 v 1.49 h 2.896 v 0.976 h -2.896 v 1.718 h 2.935 z"
           inkscape:connector-curvature="0" />
        <path
           id="path165"
           d="m 177.225,195.47 v 3.388 c 0,0.416 -0.062,0.804 -0.188,1.163 -0.125,0.358 -0.306,0.672 -0.542,0.939 -0.237,0.269 -0.526,0.479 -0.867,0.633 -0.341,0.154 -0.729,0.23 -1.167,0.23 -0.426,0 -0.812,-0.076 -1.154,-0.227 -0.344,-0.151 -0.637,-0.357 -0.878,-0.621 -0.242,-0.263 -0.429,-0.572 -0.559,-0.929 -0.13,-0.357 -0.195,-0.74 -0.195,-1.15 v -3.427 h 1.21 v 3.434 c 0,0.24 0.034,0.465 0.102,0.676 0.068,0.211 0.166,0.395 0.297,0.55 0.13,0.156 0.293,0.28 0.487,0.371 0.195,0.091 0.418,0.137 0.667,0.137 0.266,0 0.496,-0.043 0.691,-0.129 0.195,-0.086 0.356,-0.205 0.483,-0.359 0.128,-0.153 0.224,-0.334 0.289,-0.542 0.065,-0.208 0.099,-0.438 0.099,-0.687 v -3.45 z"
           inkscape:connector-curvature="0" />
        <path
           id="path167"
           d="m 183.71,201.714 h -1.332 l -0.444,-1.421 c -0.047,-0.156 -0.104,-0.299 -0.175,-0.43 -0.07,-0.13 -0.154,-0.241 -0.253,-0.335 -0.099,-0.094 -0.217,-0.167 -0.354,-0.219 -0.137,-0.052 -0.3,-0.078 -0.486,-0.078 h -0.452 v 2.482 h -1.193 v -6.236 l 2.462,-0.008 c 0.265,0 0.511,0.046 0.74,0.137 0.229,0.091 0.426,0.217 0.592,0.378 0.166,0.162 0.296,0.352 0.39,0.57 0.093,0.219 0.14,0.455 0.14,0.71 0,0.183 -0.028,0.359 -0.085,0.531 -0.057,0.171 -0.137,0.33 -0.24,0.476 -0.103,0.146 -0.227,0.274 -0.368,0.387 -0.143,0.112 -0.299,0.196 -0.469,0.254 0.195,0.072 0.356,0.178 0.48,0.315 0.124,0.139 0.222,0.303 0.295,0.496 0.036,0.088 0.069,0.177 0.101,0.265 0.03,0.089 0.062,0.182 0.097,0.277 0.033,0.097 0.07,0.2 0.108,0.312 0.039,0.111 0.081,0.235 0.128,0.371 0.058,0.171 0.11,0.318 0.16,0.44 0.05,0.122 0.101,0.232 0.158,0.326 z m -1.576,-4.363 c 0,-0.146 -0.027,-0.278 -0.082,-0.398 -0.055,-0.119 -0.129,-0.224 -0.223,-0.312 -0.094,-0.089 -0.204,-0.157 -0.332,-0.207 -0.127,-0.05 -0.264,-0.074 -0.409,-0.074 h -0.875 v 1.943 h 0.875 c 0.146,0 0.282,-0.022 0.409,-0.066 0.128,-0.044 0.238,-0.107 0.332,-0.191 0.094,-0.083 0.168,-0.183 0.223,-0.3 0.055,-0.117 0.082,-0.25 0.082,-0.395 z"
           inkscape:connector-curvature="0" />
        <path
           id="path169"
           d="m 189.408,200.074 c 0,0.234 -0.05,0.457 -0.151,0.668 -0.102,0.21 -0.244,0.396 -0.426,0.558 -0.183,0.161 -0.398,0.29 -0.647,0.387 -0.25,0.096 -0.526,0.144 -0.827,0.144 -0.271,0 -0.515,-0.015 -0.73,-0.046 -0.215,-0.031 -0.419,-0.081 -0.608,-0.148 -0.19,-0.068 -0.372,-0.155 -0.547,-0.262 -0.174,-0.106 -0.354,-0.235 -0.542,-0.387 l 0.858,-0.866 c 0.25,0.208 0.494,0.355 0.733,0.441 0.239,0.086 0.5,0.129 0.781,0.129 0.114,0 0.222,-0.017 0.323,-0.051 0.101,-0.034 0.19,-0.079 0.266,-0.137 0.076,-0.058 0.135,-0.125 0.18,-0.203 0.044,-0.078 0.066,-0.164 0.066,-0.258 0,-0.099 -0.019,-0.188 -0.055,-0.265 -0.036,-0.078 -0.102,-0.153 -0.195,-0.227 -0.093,-0.074 -0.224,-0.147 -0.391,-0.223 -0.166,-0.075 -0.38,-0.16 -0.64,-0.254 -0.229,-0.083 -0.449,-0.178 -0.659,-0.284 -0.211,-0.106 -0.396,-0.236 -0.555,-0.387 -0.158,-0.15 -0.286,-0.328 -0.383,-0.53 -0.096,-0.203 -0.144,-0.442 -0.144,-0.719 0,-0.266 0.053,-0.51 0.16,-0.733 0.106,-0.224 0.252,-0.415 0.437,-0.573 0.185,-0.159 0.4,-0.283 0.647,-0.371 0.247,-0.089 0.515,-0.133 0.801,-0.133 0.479,0 0.882,0.062 1.209,0.188 0.328,0.125 0.619,0.307 0.875,0.546 l -0.843,0.851 c -0.156,-0.15 -0.331,-0.267 -0.523,-0.347 -0.192,-0.081 -0.419,-0.121 -0.679,-0.121 -0.12,0 -0.23,0.019 -0.332,0.055 -0.102,0.036 -0.188,0.085 -0.262,0.145 -0.072,0.06 -0.131,0.13 -0.176,0.211 -0.044,0.08 -0.065,0.165 -0.065,0.253 0,0.099 0.021,0.189 0.062,0.27 0.041,0.081 0.111,0.158 0.21,0.234 0.1,0.075 0.23,0.15 0.395,0.226 0.164,0.076 0.368,0.158 0.612,0.246 0.312,0.109 0.58,0.229 0.804,0.359 0.224,0.13 0.406,0.273 0.547,0.429 0.141,0.157 0.244,0.332 0.312,0.527 0.069,0.194 0.102,0.414 0.102,0.658 z"
           inkscape:connector-curvature="0" />
        <path
           id="path171"
           d="m 60.666,211.997 c -0.312,0.38 -0.691,0.682 -1.136,0.905 -0.445,0.223 -0.936,0.335 -1.471,0.335 -0.463,0 -0.898,-0.084 -1.304,-0.253 -0.406,-0.169 -0.759,-0.399 -1.059,-0.691 -0.3,-0.291 -0.537,-0.633 -0.71,-1.026 -0.173,-0.393 -0.26,-0.815 -0.26,-1.268 0,-0.453 0.086,-0.876 0.26,-1.269 0.174,-0.393 0.41,-0.736 0.71,-1.03 0.3,-0.294 0.653,-0.524 1.059,-0.69 0.406,-0.167 0.84,-0.25 1.304,-0.25 0.535,0 1.026,0.111 1.471,0.335 0.445,0.225 0.815,0.516 1.112,0.875 l -0.835,0.858 c -0.192,-0.276 -0.44,-0.498 -0.745,-0.668 -0.304,-0.169 -0.639,-0.253 -1.002,-0.253 -0.292,0 -0.566,0.056 -0.824,0.168 -0.258,0.111 -0.483,0.263 -0.675,0.452 -0.192,0.19 -0.345,0.411 -0.457,0.664 -0.112,0.252 -0.167,0.521 -0.167,0.808 0,0.28 0.056,0.548 0.167,0.8 0.111,0.252 0.264,0.474 0.457,0.663 0.192,0.19 0.417,0.341 0.675,0.453 0.257,0.111 0.532,0.168 0.824,0.168 0.385,0 0.726,-0.088 1.022,-0.262 0.297,-0.175 0.544,-0.404 0.741,-0.69 z"
           inkscape:connector-curvature="0" />
        <path
           id="path173"
           d="m 66.199,213.121 h -4.121 v -6.236 h 4.121 v 0.999 h -2.935 v 1.49 h 2.896 v 0.976 h -2.896 v 1.718 h 2.935 z"
           inkscape:connector-curvature="0" />
        <path
           id="path175"
           d="M 73.107,213.121 H 71.92 l -2.817,-4.379 v 4.379 h -1.187 v -6.244 h 1.358 l 2.646,4.074 v -4.074 h 1.187 z"
           inkscape:connector-curvature="0" />
        <path
           id="path177"
           d="m 79.342,207.962 h -1.725 v 5.159 h -1.226 v -5.159 h -1.725 v -1.077 h 4.675 v 1.077 z"
           inkscape:connector-curvature="0" />
        <path
           id="path179"
           d="M 85.594,213.121 H 84.261 L 83.818,211.7 c -0.047,-0.156 -0.105,-0.299 -0.175,-0.43 -0.07,-0.13 -0.154,-0.241 -0.253,-0.335 -0.099,-0.094 -0.217,-0.167 -0.354,-0.219 -0.138,-0.052 -0.3,-0.078 -0.487,-0.078 h -0.452 v 2.482 h -1.194 v -6.236 l 2.461,-0.008 c 0.265,0 0.512,0.045 0.74,0.137 0.229,0.091 0.426,0.217 0.592,0.378 0.166,0.161 0.296,0.352 0.389,0.57 0.094,0.218 0.14,0.455 0.14,0.71 0,0.183 -0.028,0.359 -0.085,0.531 -0.057,0.171 -0.137,0.33 -0.241,0.476 -0.103,0.146 -0.226,0.274 -0.368,0.387 -0.142,0.111 -0.298,0.196 -0.469,0.253 0.196,0.073 0.356,0.179 0.48,0.316 0.125,0.138 0.223,0.303 0.295,0.496 0.036,0.088 0.07,0.177 0.101,0.265 0.031,0.089 0.063,0.181 0.097,0.277 0.034,0.096 0.07,0.2 0.109,0.312 0.039,0.111 0.081,0.235 0.127,0.37 0.058,0.172 0.111,0.319 0.16,0.441 0.049,0.122 0.105,0.232 0.163,0.326 z m -1.577,-4.363 c 0,-0.146 -0.027,-0.278 -0.082,-0.398 -0.054,-0.119 -0.128,-0.224 -0.223,-0.312 -0.093,-0.089 -0.204,-0.157 -0.331,-0.207 -0.128,-0.05 -0.265,-0.074 -0.41,-0.074 h -0.874 v 1.943 h 0.874 c 0.146,0 0.282,-0.022 0.41,-0.066 0.127,-0.044 0.238,-0.107 0.331,-0.191 0.094,-0.083 0.168,-0.184 0.223,-0.3 0.055,-0.119 0.082,-0.25 0.082,-0.395 z"
           inkscape:connector-curvature="0" />
        <path
           id="path181"
           d="m 91.244,213.121 h -4.121 v -6.236 h 4.121 v 0.999 H 88.31 v 1.49 h 2.896 v 0.976 H 88.31 v 1.718 h 2.934 z"
           inkscape:connector-curvature="0" />
        <path
           id="path183"
           d="m 101.75,209.999 c 0,0.432 -0.073,0.836 -0.219,1.213 -0.146,0.378 -0.349,0.708 -0.609,0.992 -0.26,0.283 -0.571,0.507 -0.932,0.671 -0.362,0.163 -0.756,0.246 -1.183,0.246 H 96.2 v -6.244 h 2.607 c 0.426,0 0.821,0.083 1.183,0.25 0.361,0.166 0.672,0.39 0.932,0.671 0.26,0.281 0.463,0.611 0.609,0.991 0.146,0.38 0.219,0.783 0.219,1.21 z m -1.226,-0.031 c 0.005,-0.292 -0.039,-0.567 -0.132,-0.827 -0.094,-0.261 -0.229,-0.488 -0.406,-0.684 -0.177,-0.194 -0.394,-0.349 -0.652,-0.46 -0.257,-0.112 -0.547,-0.168 -0.87,-0.168 H 97.41 v 4.262 h 1.054 c 0.317,0 0.602,-0.054 0.854,-0.16 0.252,-0.106 0.467,-0.255 0.644,-0.445 0.177,-0.189 0.313,-0.414 0.41,-0.671 0.096,-0.258 0.147,-0.541 0.152,-0.847 z"
           inkscape:connector-curvature="0" />
        <path
           id="path185"
           d="m 107.587,213.121 h -4.121 v -6.236 h 4.121 v 0.999 h -2.934 v 1.49 h 2.896 v 0.976 h -2.896 v 1.718 h 2.934 z"
           inkscape:connector-curvature="0" />
        <path
           id="path187"
           d="m 117.234,213.121 h -1.333 l -0.443,-1.421 c -0.047,-0.156 -0.105,-0.299 -0.175,-0.43 -0.07,-0.13 -0.155,-0.241 -0.253,-0.335 -0.099,-0.094 -0.217,-0.167 -0.354,-0.219 -0.137,-0.052 -0.3,-0.078 -0.486,-0.078 h -0.452 v 2.482 h -1.194 v -6.236 l 2.462,-0.008 c 0.265,0 0.512,0.045 0.74,0.137 0.229,0.091 0.426,0.217 0.592,0.378 0.167,0.161 0.296,0.352 0.39,0.57 0.094,0.218 0.14,0.455 0.14,0.71 0,0.183 -0.028,0.359 -0.085,0.531 -0.057,0.171 -0.137,0.33 -0.241,0.476 -0.103,0.146 -0.226,0.274 -0.368,0.387 -0.142,0.111 -0.298,0.196 -0.469,0.253 0.196,0.073 0.356,0.179 0.48,0.316 0.125,0.138 0.223,0.303 0.295,0.496 0.036,0.088 0.07,0.177 0.101,0.265 0.031,0.089 0.063,0.181 0.097,0.277 0.034,0.096 0.07,0.2 0.109,0.312 0.039,0.111 0.081,0.235 0.127,0.37 0.058,0.172 0.11,0.319 0.16,0.441 0.049,0.124 0.102,0.232 0.16,0.326 z m -1.577,-4.363 c 0,-0.146 -0.027,-0.278 -0.082,-0.398 -0.055,-0.119 -0.128,-0.224 -0.223,-0.312 -0.093,-0.089 -0.204,-0.157 -0.332,-0.207 -0.128,-0.05 -0.264,-0.074 -0.41,-0.074 h -0.874 v 1.943 h 0.874 c 0.146,0 0.282,-0.022 0.41,-0.066 0.128,-0.044 0.238,-0.107 0.332,-0.191 0.094,-0.083 0.168,-0.184 0.223,-0.3 0.055,-0.119 0.082,-0.25 0.082,-0.395 z"
           inkscape:connector-curvature="0" />
        <path
           id="path189"
           d="m 122.884,213.121 h -4.121 v -6.236 h 4.121 v 0.999 h -2.935 v 1.49 h 2.896 v 0.976 h -2.896 v 1.718 h 2.935 z"
           inkscape:connector-curvature="0" />
        <path
           id="path191"
           d="m 130.306,211.997 c -0.312,0.38 -0.69,0.682 -1.136,0.905 -0.444,0.224 -0.936,0.335 -1.471,0.335 -0.463,0 -0.897,-0.084 -1.304,-0.253 -0.405,-0.169 -0.759,-0.399 -1.06,-0.691 -0.3,-0.291 -0.537,-0.633 -0.71,-1.026 -0.173,-0.393 -0.26,-0.815 -0.26,-1.268 0,-0.453 0.087,-0.876 0.26,-1.269 0.173,-0.393 0.41,-0.736 0.71,-1.03 0.301,-0.294 0.654,-0.524 1.06,-0.69 0.406,-0.167 0.841,-0.25 1.304,-0.25 0.535,0 1.026,0.111 1.471,0.335 0.445,0.225 0.815,0.516 1.112,0.875 l -0.835,0.858 c -0.192,-0.276 -0.441,-0.498 -0.745,-0.668 -0.305,-0.169 -0.639,-0.253 -1.003,-0.253 -0.292,0 -0.566,0.056 -0.823,0.168 -0.258,0.111 -0.483,0.263 -0.676,0.452 -0.192,0.19 -0.345,0.411 -0.456,0.664 -0.112,0.252 -0.168,0.521 -0.168,0.808 0,0.28 0.056,0.548 0.168,0.8 0.111,0.252 0.264,0.474 0.456,0.663 0.192,0.19 0.418,0.341 0.676,0.453 0.257,0.111 0.531,0.168 0.823,0.168 0.385,0 0.726,-0.088 1.022,-0.262 0.296,-0.175 0.544,-0.404 0.741,-0.69 z"
           inkscape:connector-curvature="0" />
        <path
           id="path193"
           d="m 136.597,213.121 h -1.21 v -2.764 h -2.458 v 2.764 h -1.21 v -6.236 h 1.21 v 2.474 h 2.458 v -2.474 h 1.21 z"
           inkscape:connector-curvature="0" />
        <path
           id="path195"
           d="m 142.668,213.121 h -4.12 v -6.236 h 4.12 v 0.999 h -2.935 v 1.49 h 2.896 v 0.976 h -2.896 v 1.718 h 2.935 z"
           inkscape:connector-curvature="0" />
        <path
           id="path197"
           d="m 149.077,213.121 h -1.332 l -0.443,-1.421 c -0.047,-0.156 -0.105,-0.299 -0.176,-0.43 -0.07,-0.13 -0.154,-0.241 -0.253,-0.335 -0.099,-0.094 -0.217,-0.167 -0.354,-0.219 -0.137,-0.052 -0.3,-0.078 -0.486,-0.078 h -0.452 v 2.482 h -1.193 v -6.236 l 2.462,-0.008 c 0.265,0 0.512,0.045 0.74,0.137 0.229,0.091 0.426,0.217 0.592,0.378 0.166,0.161 0.296,0.352 0.39,0.57 0.094,0.218 0.14,0.455 0.14,0.71 0,0.183 -0.028,0.359 -0.085,0.531 -0.057,0.171 -0.137,0.33 -0.24,0.476 -0.103,0.146 -0.227,0.274 -0.368,0.387 -0.143,0.111 -0.299,0.196 -0.469,0.253 0.196,0.073 0.356,0.179 0.48,0.316 0.124,0.137 0.223,0.303 0.295,0.496 0.036,0.088 0.069,0.177 0.101,0.265 0.031,0.089 0.063,0.181 0.097,0.277 0.034,0.097 0.07,0.2 0.108,0.312 0.039,0.111 0.082,0.235 0.128,0.37 0.058,0.172 0.11,0.319 0.16,0.441 0.05,0.122 0.1,0.232 0.158,0.326 z m -1.577,-4.363 c 0,-0.146 -0.027,-0.278 -0.082,-0.398 -0.055,-0.119 -0.129,-0.224 -0.223,-0.312 -0.094,-0.089 -0.204,-0.157 -0.332,-0.207 -0.127,-0.05 -0.264,-0.074 -0.409,-0.074 h -0.875 v 1.943 h 0.875 c 0.146,0 0.282,-0.022 0.409,-0.066 0.128,-0.044 0.238,-0.107 0.332,-0.191 0.094,-0.083 0.168,-0.184 0.223,-0.3 0.055,-0.119 0.082,-0.25 0.082,-0.395 z"
           inkscape:connector-curvature="0" />
        <path
           id="path199"
           d="m 156.312,211.997 c -0.312,0.38 -0.691,0.682 -1.136,0.905 -0.445,0.224 -0.936,0.335 -1.472,0.335 -0.463,0 -0.897,-0.084 -1.304,-0.253 -0.405,-0.169 -0.759,-0.399 -1.059,-0.691 -0.3,-0.291 -0.537,-0.633 -0.71,-1.026 -0.174,-0.393 -0.26,-0.815 -0.26,-1.268 0,-0.453 0.086,-0.876 0.26,-1.269 0.173,-0.393 0.41,-0.736 0.71,-1.03 0.3,-0.294 0.653,-0.524 1.059,-0.69 0.406,-0.167 0.841,-0.25 1.304,-0.25 0.536,0 1.026,0.111 1.472,0.335 0.444,0.225 0.815,0.516 1.112,0.875 l -0.836,0.858 c -0.192,-0.276 -0.44,-0.498 -0.745,-0.668 -0.304,-0.169 -0.639,-0.253 -1.003,-0.253 -0.291,0 -0.565,0.056 -0.823,0.168 -0.258,0.111 -0.482,0.263 -0.675,0.452 -0.192,0.19 -0.345,0.411 -0.457,0.664 -0.111,0.252 -0.167,0.521 -0.167,0.808 0,0.28 0.056,0.548 0.167,0.8 0.112,0.252 0.265,0.474 0.457,0.663 0.192,0.19 0.417,0.341 0.675,0.453 0.258,0.111 0.532,0.168 0.823,0.168 0.386,0 0.727,-0.088 1.022,-0.262 0.297,-0.175 0.544,-0.404 0.741,-0.69 z"
           inkscape:connector-curvature="0" />
        <path
           id="path201"
           d="m 162.602,213.121 h -1.21 v -2.764 h -2.458 v 2.764 h -1.21 v -6.236 h 1.21 v 2.474 h 2.458 v -2.474 h 1.21 z"
           inkscape:connector-curvature="0" />
        <path
           id="path203"
           d="m 168.674,213.121 h -4.121 v -6.236 h 4.121 v 0.999 h -2.935 v 1.49 h 2.896 v 0.976 h -2.896 v 1.718 h 2.935 z"
           inkscape:connector-curvature="0" />
      </g>
    </g>
    <g
       id="g944">
      <rect
         y="229.1028"
         x="-348.79205"
         height="11.759859"
         width="80"
         id="rect1913"
         style="opacity:1;fill:#4abbbf;fill-opacity:1;stroke:none;stroke-width:1.07296014;stroke-linejoin:miter;stroke-miterlimit:4;stroke-dasharray:none;stroke-dashoffset:0;stroke-opacity:1" />
      <rect
         y="229.1028"
         x="-268.84872"
         height="11.759859"
         width="80"
         id="rect1913-9"
         style="opacity:1;fill:#aeb11c;fill-opacity:1;stroke:none;stroke-width:1.07296014;stroke-linejoin:miter;stroke-miterlimit:4;stroke-dasharray:none;stroke-dashoffset:0;stroke-opacity:1" />
      <rect
         y="229.1028"
         x="-109.00045"
         height="11.759859"
         width="80"
         id="rect1913-9-0"
         style="opacity:1;fill:#dc943b;fill-opacity:1;stroke:none;stroke-width:1.07296014;stroke-linejoin:miter;stroke-miterlimit:4;stroke-dasharray:none;stroke-dashoffset:0;stroke-opacity:1" />
      <rect
         y="229.1028"
         x="-29.054165"
         height="11.759859"
         width="80"
         id="rect1913-9-0-2"
         style="opacity:1;fill:#7b949e;fill-opacity:1;stroke:none;stroke-width:1.07296014;stroke-linejoin:miter;stroke-miterlimit:4;stroke-dasharray:none;stroke-dashoffset:0;stroke-opacity:1" />
      <rect
         y="229.1028"
         x="-188.84872"
         height="11.759859"
         width="80"
         id="rect1913-9-7"
         style="opacity:1;fill:#ce5858;fill-opacity:1;stroke:none;stroke-width:1.07296014;stroke-linejoin:miter;stroke-miterlimit:4;stroke-dasharray:none;stroke-dashoffset:0;stroke-opacity:1" />
    </g>
  </g>
</svg>
