<?xml version="1.0" encoding="utf-8"?>
<!-- Generator: Adobe Illustrator 16.0.0, SVG Export Plug-In . SVG Version: 6.00 Build 0)  -->
<!DOCTYPE svg PUBLIC "-//W3C//DTD SVG 1.1//EN" "http://www.w3.org/Graphics/SVG/1.1/DTD/svg11.dtd">
<svg version="1.1" id="Calque_1" xmlns="http://www.w3.org/2000/svg" xmlns:xlink="http://www.w3.org/1999/xlink" x="0px" y="0px"
	 width="223.713px" height="247.543px" viewBox="0 0 223.713 247.543" enable-background="new 0 0 223.713 247.543"
	 xml:space="preserve">
<path d="M34.306,135.253V91.029h33.863v10.298H46.436v5.875h13.078v10.172H46.436v7.581h22.176v10.298H34.306z"/>
<path d="M108.414,135.253l-17.438-24.955v24.955H79.604V91.029h10.803l16.616,23.502V91.029h11.372v44.224H108.414z"/>
<path d="M147.458,135.948c-7.14,0-14.025-2.338-18.638-5.37l5.938-9.603c3.223,2.211,8.846,4.422,12.952,4.422
	c4.358,0,5.749-0.758,5.749-2.843c0-1.643-1.58-2.653-7.519-4.044c-10.677-2.464-15.794-5.37-15.794-14.215
	c0-8.339,6.76-13.962,17.437-13.962c7.519,0,12.951,1.832,17.627,5.117l-5.938,9.603c-3.918-2.653-7.835-4.17-12.32-4.17
	c-3.664,0-4.549,1.137-4.549,2.717c0,1.643,1.58,2.401,7.266,3.728c11.119,2.653,16.047,6.065,16.047,14.341
	C165.716,131.778,158.072,135.948,147.458,135.948z"/>
<path d="M176.899,135.253V91.029h12.509v44.224H176.899z"/>
<path d="M51.854,184.04c-11.442,0-17.548-8.472-17.548-19.858c0-12.377,7.261-19.857,17.603-19.857
	c9.461,0,13.202,4.07,15.842,11.331l-9.681,3.796c-1.375-3.576-2.695-5.831-6.216-5.831c-4.456,0-6.381,4.456-6.381,10.562
	c0,5.886,1.87,10.562,6.491,10.562c3.355,0,4.786-1.815,6.876-5.445l9.021,4.785C65.275,179.144,60.985,184.04,51.854,184.04z"/>
<path d="M98.681,183.435l-2.09-6.767H85.039l-2.091,6.767H71.507l13.972-38.506H96.26l13.972,38.506H98.681z M93.29,165.667
	c-1.375-4.951-1.98-7.041-2.476-9.626c-0.495,2.585-1.1,4.73-2.475,9.626l-0.715,2.53h6.381L93.29,165.667z"/>
<path d="M116.574,183.435v-38.506h29.484v8.967h-18.923v5.115h11.387v8.856h-11.387v6.601h19.308v8.967H116.574z"/>
<path d="M180.717,183.435l-9.187-12.707c-1.705-2.365-5.006-7.316-5.996-9.021c0.275,1.705,0.33,6.821,0.33,9.957v11.771h-10.231
	v-38.506h9.406l8.471,11.387c1.761,2.365,5.171,7.481,5.997,9.076c-0.275-1.705-0.331-6.82-0.331-9.956v-10.507h10.231v38.506
	H180.717z"/>
<rect x="160.63" y="59.179" fill="#CE5858" width="12.711" height="6.487"/>
<rect x="34.306" y="59.179" fill="#CE5858" width="12.711" height="6.487"/>
<rect x="65.962" y="67.637" fill="#CE5858" width="12.711" height="6.487"/>
<rect x="144.813" y="67.647" fill="#CE5858" width="12.691" height="6.477"/>
<rect x="81.748" y="50.632" fill="#C0AA3B" width="12.691" height="6.477"/>
<rect x="112.993" y="76.154" fill="#DC9448" width="13.243" height="6.477"/>
<rect x="97.191" y="50.658" fill="#CE5858" width="13.244" height="6.477"/>
<rect x="129.049" y="42.138" fill="#CE5858" width="12.711" height="6.487"/>
<rect x="176.145" y="76.22" fill="#CE5858" width="13.263" height="6.487"/>
<rect x="50.096" y="67.699" fill="#CE5858" width="12.711" height="6.487"/>
<rect x="129.049" y="67.699" fill="#DC9448" width="12.711" height="6.487"/>
<rect x="160.63" y="42.138" fill="#DC9448" width="12.711" height="6.487"/>
<rect x="176.145" y="67.699" fill="#DC9448" width="13.263" height="6.487"/>
<rect x="65.887" y="76.22" fill="#DC9448" width="12.711" height="6.487"/>
<rect x="97.191" y="59.179" fill="#4ABBBF" width="13.264" height="6.487"/>
<rect x="50.215" y="59.14" fill="#DC9448" width="12.691" height="6.477"/>
<rect x="144.839" y="50.658" fill="#DC9448" width="12.711" height="6.487"/>
<rect x="65.887" y="50.658" fill="#DC9448" width="12.711" height="6.487"/>
<rect x="34.306" y="76.22" fill="#CE5858" width="12.711" height="6.487"/>
<rect x="160.58" y="50.632" fill="#4ABBBF" width="12.691" height="6.477"/>
<rect x="160.58" y="67.647" fill="#C0AA3B" width="12.691" height="6.477"/>
<rect x="65.887" y="59.179" fill="#4ABBBF" width="12.691" height="6.477"/>
<rect x="113.004" y="59.14" fill="#CE5858" width="13.243" height="6.477"/>
<rect x="129.049" y="50.658" fill="#4ABBBF" width="12.711" height="6.487"/>
<rect x="176.145" y="50.658" fill="#CE5858" width="13.263" height="6.487"/>
<rect x="81.677" y="67.699" fill="#DC9448" width="12.711" height="6.487"/>
<rect x="112.982" y="50.658" fill="#C0AA3B" width="13.263" height="6.487"/>
<rect x="129.049" y="59.179" fill="#C0AA3B" width="12.711" height="6.487"/>
<rect x="176.145" y="59.179" fill="#C0AA3B" width="13.263" height="6.487"/>
<rect x="81.677" y="59.179" fill="#CE5858" width="12.711" height="6.487"/>
<rect x="144.849" y="76.154" fill="#C0AA3B" width="12.691" height="6.477"/>
<rect x="34.449" y="67.647" fill="#C0AA3B" width="12.691" height="6.477"/>
<rect x="144.839" y="42.138" fill="#C0AA3B" width="12.711" height="6.487"/>
<rect x="81.677" y="76.22" fill="#C0AA3B" width="12.711" height="6.487"/>
<rect x="97.218" y="67.637" fill="#C0AA3B" width="13.264" height="6.487"/>
<rect x="129.049" y="76.22" fill="#4ABBBF" width="12.711" height="6.487"/>
<rect x="144.839" y="59.179" fill="#4ABBBF" width="12.711" height="6.487"/>
<rect x="160.63" y="76.22" fill="#4ABBBF" width="12.711" height="6.487"/>
<rect x="50.096" y="76.22" fill="#4ABBBF" width="12.711" height="6.487"/>
<rect x="112.982" y="67.699" fill="#4ABBBF" width="13.263" height="6.487"/>
<rect x="97.191" y="76.22" fill="#CE5858" width="13.264" height="6.487"/>
<g>
	<rect x="113.004" y="42.125" fill="#DC9448" width="13.243" height="6.477"/>
	<path fill="#C0AA3B" d="M97.191,48.625h13.264V42.24c-4.339,0.316-8.769,0.704-13.264,1.172V48.625z"/>
	<path fill="#C0AA3B" d="M50.096,57.145h12.711v-6.487H53.29c-1.065,0.25-2.13,0.504-3.194,0.766V57.145z"/>
	<path fill="#CE5858" d="M65.887,48.625h12.711v-2.828c-4.215,0.647-8.457,1.373-12.711,2.188V48.625z"/>
	<path fill="#4ABBBF" d="M81.748,48.602h12.691v-4.894c-4.185,0.465-8.421,1.002-12.691,1.62V48.602z"/>
	<path fill="#4ABBBF" d="M176.145,42.138v6.487h13.263v-5.457c-1.688-0.187-5.8-0.609-11.819-1.03H176.145z"/>
	<path fill="#4ABBBF" d="M34.306,57.145h12.711v-4.947c-4.259,1.096-8.502,2.292-12.711,3.598V57.145z"/>
	<path fill="#020203" d="M34.306,52.56v1.667v1.568c4.209-1.306,8.452-2.501,12.711-3.598c1.025-0.264,2.052-0.521,3.08-0.774
		c1.064-0.262,2.128-0.517,3.194-0.766c4.198-0.982,8.402-1.87,12.597-2.673c4.254-0.815,8.496-1.541,12.711-2.188
		c1.052-0.161,2.102-0.317,3.15-0.469c4.271-0.617,8.507-1.155,12.691-1.62c0.92-0.102,1.837-0.201,2.752-0.296
		c4.495-0.468,8.924-0.856,13.264-1.172c28.437-2.068,53.026-1.089,67.133-0.102c6.02,0.421,10.132,0.844,11.819,1.03v-1.03
		c0-2.391,0-3.093,0-6.083C182.05,35.26,101.998,27.505,34.306,52.56z"/>
</g>
<g>
	<path d="M38.426,201.714h-4.121v-6.236h4.121v0.999h-2.934v1.49h2.895v0.976h-2.895v1.718h2.934V201.714z M37.716,193.409
		l-1.124,1.506h-0.828l0.703-1.506H37.716z"/>
	<path d="M45.849,200.59c-0.312,0.38-0.69,0.682-1.136,0.905c-0.444,0.224-0.935,0.335-1.471,0.335
		c-0.463,0-0.898-0.084-1.304-0.253s-0.759-0.399-1.059-0.69c-0.3-0.292-0.537-0.634-0.71-1.026c-0.173-0.394-0.26-0.815-0.26-1.269
		s0.087-0.876,0.26-1.269c0.173-0.393,0.41-0.736,0.71-1.03c0.3-0.294,0.653-0.524,1.059-0.69s0.84-0.25,1.304-0.25
		c0.536,0,1.026,0.112,1.471,0.336c0.445,0.224,0.816,0.515,1.112,0.874l-0.835,0.858c-0.193-0.275-0.441-0.498-0.745-0.667
		c-0.305-0.169-0.639-0.254-1.003-0.254c-0.292,0-0.566,0.056-0.824,0.168c-0.257,0.111-0.483,0.263-0.675,0.452
		c-0.193,0.19-0.345,0.411-0.457,0.664c-0.112,0.252-0.167,0.521-0.167,0.808c0,0.281,0.056,0.548,0.167,0.8
		c0.112,0.252,0.264,0.474,0.457,0.663c0.192,0.19,0.417,0.341,0.675,0.453c0.257,0.111,0.532,0.168,0.824,0.168
		c0.385,0,0.726-0.087,1.022-0.262c0.297-0.174,0.544-0.404,0.742-0.69L45.849,200.59z"/>
	<path d="M53.388,198.592c0,0.447-0.087,0.869-0.261,1.264c-0.174,0.396-0.412,0.739-0.713,1.031
		c-0.302,0.291-0.652,0.521-1.053,0.69c-0.4,0.169-0.826,0.253-1.278,0.253s-0.88-0.084-1.283-0.253s-0.755-0.399-1.056-0.69
		c-0.301-0.292-0.539-0.634-0.713-1.026c-0.174-0.394-0.261-0.815-0.261-1.269s0.087-0.877,0.261-1.272
		c0.174-0.396,0.412-0.738,0.713-1.03c0.301-0.291,0.653-0.521,1.056-0.687s0.831-0.25,1.283-0.25s0.878,0.084,1.278,0.25
		c0.4,0.166,0.751,0.396,1.053,0.69c0.301,0.294,0.539,0.638,0.713,1.03C53.301,197.716,53.388,198.139,53.388,198.592z
		 M52.178,198.592c0-0.286-0.054-0.556-0.164-0.808c-0.109-0.253-0.259-0.474-0.45-0.664c-0.19-0.189-0.413-0.341-0.668-0.452
		c-0.255-0.112-0.526-0.168-0.813-0.168c-0.292,0-0.566,0.056-0.821,0.168c-0.255,0.111-0.478,0.263-0.668,0.452
		c-0.19,0.19-0.341,0.411-0.45,0.664c-0.11,0.252-0.165,0.521-0.165,0.808c0,0.281,0.055,0.549,0.165,0.804
		c0.109,0.255,0.259,0.478,0.45,0.667c0.19,0.19,0.413,0.341,0.668,0.453s0.529,0.168,0.821,0.168c0.287,0,0.558-0.056,0.813-0.168
		s0.479-0.263,0.668-0.453c0.19-0.189,0.34-0.412,0.45-0.667C52.124,199.141,52.178,198.873,52.178,198.592z"/>
	<path d="M59.335,201.714h-4.222v-6.236h1.233v5.065h2.989V201.714z"/>
	<path d="M64.939,201.714h-4.121v-6.236h4.121v0.999h-2.935v1.49H64.9v0.976h-2.896v1.718h2.935V201.714z"/>
	<path d="M74.273,197.569c0,0.296-0.056,0.573-0.168,0.831c-0.112,0.258-0.265,0.481-0.458,0.671
		c-0.193,0.19-0.42,0.339-0.681,0.445s-0.537,0.16-0.829,0.16h-1.033v2.037h-1.21v-6.236h2.244c0.292,0,0.568,0.054,0.829,0.16
		s0.487,0.253,0.68,0.44s0.345,0.409,0.458,0.664C74.217,196.997,74.273,197.272,74.273,197.569z M73.063,197.554
		c0-0.161-0.03-0.312-0.089-0.453c-0.06-0.141-0.142-0.263-0.246-0.366c-0.104-0.104-0.226-0.188-0.367-0.25
		s-0.292-0.094-0.453-0.094h-0.804v2.357h0.804c0.161,0,0.312-0.033,0.453-0.098c0.141-0.065,0.263-0.152,0.367-0.262
		s0.186-0.235,0.246-0.379C73.034,197.867,73.063,197.715,73.063,197.554z"/>
	<path d="M81.298,195.47v3.388c0,0.416-0.062,0.804-0.188,1.163c-0.125,0.358-0.306,0.672-0.542,0.939
		c-0.237,0.269-0.525,0.479-0.866,0.633s-0.73,0.23-1.167,0.23c-0.426,0-0.812-0.076-1.155-0.227
		c-0.343-0.151-0.636-0.357-0.878-0.621c-0.242-0.263-0.428-0.572-0.559-0.929c-0.13-0.356-0.195-0.74-0.195-1.15v-3.427h1.209
		v3.434c0,0.24,0.034,0.465,0.102,0.676c0.068,0.211,0.167,0.395,0.297,0.55c0.13,0.156,0.292,0.28,0.488,0.371
		s0.417,0.137,0.667,0.137c0.266,0,0.496-0.043,0.691-0.129c0.195-0.086,0.356-0.205,0.484-0.359
		c0.127-0.153,0.224-0.334,0.289-0.542s0.098-0.438,0.098-0.687v-3.45H81.298z"/>
	<path d="M87.541,199.926c0,0.261-0.053,0.501-0.16,0.723c-0.106,0.221-0.249,0.411-0.425,0.569
		c-0.177,0.159-0.381,0.282-0.613,0.371c-0.231,0.088-0.475,0.133-0.73,0.133l-2.521-0.008v-6.244h2.248
		c0.271,0,0.521,0.04,0.753,0.121c0.231,0.081,0.433,0.197,0.604,0.352c0.172,0.153,0.306,0.34,0.402,0.562
		c0.096,0.221,0.145,0.47,0.145,0.745c0,0.234-0.052,0.461-0.156,0.679c-0.104,0.219-0.242,0.403-0.414,0.555
		c0.136,0.067,0.256,0.153,0.363,0.258c0.107,0.104,0.198,0.22,0.273,0.347c0.075,0.128,0.133,0.264,0.172,0.406
		C87.522,199.637,87.541,199.78,87.541,199.926z M86.05,197.272c0-0.15-0.028-0.281-0.085-0.39c-0.058-0.109-0.134-0.2-0.23-0.273
		s-0.207-0.128-0.332-0.164s-0.255-0.055-0.391-0.055h-0.71v1.717c0.13,0.006,0.247,0.008,0.352,0.008c0.104,0,0.224,0,0.358,0
		c0.136,0,0.266-0.016,0.391-0.046c0.125-0.032,0.235-0.081,0.332-0.148c0.096-0.068,0.173-0.155,0.23-0.262
		C86.022,197.552,86.05,197.424,86.05,197.272z M86.285,199.855c0-0.13-0.024-0.249-0.074-0.358
		c-0.049-0.109-0.117-0.202-0.203-0.277s-0.185-0.134-0.297-0.175c-0.112-0.042-0.232-0.062-0.363-0.062
		c-0.177-0.006-0.351-0.007-0.523-0.005c-0.171,0.003-0.346,0.005-0.523,0.005v1.725h0.905c0.13,0,0.26-0.016,0.391-0.047
		c0.13-0.031,0.246-0.082,0.347-0.152s0.184-0.159,0.246-0.266C86.253,200.136,86.285,200.007,86.285,199.855z"/>
	<path d="M93.402,201.714H89.18v-6.236h1.233v5.065h2.989V201.714z"/>
	<path d="M96.095,201.714h-1.209v-6.236h1.209V201.714z"/>
	<path d="M104.392,198.592c0,0.369-0.059,0.719-0.176,1.05c-0.117,0.33-0.285,0.633-0.503,0.909l0.625,0.616l-0.718,0.719
		l-0.64-0.648c-0.266,0.183-0.557,0.325-0.875,0.43c-0.317,0.104-0.653,0.156-1.006,0.156c-0.453,0-0.878-0.085-1.276-0.254
		s-0.747-0.4-1.046-0.694c-0.299-0.295-0.535-0.637-0.706-1.026c-0.172-0.391-0.258-0.81-0.258-1.257s0.086-0.868,0.258-1.261
		c0.171-0.393,0.407-0.736,0.706-1.03s0.648-0.525,1.046-0.694s0.824-0.254,1.276-0.254c0.452,0,0.879,0.085,1.28,0.254
		c0.4,0.169,0.75,0.4,1.05,0.694c0.299,0.294,0.535,0.638,0.706,1.03C104.306,197.724,104.392,198.145,104.392,198.592z
		 M103.213,198.592c0-0.286-0.056-0.557-0.168-0.812c-0.112-0.255-0.263-0.479-0.453-0.672c-0.19-0.192-0.414-0.345-0.671-0.456
		c-0.258-0.112-0.532-0.168-0.823-0.168c-0.292,0-0.565,0.056-0.82,0.168c-0.255,0.111-0.479,0.264-0.671,0.456
		c-0.193,0.193-0.344,0.417-0.453,0.672c-0.109,0.255-0.164,0.525-0.164,0.812s0.055,0.557,0.164,0.812
		c0.109,0.255,0.26,0.478,0.453,0.667c0.192,0.19,0.416,0.341,0.671,0.453s0.528,0.168,0.82,0.168c0.197,0,0.386-0.026,0.565-0.078
		c0.18-0.052,0.35-0.125,0.511-0.219l-0.585-0.569l0.718-0.719l0.578,0.594C103.104,199.361,103.213,198.992,103.213,198.592z"/>
	<path d="M111.58,195.47v3.388c0,0.416-0.062,0.804-0.188,1.163c-0.125,0.358-0.306,0.672-0.542,0.939
		c-0.237,0.269-0.526,0.479-0.867,0.633s-0.729,0.23-1.167,0.23c-0.426,0-0.812-0.076-1.155-0.227
		c-0.343-0.151-0.636-0.357-0.878-0.621c-0.242-0.263-0.428-0.572-0.558-0.929c-0.13-0.356-0.195-0.74-0.195-1.15v-3.427h1.209
		v3.434c0,0.24,0.034,0.465,0.101,0.676c0.068,0.211,0.167,0.395,0.297,0.55c0.13,0.156,0.293,0.28,0.488,0.371
		c0.195,0.091,0.418,0.137,0.667,0.137c0.266,0,0.496-0.043,0.691-0.129c0.195-0.086,0.356-0.205,0.484-0.359
		c0.127-0.153,0.224-0.334,0.289-0.542c0.065-0.208,0.098-0.438,0.098-0.687v-3.45H111.58z"/>
	<path d="M117.496,201.714h-4.121v-6.236h4.121v0.999h-2.935v1.49h2.896v0.976h-2.896v1.718h2.935V201.714z"/>
	<path d="M128,198.592c0,0.432-0.072,0.836-0.218,1.213c-0.146,0.378-0.349,0.708-0.609,0.992c-0.26,0.283-0.571,0.507-0.933,0.671
		s-0.756,0.246-1.183,0.246h-2.606v-6.244h2.606c0.427,0,0.821,0.083,1.183,0.25c0.361,0.166,0.673,0.39,0.933,0.671
		c0.261,0.281,0.463,0.611,0.609,0.991C127.928,197.762,128,198.165,128,198.592z M126.775,198.561
		c0.006-0.292-0.038-0.567-0.132-0.827c-0.094-0.261-0.229-0.488-0.406-0.684c-0.177-0.194-0.394-0.349-0.651-0.46
		c-0.258-0.112-0.548-0.168-0.87-0.168h-1.054v4.262h1.054c0.317,0,0.602-0.054,0.854-0.16c0.252-0.106,0.467-0.255,0.644-0.445
		c0.177-0.189,0.313-0.413,0.41-0.671C126.719,199.149,126.77,198.867,126.775,198.561z"/>
	<path d="M130.452,196.398c0,0.125-0.019,0.243-0.055,0.355c-0.037,0.111-0.09,0.21-0.16,0.296s-0.159,0.154-0.266,0.203
		c-0.106,0.05-0.23,0.074-0.37,0.074c-0.053,0-0.104-0.005-0.153-0.016c-0.049-0.01-0.095-0.021-0.136-0.031v-0.086
		c0.15-0.025,0.272-0.096,0.366-0.211c0.094-0.114,0.141-0.247,0.141-0.397c0-0.026-0.002-0.058-0.008-0.094
		c-0.005-0.036-0.013-0.067-0.023-0.094h-0.499v-1.163h1.163V196.398z"/>
	<path d="M133.222,201.714h-1.21v-6.236h1.21V201.714z"/>
	<path d="M140.364,201.714h-1.187l-2.817-4.379v4.379h-1.187v-6.244h1.357l2.646,4.074v-4.074h1.187V201.714z"/>
	<path d="M148.059,200.566c-0.178,0.219-0.37,0.407-0.578,0.565c-0.208,0.159-0.425,0.29-0.651,0.395
		c-0.227,0.104-0.458,0.181-0.695,0.23c-0.236,0.049-0.472,0.073-0.706,0.073c-0.463,0-0.897-0.083-1.303-0.249
		c-0.406-0.166-0.76-0.396-1.062-0.688c-0.302-0.291-0.541-0.635-0.719-1.03c-0.177-0.395-0.265-0.821-0.265-1.279
		c0-0.447,0.087-0.868,0.261-1.261c0.175-0.393,0.414-0.735,0.718-1.026c0.305-0.291,0.66-0.521,1.066-0.69
		c0.405-0.169,0.84-0.254,1.303-0.254c0.536,0,1.023,0.109,1.464,0.328c0.439,0.219,0.812,0.51,1.12,0.874l-0.818,0.835
		c-0.234-0.317-0.496-0.545-0.787-0.683s-0.615-0.207-0.974-0.207c-0.297,0-0.574,0.055-0.834,0.164s-0.487,0.259-0.682,0.448
		c-0.195,0.19-0.349,0.411-0.46,0.664c-0.112,0.252-0.168,0.521-0.168,0.808c0,0.291,0.056,0.563,0.168,0.815
		c0.111,0.252,0.265,0.475,0.459,0.667c0.195,0.192,0.422,0.344,0.682,0.453s0.537,0.164,0.834,0.164
		c0.28,0,0.545-0.053,0.794-0.156c0.249-0.104,0.473-0.242,0.67-0.414v-0.601h-1.28v-1.03h2.443V200.566z"/>
	<path d="M153.896,201.714h-4.12v-6.236h4.12v0.999h-2.934v1.49h2.896v0.976h-2.896v1.718h2.934V201.714z M153.186,193.409
		l-1.123,1.506h-0.828l0.703-1.506H153.186z"/>
	<path d="M160.804,201.714h-1.187l-2.817-4.379v4.379h-1.187v-6.244h1.357l2.646,4.074v-4.074h1.187V201.714z"/>
	<path d="M163.964,201.714h-1.21v-6.236h1.21V201.714z"/>
	<path d="M170.037,201.714h-4.121v-6.236h4.121v0.999h-2.935v1.49h2.896v0.976h-2.896v1.718h2.935V201.714z"/>
	<path d="M177.225,195.47v3.388c0,0.416-0.062,0.804-0.188,1.163c-0.125,0.358-0.306,0.672-0.542,0.939
		c-0.237,0.269-0.526,0.479-0.867,0.633s-0.729,0.23-1.167,0.23c-0.426,0-0.812-0.076-1.154-0.227
		c-0.344-0.151-0.637-0.357-0.878-0.621c-0.242-0.263-0.429-0.572-0.559-0.929s-0.195-0.74-0.195-1.15v-3.427h1.21v3.434
		c0,0.24,0.034,0.465,0.102,0.676s0.166,0.395,0.297,0.55c0.13,0.156,0.293,0.28,0.487,0.371c0.195,0.091,0.418,0.137,0.667,0.137
		c0.266,0,0.496-0.043,0.691-0.129s0.356-0.205,0.483-0.359c0.128-0.153,0.224-0.334,0.289-0.542S176,199.169,176,198.92v-3.45
		H177.225z"/>
	<path d="M183.71,201.714h-1.332l-0.444-1.421c-0.047-0.156-0.104-0.299-0.175-0.43c-0.07-0.13-0.154-0.241-0.253-0.335
		s-0.217-0.167-0.354-0.219s-0.3-0.078-0.486-0.078h-0.452v2.482h-1.193v-6.236l2.462-0.008c0.265,0,0.511,0.046,0.74,0.137
		c0.229,0.091,0.426,0.217,0.592,0.378c0.166,0.162,0.296,0.352,0.39,0.57c0.093,0.219,0.14,0.455,0.14,0.71
		c0,0.183-0.028,0.359-0.085,0.531c-0.057,0.171-0.137,0.33-0.24,0.476s-0.227,0.274-0.368,0.387
		c-0.143,0.112-0.299,0.196-0.469,0.254c0.195,0.072,0.356,0.178,0.48,0.315c0.124,0.139,0.222,0.303,0.295,0.496
		c0.036,0.088,0.069,0.177,0.101,0.265c0.03,0.089,0.062,0.182,0.097,0.277c0.033,0.097,0.07,0.2,0.108,0.312
		c0.039,0.111,0.081,0.235,0.128,0.371c0.058,0.171,0.11,0.318,0.16,0.44S183.653,201.62,183.71,201.714z M182.134,197.351
		c0-0.146-0.027-0.278-0.082-0.398c-0.055-0.119-0.129-0.224-0.223-0.312c-0.094-0.089-0.204-0.157-0.332-0.207
		c-0.127-0.05-0.264-0.074-0.409-0.074h-0.875v1.943h0.875c0.146,0,0.282-0.022,0.409-0.066c0.128-0.044,0.238-0.107,0.332-0.191
		c0.094-0.083,0.168-0.183,0.223-0.3S182.134,197.496,182.134,197.351z"/>
	<path d="M189.408,200.074c0,0.234-0.05,0.457-0.151,0.668c-0.102,0.21-0.244,0.396-0.426,0.558
		c-0.183,0.161-0.398,0.29-0.647,0.387c-0.25,0.096-0.526,0.144-0.827,0.144c-0.271,0-0.515-0.015-0.73-0.046
		s-0.419-0.081-0.608-0.148c-0.19-0.068-0.372-0.155-0.547-0.262c-0.174-0.106-0.354-0.235-0.542-0.387l0.858-0.866
		c0.25,0.208,0.494,0.355,0.733,0.441s0.5,0.129,0.781,0.129c0.114,0,0.222-0.017,0.323-0.051s0.19-0.079,0.266-0.137
		s0.135-0.125,0.18-0.203c0.044-0.078,0.066-0.164,0.066-0.258c0-0.099-0.019-0.188-0.055-0.265
		c-0.036-0.078-0.102-0.153-0.195-0.227s-0.224-0.147-0.391-0.223c-0.166-0.075-0.38-0.16-0.64-0.254
		c-0.229-0.083-0.449-0.178-0.659-0.284c-0.211-0.106-0.396-0.236-0.555-0.387c-0.158-0.15-0.286-0.328-0.383-0.53
		c-0.096-0.203-0.144-0.442-0.144-0.719c0-0.266,0.053-0.51,0.16-0.733c0.106-0.224,0.252-0.415,0.437-0.573
		c0.185-0.159,0.4-0.283,0.647-0.371c0.247-0.089,0.515-0.133,0.801-0.133c0.479,0,0.882,0.062,1.209,0.188
		c0.328,0.125,0.619,0.307,0.875,0.546l-0.843,0.851c-0.156-0.15-0.331-0.267-0.523-0.347c-0.192-0.081-0.419-0.121-0.679-0.121
		c-0.12,0-0.23,0.019-0.332,0.055s-0.188,0.085-0.262,0.145c-0.072,0.06-0.131,0.13-0.176,0.211
		c-0.044,0.08-0.065,0.165-0.065,0.253c0,0.099,0.021,0.189,0.062,0.27c0.041,0.081,0.111,0.158,0.21,0.234
		c0.1,0.075,0.23,0.15,0.395,0.226c0.164,0.076,0.368,0.158,0.612,0.246c0.312,0.109,0.58,0.229,0.804,0.359
		s0.406,0.273,0.547,0.429c0.141,0.157,0.244,0.332,0.312,0.527C189.375,199.61,189.408,199.83,189.408,200.074z"/>
	<path d="M60.666,211.997c-0.312,0.38-0.691,0.682-1.136,0.905s-0.936,0.335-1.471,0.335c-0.463,0-0.898-0.084-1.304-0.253
		s-0.759-0.399-1.059-0.691c-0.3-0.291-0.537-0.633-0.71-1.026c-0.173-0.393-0.26-0.815-0.26-1.268c0-0.453,0.086-0.876,0.26-1.269
		s0.41-0.736,0.71-1.03c0.3-0.294,0.653-0.524,1.059-0.69c0.406-0.167,0.84-0.25,1.304-0.25c0.535,0,1.026,0.111,1.471,0.335
		c0.445,0.225,0.815,0.516,1.112,0.875l-0.835,0.858c-0.192-0.276-0.44-0.498-0.745-0.668c-0.304-0.169-0.639-0.253-1.002-0.253
		c-0.292,0-0.566,0.056-0.824,0.168c-0.258,0.111-0.483,0.263-0.675,0.452c-0.192,0.19-0.345,0.411-0.457,0.664
		c-0.112,0.252-0.167,0.521-0.167,0.808c0,0.28,0.056,0.548,0.167,0.8s0.264,0.474,0.457,0.663c0.192,0.19,0.417,0.341,0.675,0.453
		c0.257,0.111,0.532,0.168,0.824,0.168c0.385,0,0.726-0.088,1.022-0.262c0.297-0.175,0.544-0.404,0.741-0.69L60.666,211.997z"/>
	<path d="M66.199,213.121h-4.121v-6.236h4.121v0.999h-2.935v1.49h2.896v0.976h-2.896v1.718h2.935V213.121z"/>
	<path d="M73.107,213.121H71.92l-2.817-4.379v4.379h-1.187v-6.244h1.358l2.646,4.074v-4.074h1.187V213.121z"/>
	<path d="M79.342,207.962h-1.725v5.159h-1.226v-5.159h-1.725v-1.077h4.675V207.962z"/>
	<path d="M85.594,213.121h-1.333l-0.443-1.421c-0.047-0.156-0.105-0.299-0.175-0.43c-0.07-0.13-0.154-0.241-0.253-0.335
		s-0.217-0.167-0.354-0.219c-0.138-0.052-0.3-0.078-0.487-0.078h-0.452v2.482h-1.194v-6.236l2.461-0.008
		c0.265,0,0.512,0.045,0.74,0.137c0.229,0.091,0.426,0.217,0.592,0.378c0.166,0.161,0.296,0.352,0.389,0.57
		c0.094,0.218,0.14,0.455,0.14,0.71c0,0.183-0.028,0.359-0.085,0.531c-0.057,0.171-0.137,0.33-0.241,0.476
		c-0.103,0.146-0.226,0.274-0.368,0.387c-0.142,0.111-0.298,0.196-0.469,0.253c0.196,0.073,0.356,0.179,0.48,0.316
		c0.125,0.138,0.223,0.303,0.295,0.496c0.036,0.088,0.07,0.177,0.101,0.265c0.031,0.089,0.063,0.181,0.097,0.277
		s0.07,0.2,0.109,0.312c0.039,0.111,0.081,0.235,0.127,0.37c0.058,0.172,0.111,0.319,0.16,0.441S85.536,213.027,85.594,213.121z
		 M84.017,208.758c0-0.146-0.027-0.278-0.082-0.398c-0.054-0.119-0.128-0.224-0.223-0.312c-0.093-0.089-0.204-0.157-0.331-0.207
		c-0.128-0.05-0.265-0.074-0.41-0.074h-0.874v1.943h0.874c0.146,0,0.282-0.022,0.41-0.066c0.127-0.044,0.238-0.107,0.331-0.191
		c0.094-0.083,0.168-0.184,0.223-0.3C83.99,209.034,84.017,208.903,84.017,208.758z"/>
	<path d="M91.244,213.121h-4.121v-6.236h4.121v0.999H88.31v1.49h2.896v0.976H88.31v1.718h2.934V213.121z"/>
	<path d="M101.75,209.999c0,0.432-0.073,0.836-0.219,1.213c-0.146,0.378-0.349,0.708-0.609,0.992
		c-0.26,0.283-0.571,0.507-0.932,0.671c-0.362,0.163-0.756,0.246-1.183,0.246H96.2v-6.244h2.607c0.426,0,0.821,0.083,1.183,0.25
		c0.361,0.166,0.672,0.39,0.932,0.671c0.26,0.281,0.463,0.611,0.609,0.991C101.677,209.169,101.75,209.572,101.75,209.999z
		 M100.524,209.968c0.005-0.292-0.039-0.567-0.132-0.827c-0.094-0.261-0.229-0.488-0.406-0.684c-0.177-0.194-0.394-0.349-0.652-0.46
		c-0.257-0.112-0.547-0.168-0.87-0.168H97.41v4.262h1.054c0.317,0,0.602-0.054,0.854-0.16s0.467-0.255,0.644-0.445
		c0.177-0.189,0.313-0.414,0.41-0.671C100.468,210.557,100.519,210.274,100.524,209.968z"/>
	<path d="M107.587,213.121h-4.121v-6.236h4.121v0.999h-2.934v1.49h2.896v0.976h-2.896v1.718h2.934V213.121z"/>
	<path d="M117.234,213.121h-1.333l-0.443-1.421c-0.047-0.156-0.105-0.299-0.175-0.43c-0.07-0.13-0.155-0.241-0.253-0.335
		c-0.099-0.094-0.217-0.167-0.354-0.219s-0.3-0.078-0.486-0.078h-0.452v2.482h-1.194v-6.236l2.462-0.008
		c0.265,0,0.512,0.045,0.74,0.137c0.229,0.091,0.426,0.217,0.592,0.378c0.167,0.161,0.296,0.352,0.39,0.57
		c0.094,0.218,0.14,0.455,0.14,0.71c0,0.183-0.028,0.359-0.085,0.531c-0.057,0.171-0.137,0.33-0.241,0.476
		c-0.103,0.146-0.226,0.274-0.368,0.387c-0.142,0.111-0.298,0.196-0.469,0.253c0.196,0.073,0.356,0.179,0.48,0.316
		c0.125,0.138,0.223,0.303,0.295,0.496c0.036,0.088,0.07,0.177,0.101,0.265c0.031,0.089,0.063,0.181,0.097,0.277
		s0.07,0.2,0.109,0.312c0.039,0.111,0.081,0.235,0.127,0.37c0.058,0.172,0.11,0.319,0.16,0.441
		C117.123,212.919,117.176,213.027,117.234,213.121z M115.657,208.758c0-0.146-0.027-0.278-0.082-0.398
		c-0.055-0.119-0.128-0.224-0.223-0.312c-0.093-0.089-0.204-0.157-0.332-0.207s-0.264-0.074-0.41-0.074h-0.874v1.943h0.874
		c0.146,0,0.282-0.022,0.41-0.066s0.238-0.107,0.332-0.191c0.094-0.083,0.168-0.184,0.223-0.3
		C115.63,209.034,115.657,208.903,115.657,208.758z"/>
	<path d="M122.884,213.121h-4.121v-6.236h4.121v0.999h-2.935v1.49h2.896v0.976h-2.896v1.718h2.935V213.121z"/>
	<path d="M130.306,211.997c-0.312,0.38-0.69,0.682-1.136,0.905c-0.444,0.224-0.936,0.335-1.471,0.335
		c-0.463,0-0.897-0.084-1.304-0.253c-0.405-0.169-0.759-0.399-1.06-0.691c-0.3-0.291-0.537-0.633-0.71-1.026
		c-0.173-0.393-0.26-0.815-0.26-1.268c0-0.453,0.087-0.876,0.26-1.269s0.41-0.736,0.71-1.03c0.301-0.294,0.654-0.524,1.06-0.69
		c0.406-0.167,0.841-0.25,1.304-0.25c0.535,0,1.026,0.111,1.471,0.335c0.445,0.225,0.815,0.516,1.112,0.875l-0.835,0.858
		c-0.192-0.276-0.441-0.498-0.745-0.668c-0.305-0.169-0.639-0.253-1.003-0.253c-0.292,0-0.566,0.056-0.823,0.168
		c-0.258,0.111-0.483,0.263-0.676,0.452c-0.192,0.19-0.345,0.411-0.456,0.664c-0.112,0.252-0.168,0.521-0.168,0.808
		c0,0.28,0.056,0.548,0.168,0.8c0.111,0.252,0.264,0.474,0.456,0.663c0.192,0.19,0.418,0.341,0.676,0.453
		c0.257,0.111,0.531,0.168,0.823,0.168c0.385,0,0.726-0.088,1.022-0.262c0.296-0.175,0.544-0.404,0.741-0.69L130.306,211.997z"/>
	<path d="M136.597,213.121h-1.21v-2.764h-2.458v2.764h-1.21v-6.236h1.21v2.474h2.458v-2.474h1.21V213.121z"/>
	<path d="M142.668,213.121h-4.12v-6.236h4.12v0.999h-2.935v1.49h2.896v0.976h-2.896v1.718h2.935V213.121z"/>
	<path d="M149.077,213.121h-1.332l-0.443-1.421c-0.047-0.156-0.105-0.299-0.176-0.43c-0.07-0.13-0.154-0.241-0.253-0.335
		s-0.217-0.167-0.354-0.219s-0.3-0.078-0.486-0.078h-0.452v2.482h-1.193v-6.236l2.462-0.008c0.265,0,0.512,0.045,0.74,0.137
		c0.229,0.091,0.426,0.217,0.592,0.378s0.296,0.352,0.39,0.57c0.094,0.218,0.14,0.455,0.14,0.71c0,0.183-0.028,0.359-0.085,0.531
		c-0.057,0.171-0.137,0.33-0.24,0.476s-0.227,0.274-0.368,0.387c-0.143,0.111-0.299,0.196-0.469,0.253
		c0.196,0.073,0.356,0.179,0.48,0.316s0.223,0.303,0.295,0.496c0.036,0.088,0.069,0.177,0.101,0.265
		c0.031,0.089,0.063,0.181,0.097,0.277c0.034,0.097,0.07,0.2,0.108,0.312c0.039,0.111,0.082,0.235,0.128,0.37
		c0.058,0.172,0.11,0.319,0.16,0.441S149.019,213.027,149.077,213.121z M147.5,208.758c0-0.146-0.027-0.278-0.082-0.398
		c-0.055-0.119-0.129-0.224-0.223-0.312c-0.094-0.089-0.204-0.157-0.332-0.207c-0.127-0.05-0.264-0.074-0.409-0.074h-0.875v1.943
		h0.875c0.146,0,0.282-0.022,0.409-0.066c0.128-0.044,0.238-0.107,0.332-0.191c0.094-0.083,0.168-0.184,0.223-0.3
		C147.473,209.034,147.5,208.903,147.5,208.758z"/>
	<path d="M156.312,211.997c-0.312,0.38-0.691,0.682-1.136,0.905c-0.445,0.224-0.936,0.335-1.472,0.335
		c-0.463,0-0.897-0.084-1.304-0.253c-0.405-0.169-0.759-0.399-1.059-0.691c-0.3-0.291-0.537-0.633-0.71-1.026
		c-0.174-0.393-0.26-0.815-0.26-1.268c0-0.453,0.086-0.876,0.26-1.269c0.173-0.393,0.41-0.736,0.71-1.03s0.653-0.524,1.059-0.69
		c0.406-0.167,0.841-0.25,1.304-0.25c0.536,0,1.026,0.111,1.472,0.335c0.444,0.225,0.815,0.516,1.112,0.875l-0.836,0.858
		c-0.192-0.276-0.44-0.498-0.745-0.668c-0.304-0.169-0.639-0.253-1.003-0.253c-0.291,0-0.565,0.056-0.823,0.168
		c-0.258,0.111-0.482,0.263-0.675,0.452c-0.192,0.19-0.345,0.411-0.457,0.664c-0.111,0.252-0.167,0.521-0.167,0.808
		c0,0.28,0.056,0.548,0.167,0.8c0.112,0.252,0.265,0.474,0.457,0.663c0.192,0.19,0.417,0.341,0.675,0.453
		c0.258,0.111,0.532,0.168,0.823,0.168c0.386,0,0.727-0.088,1.022-0.262c0.297-0.175,0.544-0.404,0.741-0.69L156.312,211.997z"/>
	<path d="M162.602,213.121h-1.21v-2.764h-2.458v2.764h-1.21v-6.236h1.21v2.474h2.458v-2.474h1.21V213.121z"/>
	<path d="M168.674,213.121h-4.121v-6.236h4.121v0.999h-2.935v1.49h2.896v0.976h-2.896v1.718h2.935V213.121z"/>
</g>
</svg>
