<?xml version="1.0" encoding="UTF-8" standalone="no"?>
<!-- Created with Inkscape (http://www.inkscape.org/) -->

<svg
   xmlns:dc="http://purl.org/dc/elements/1.1/"
   xmlns:cc="http://creativecommons.org/ns#"
   xmlns:rdf="http://www.w3.org/1999/02/22-rdf-syntax-ns#"
   xmlns:svg="http://www.w3.org/2000/svg"
   xmlns="http://www.w3.org/2000/svg"
   xmlns:sodipodi="http://sodipodi.sourceforge.net/DTD/sodipodi-0.dtd"
   xmlns:inkscape="http://www.inkscape.org/namespaces/inkscape"
   version="1.0"
   width="523.11926"
   height="154.49998"
   id="svg8215"
   inkscape:version="0.91 r13725"
   sodipodi:docname="memoire12.svg">
  <metadata
     id="metadata3327">
    <rdf:RDF>
      <cc:Work
         rdf:about="">
        <dc:format>image/svg+xml</dc:format>
        <dc:type
           rdf:resource="http://purl.org/dc/dcmitype/StillImage" />
        <dc:title />
      </cc:Work>
    </rdf:RDF>
  </metadata>
  <sodipodi:namedview
     pagecolor="#ffffff"
     bordercolor="#666666"
     borderopacity="1"
     objecttolerance="10"
     gridtolerance="10"
     guidetolerance="10"
     inkscape:pageopacity="0"
     inkscape:pageshadow="2"
     inkscape:window-width="1164"
     inkscape:window-height="856"
     id="namedview3325"
     showgrid="true"
     fit-margin-top="0"
     fit-margin-left="0"
     fit-margin-right="0"
     fit-margin-bottom="0"
     inkscape:zoom="1.1964512"
     inkscape:cx="242.00316"
     inkscape:cy="183.57451"
     inkscape:window-x="69"
     inkscape:window-y="0"
     inkscape:window-maximized="0"
     inkscape:current-layer="svg8215">
    <inkscape:grid
       type="xygrid"
       id="grid3329"
       empspacing="5"
       visible="true"
       enabled="true"
       snapvisiblegridlinesonly="true" />
  </sodipodi:namedview>
  <defs
     id="defs8217">
    <marker
       inkscape:stockid="Arrow2Mend"
       orient="auto"
       refY="0"
       refX="0"
       id="Arrow2Mend"
       style="overflow:visible">
      <path
         id="path5175"
         style="font-size:12px;fill-rule:evenodd;stroke-width:0.625;stroke-linejoin:round"
         d="M 8.7185878,4.0337352 -2.2072895,0.01601326 8.7185884,-4.0017078 c -1.7454984,2.3720609 -1.7354408,5.6174519 -6e-7,8.035443 z"
         transform="scale(-0.6,-0.6)"
         inkscape:connector-curvature="0" />
    </marker>
    <marker
       inkscape:stockid="Arrow2Lend"
       orient="auto"
       refY="0"
       refX="0"
       id="marker5405"
       style="overflow:visible">
      <path
         id="path5169"
         style="font-size:12px;fill-rule:evenodd;stroke-width:0.625;stroke-linejoin:round"
         d="M 8.7185878,4.0337352 -2.2072895,0.01601326 8.7185884,-4.0017078 c -1.7454984,2.3720609 -1.7354408,5.6174519 -6e-7,8.035443 z"
         transform="matrix(-1.1,0,0,-1.1,-1.1,0)"
         inkscape:connector-curvature="0" />
    </marker>
    <marker
       inkscape:stockid="Arrow1Lend"
       orient="auto"
       refY="0"
       refX="0"
       id="Arrow1Lend"
       style="overflow:visible">
      <path
         id="path4248"
         d="M 0,0 5,-5 -12.5,0 5,5 0,0 z"
         style="fill-rule:evenodd;stroke:#000000;stroke-width:1pt;marker-start:none"
         transform="matrix(-0.8,0,0,-0.8,-10,0)"
         inkscape:connector-curvature="0" />
    </marker>
    <marker
       refX="0"
       refY="0"
       orient="auto"
       style="overflow:visible"
       id="Arrow2Lend">
      <path
         d="M 8.7185878,4.0337352 -2.2072895,0.01601326 8.7185884,-4.0017078 c -1.7454984,2.3720609 -1.7354408,5.6174519 -6e-7,8.035443 z"
         transform="matrix(-1.1,0,0,-1.1,-1.1,0)"
         style="font-size:12px;fill-rule:evenodd;stroke-width:0.625;stroke-linejoin:round"
         id="path4045"
         inkscape:connector-curvature="0" />
    </marker>
    <marker
       inkscape:stockid="Arrow1Lend"
       orient="auto"
       refY="0"
       refX="0"
       id="Arrow1Lend-0"
       style="overflow:visible">
      <path
         inkscape:connector-curvature="0"
         id="path4248-3"
         d="M 0,0 5,-5 -12.5,0 5,5 0,0 z"
         style="fill-rule:evenodd;stroke:#000000;stroke-width:1pt;marker-start:none"
         transform="matrix(-0.8,0,0,-0.8,-10,0)" />
    </marker>
    <marker
       inkscape:stockid="Arrow1Lend"
       orient="auto"
       refY="0"
       refX="0"
       id="Arrow1Lend-3"
       style="overflow:visible">
      <path
         inkscape:connector-curvature="0"
         id="path4248-1"
         d="M 0,0 5,-5 -12.5,0 5,5 0,0 z"
         style="fill-rule:evenodd;stroke:#000000;stroke-width:1pt;marker-start:none"
         transform="matrix(-0.8,0,0,-0.8,-10,0)" />
    </marker>
    <marker
       inkscape:stockid="Arrow1Lend"
       orient="auto"
       refY="0"
       refX="0"
       id="marker4781"
       style="overflow:visible">
      <path
         inkscape:connector-curvature="0"
         id="path4783"
         d="M 0,0 5,-5 -12.5,0 5,5 0,0 z"
         style="fill-rule:evenodd;stroke:#000000;stroke-width:1pt;marker-start:none"
         transform="matrix(-0.8,0,0,-0.8,-10,0)" />
    </marker>
    <marker
       inkscape:stockid="Arrow2Mend"
       orient="auto"
       refY="0"
       refX="0"
       id="Arrow2Mend-5"
       style="overflow:visible">
      <path
         id="path5175-2"
         style="font-size:12px;fill-rule:evenodd;stroke-width:0.625;stroke-linejoin:round"
         d="M 8.7185878,4.0337352 -2.2072895,0.01601326 8.7185884,-4.0017078 c -1.7454984,2.3720609 -1.7354408,5.6174519 -6e-7,8.035443 z"
         transform="scale(-0.6,-0.6)"
         inkscape:connector-curvature="0" />
    </marker>
    <marker
       inkscape:stockid="Arrow2Mend"
       orient="auto"
       refY="0"
       refX="0"
       id="Arrow2Mend-9"
       style="overflow:visible">
      <path
         id="path5175-4"
         style="font-size:12px;fill-rule:evenodd;stroke-width:0.625;stroke-linejoin:round"
         d="M 8.7185878,4.0337352 -2.2072895,0.01601326 8.7185884,-4.0017078 c -1.7454984,2.3720609 -1.7354408,5.6174519 -6e-7,8.035443 z"
         transform="scale(-0.6,-0.6)"
         inkscape:connector-curvature="0" />
    </marker>
    <marker
       inkscape:stockid="Arrow2Mend"
       orient="auto"
       refY="0"
       refX="0"
       id="Arrow2Mend-7"
       style="overflow:visible">
      <path
         id="path5175-25"
         style="font-size:12px;fill-rule:evenodd;stroke-width:0.625;stroke-linejoin:round"
         d="M 8.7185878,4.0337352 -2.2072895,0.01601326 8.7185884,-4.0017078 c -1.7454984,2.3720609 -1.7354408,5.6174519 -6e-7,8.035443 z"
         transform="scale(-0.6,-0.6)"
         inkscape:connector-curvature="0" />
    </marker>
    <marker
       inkscape:stockid="Arrow2Mend"
       orient="auto"
       refY="0"
       refX="0"
       id="Arrow2Mend-7-2"
       style="overflow:visible">
      <path
         id="path5175-25-0"
         style="font-size:12px;fill-rule:evenodd;stroke-width:0.625;stroke-linejoin:round"
         d="M 8.7185878,4.0337352 -2.2072895,0.01601326 8.7185884,-4.0017078 c -1.7454984,2.3720609 -1.7354408,5.6174519 -6e-7,8.035443 z"
         transform="scale(-0.6,-0.6)"
         inkscape:connector-curvature="0" />
    </marker>
    <marker
       inkscape:stockid="Arrow2Mend"
       orient="auto"
       refY="0"
       refX="0"
       id="Arrow2Mend-2"
       style="overflow:visible">
      <path
         id="path5175-43"
         style="font-size:12px;fill-rule:evenodd;stroke-width:0.625;stroke-linejoin:round"
         d="M 8.7185878,4.0337352 -2.2072895,0.01601326 8.7185884,-4.0017078 c -1.7454984,2.3720609 -1.7354408,5.6174519 -6e-7,8.035443 z"
         transform="scale(-0.6,-0.6)"
         inkscape:connector-curvature="0" />
    </marker>
    <marker
       inkscape:stockid="Arrow2Mend"
       orient="auto"
       refY="0"
       refX="0"
       id="marker4310"
       style="overflow:visible">
      <path
         id="path4312"
         style="font-size:12px;fill-rule:evenodd;stroke-width:0.625;stroke-linejoin:round"
         d="M 8.7185878,4.0337352 -2.2072895,0.01601326 8.7185884,-4.0017078 c -1.7454984,2.3720609 -1.7354408,5.6174519 -6e-7,8.035443 z"
         transform="scale(-0.6,-0.6)"
         inkscape:connector-curvature="0" />
    </marker>
    <marker
       inkscape:stockid="Arrow2Mend"
       orient="auto"
       refY="0"
       refX="0"
       id="marker4314"
       style="overflow:visible">
      <path
         id="path4316"
         style="font-size:12px;fill-rule:evenodd;stroke-width:0.625;stroke-linejoin:round"
         d="M 8.7185878,4.0337352 -2.2072895,0.01601326 8.7185884,-4.0017078 c -1.7454984,2.3720609 -1.7354408,5.6174519 -6e-7,8.035443 z"
         transform="scale(-0.6,-0.6)"
         inkscape:connector-curvature="0" />
    </marker>
  </defs>
  <rect
     id="rect8247-7-06-9-2-4-4-2-2"
     style="fill:#b4b66f;fill-opacity:0.58823532;stroke:none"
     y="84.500008"
     x="406.61923"
     height="29.999992"
     width="59.999992" />
  <rect
     id="rect8247-7-06-9-2-4-4-2-7"
     style="fill:#b4b66f;fill-opacity:0.58823532;stroke:none"
     y="84.500008"
     x="306.61923"
     height="29.999992"
     width="59.999992" />
  <rect
     id="rect8247-7-06-9-2-4-4-2"
     style="fill:#b4b66f;fill-opacity:0.58823532;stroke:none"
     y="84.500008"
     x="204.61925"
     height="29.999992"
     width="59.999992" />
  <rect
     id="rect8247-7-06-9-2-4-4"
     style="fill:#b4b66f;fill-opacity:0.58823532;stroke:none"
     y="84.500008"
     x="106.61925"
     height="29.999992"
     width="59.999992" />
  <rect
     id="rect8247-7-06-9-2-4-6-4-6-3"
     style="fill:#50bbbe;fill-opacity:0.58823532;stroke:none"
     y="25.50001"
     x="331.61923"
     height="29.999992"
     width="30.000008" />
  <rect
     id="rect8247-7-06-9-2-4-6-4-6-19"
     style="fill:#50bbbe;fill-opacity:0.58823532;stroke:none"
     y="24.500002"
     x="256.61923"
     height="29.999992"
     width="30.000008" />
  <rect
     id="rect8247-7-06-9-2-4-6-4-6-1"
     style="fill:#50bbbe;fill-opacity:0.58823532;stroke:none"
     y="24.500002"
     x="182.61925"
     height="29.999992"
     width="30.000008" />
  <rect
     id="rect8247-7-06-9-2-4-6-4-6"
     style="fill:#50bbbe;fill-opacity:0.58823532;stroke:none"
     y="24.50001"
     x="106.61925"
     height="29.999992"
     width="30.000008" />
  <text
     xml:space="preserve"
     id="text8343-3-0"
     style="font-size:24.81410408px;font-style:italic;font-weight:bold;text-align:center;text-anchor:middle;fill:#000000;fill-opacity:1;stroke:none;font-family:Arial"
     y="288.26947"
     x="366.44617"><tspan
       style="font-size:22px;font-style:normal;font-variant:normal;font-weight:normal;font-stretch:normal;font-family:DejaVu Sans;-inkscape-font-specification:DejaVu Sans"
       id="tspan8345-0-8"
       y="288.26947"
       x="366.44617" /></text>
  <text
     xml:space="preserve"
     id="text8307-8-6-4-9"
     style="font-size:19.44403458px;font-style:italic;font-weight:bold;text-align:end;text-anchor:end;fill:#000000;fill-opacity:1;stroke:none;font-family:Arial"
     y="101.99177"
     x="340.15436"><tspan
       style="font-size:18px;font-style:normal;font-variant:normal;font-weight:normal;font-stretch:normal;font-family:DejaVu Sans;-inkscape-font-specification:DejaVu Sans"
       id="tspan8309-5-5-0-3"
       y="101.99177"
       x="340.15436" /></text>
  <path
     sodipodi:type="arc"
     style="fill:#000000;fill-opacity:1;stroke:none"
     id="path5116"
     sodipodi:cx="175"
     sodipodi:cy="453.82812"
     sodipodi:rx="5"
     sodipodi:ry="5"
     d="m 180,453.82812 a 5,5 0 1 1 -10,0 5,5 0 1 1 10,0 z"
     transform="matrix(0.6,0,0,0.6,26.619244,-241.79687)"
     inkscape:transform-center-x="-42"
     inkscape:transform-center-y="0.6" />
  <path
     style="fill:none;stroke:#000000;stroke-width:1;stroke-linecap:butt;stroke-linejoin:miter;stroke-miterlimit:4;stroke-opacity:1;stroke-dasharray:none;marker-end:url(#Arrow2Mend)"
     d="m 131.61924,27.5 0,-20 53,0 0,20"
     id="path5602"
     inkscape:connector-curvature="0" />
  <path
     sodipodi:type="arc"
     style="fill:#000000;fill-opacity:1;stroke:none"
     id="path5116-9"
     sodipodi:cx="175"
     sodipodi:cy="453.82812"
     sodipodi:rx="5"
     sodipodi:ry="5"
     d="m 180,453.82812 a 5,5 0 1 1 -10,0 5,5 0 1 1 10,0 z"
     transform="matrix(0.6,0,0,0.6,102.61924,-241.79688)"
     inkscape:transform-center-x="-42"
     inkscape:transform-center-y="0.6" />
  <path
     style="fill:none;stroke:#000000;stroke-width:1;stroke-linecap:butt;stroke-linejoin:miter;stroke-miterlimit:4;stroke-opacity:1;stroke-dasharray:none;marker-end:url(#Arrow2Mend)"
     d="m 207.61924,27.49999 0,-20 53,0 0,20"
     id="path5602-9"
     inkscape:connector-curvature="0" />
  <path
     sodipodi:type="arc"
     style="fill:#000000;fill-opacity:1;stroke:none"
     id="path5116-5"
     sodipodi:cx="175"
     sodipodi:cy="453.82812"
     sodipodi:rx="5"
     sodipodi:ry="5"
     d="m 180,453.82812 a 5,5 0 1 1 -10,0 5,5 0 1 1 10,0 z"
     transform="matrix(0.6,0,0,0.6,176.61924,-241.79688)"
     inkscape:transform-center-x="-42"
     inkscape:transform-center-y="0.6" />
  <path
     style="fill:none;stroke:#000000;stroke-width:1;stroke-linecap:butt;stroke-linejoin:miter;stroke-miterlimit:4;stroke-opacity:1;stroke-dasharray:none;marker-end:url(#Arrow2Mend)"
     d="m 281.61923,27.49999 0,-20 53,0 0,20"
     id="path5602-7"
     inkscape:connector-curvature="0" />
  <path
     sodipodi:type="arc"
     style="fill:#000000;fill-opacity:1;stroke:none"
     id="path5116-8-4"
     sodipodi:cx="175"
     sodipodi:cy="453.82812"
     sodipodi:rx="5"
     sodipodi:ry="5"
     d="m 180,453.82812 a 5,5 0 1 1 -10,0 5,5 0 1 1 10,0 z"
     transform="matrix(0.6,0,0,0.6,250.61924,-241.79687)"
     inkscape:transform-center-x="-42"
     inkscape:transform-center-y="0.6" />
  <path
     style="fill:none;stroke:#000000;stroke-width:1px;stroke-linecap:butt;stroke-linejoin:miter;stroke-opacity:1"
     d="m 355.61924,30.5 0,-25 55,0"
     id="path6457-3"
     inkscape:connector-curvature="0" />
  <rect
     style="fill:none;stroke:#000000;stroke-width:1;stroke-miterlimit:4;stroke-opacity:1;stroke-dasharray:none"
     id="rect6459-7"
     width="10"
     height="10"
     x="410.61923"
     y="0.50000215" />
  <path
     style="fill:none;stroke:#000000;stroke-width:1px;stroke-linecap:butt;stroke-linejoin:miter;stroke-opacity:1"
     d="m 411.61924,0.5 9,10"
     id="path6461-9"
     inkscape:connector-curvature="0" />
  <path
     style="fill:none;stroke:#000000;stroke-width:1px;stroke-linecap:butt;stroke-linejoin:miter;stroke-opacity:1"
     d="m 420.61924,0.5 -10,10"
     id="path6463-0"
     inkscape:connector-curvature="0" />
  <path
     style="fill:none;stroke:#000000;stroke-width:1px;stroke-linecap:butt;stroke-linejoin:miter;stroke-opacity:1;marker-end:url(#Arrow2Mend-7)"
     d="m 66.619244,40.5 39.999996,0"
     id="path4073"
     inkscape:connector-curvature="0" />
  <text
     transform="scale(1.0465362,0.95553311)"
     xml:space="preserve"
     id="text8307-3-3-6-6-1-3-7-0"
     style="font-size:18.57941818px;font-style:italic;font-weight:bold;text-align:end;text-anchor:end;fill:#000000;fill-opacity:1;stroke:none;font-family:Arial"
     y="46.570858"
     x="54.101562"><tspan
       style="font-size:16px;font-style:normal;font-variant:normal;font-weight:300;font-stretch:normal;font-family:'Fira Sans';-inkscape-font-specification:'Fira Sans Light'"
       id="tspan8309-2-9-7-3-24-0-4-2"
       y="46.570858"
       x="54.101562">taille 1</tspan></text>
  <path
     sodipodi:type="arc"
     style="fill:#000000;fill-opacity:1;stroke:none"
     id="path5116-1"
     sodipodi:cx="175"
     sodipodi:cy="453.82812"
     sodipodi:rx="5"
     sodipodi:ry="5"
     d="m 180,453.82812 a 5,5 0 1 1 -10,0 5,5 0 1 1 10,0 z"
     transform="matrix(0.6,0,0,0.6,54.619248,-180.79687)"
     inkscape:transform-center-x="-42"
     inkscape:transform-center-y="0.6" />
  <path
     style="fill:none;stroke:#000000;stroke-width:1;stroke-linecap:butt;stroke-linejoin:miter;stroke-miterlimit:4;stroke-opacity:1;stroke-dasharray:none;marker-end:url(#Arrow2Mend)"
     d="m 159.61924,88.5 0,-20 53,0 0,20"
     id="path5602-5"
     inkscape:connector-curvature="0" />
  <path
     sodipodi:type="arc"
     style="fill:#000000;fill-opacity:1;stroke:none"
     id="path5116-9-8"
     sodipodi:cx="175"
     sodipodi:cy="453.82812"
     sodipodi:rx="5"
     sodipodi:ry="5"
     d="m 180,453.82812 a 5,5 0 1 1 -10,0 5,5 0 1 1 10,0 z"
     transform="matrix(0.6,0,0,0.6,152.61924,-180.79688)"
     inkscape:transform-center-x="-42"
     inkscape:transform-center-y="0.6" />
  <path
     style="fill:none;stroke:#000000;stroke-width:1;stroke-linecap:butt;stroke-linejoin:miter;stroke-miterlimit:4;stroke-opacity:1;stroke-dasharray:none;marker-end:url(#Arrow2Mend)"
     d="m 257.61924,88.49999 0,-20 53,0 0,20"
     id="path5602-9-0"
     inkscape:connector-curvature="0" />
  <path
     sodipodi:type="arc"
     style="fill:#000000;fill-opacity:1;stroke:none"
     id="path5116-5-0"
     sodipodi:cx="175"
     sodipodi:cy="453.82812"
     sodipodi:rx="5"
     sodipodi:ry="5"
     d="m 180,453.82812 a 5,5 0 1 1 -10,0 5,5 0 1 1 10,0 z"
     transform="matrix(0.6,0,0,0.6,254.61924,-180.79688)"
     inkscape:transform-center-x="-42"
     inkscape:transform-center-y="0.6" />
  <path
     style="fill:none;stroke:#000000;stroke-width:1;stroke-linecap:butt;stroke-linejoin:miter;stroke-miterlimit:4;stroke-opacity:1;stroke-dasharray:none;marker-end:url(#Arrow2Mend)"
     d="m 359.61923,88.49999 0,-20 53,0 0,20"
     id="path5602-7-0"
     inkscape:connector-curvature="0" />
  <path
     sodipodi:type="arc"
     style="fill:#000000;fill-opacity:1;stroke:none"
     id="path5116-8-4-4"
     sodipodi:cx="175"
     sodipodi:cy="453.82812"
     sodipodi:rx="5"
     sodipodi:ry="5"
     d="m 180,453.82812 a 5,5 0 1 1 -10,0 5,5 0 1 1 10,0 z"
     transform="matrix(0.6,0,0,0.6,352.61924,-181.79688)"
     inkscape:transform-center-x="-42"
     inkscape:transform-center-y="0.6" />
  <path
     style="fill:none;stroke:#000000;stroke-width:1px;stroke-linecap:butt;stroke-linejoin:miter;stroke-opacity:1"
     d="m 457.61924,90.49999 0,-25 55,0"
     id="path6457-3-7"
     inkscape:connector-curvature="0" />
  <rect
     style="fill:none;stroke:#000000;stroke-width:1;stroke-miterlimit:4;stroke-opacity:1;stroke-dasharray:none"
     id="rect6459-7-5"
     width="10"
     height="10"
     x="512.61926"
     y="60.500011" />
  <path
     style="fill:none;stroke:#000000;stroke-width:1px;stroke-linecap:butt;stroke-linejoin:miter;stroke-opacity:1"
     d="m 513.61924,60.49999 9,10"
     id="path6461-9-3"
     inkscape:connector-curvature="0" />
  <path
     style="fill:none;stroke:#000000;stroke-width:1px;stroke-linecap:butt;stroke-linejoin:miter;stroke-opacity:1"
     d="m 522.61924,60.49999 -10,10"
     id="path6463-0-1"
     inkscape:connector-curvature="0" />
  <path
     style="fill:none;stroke:#000000;stroke-width:1px;stroke-linecap:butt;stroke-linejoin:miter;stroke-opacity:1;marker-end:url(#Arrow2Mend-7)"
     d="m 66.619248,101.5 39.999992,0"
     id="path4073-4"
     inkscape:connector-curvature="0" />
  <text
     transform="scale(1.0465362,0.95553311)"
     xml:space="preserve"
     id="text8307-3-3-6-6-1-3-7-0-2"
     style="font-size:18.57941818px;font-style:italic;font-weight:bold;text-align:end;text-anchor:end;fill:#000000;fill-opacity:1;stroke:none;font-family:Arial"
     y="110.40958"
     x="54.101562"><tspan
       style="font-size:16px;font-style:normal;font-variant:normal;font-weight:300;font-stretch:normal;font-family:'Fira Sans';-inkscape-font-specification:'Fira Sans Light'"
       id="tspan8309-2-9-7-3-24-0-4-2-0"
       y="110.40958"
       x="54.101562">taille 2</tspan></text>
  <text
     transform="scale(1.0465362,0.95553311)"
     xml:space="preserve"
     id="text8307-3-3-6-6-1-3-7-0-2-0"
     style="font-style:italic;font-weight:bold;font-size:18.57941818px;font-family:Arial;text-align:end;text-anchor:end;fill:#000000;fill-opacity:1;stroke:none"
     y="157.50368"
     x="17.791285"><tspan
       style="font-style:normal;font-variant:normal;font-weight:300;font-stretch:normal;font-size:16px;font-family:'Fira Sans';-inkscape-font-specification:'Fira Sans Light'"
       id="tspan8309-2-9-7-3-24-0-4-2-0-2"
       y="157.50368"
       x="17.791285">...</tspan></text>
</svg>
