<?xml version="1.0" encoding="UTF-8"?>
<!-- Created with Inkscape (http://www.inkscape.org/) & notepad -->
<!-- Author: Bub's, this artwork is *not* copyrighted -->
<svg xmlns="http://www.w3.org/2000/svg" width="320" height="500" version="1.0">
	<path d="M 46.416784,457.85 L 46.304943,475.94997" style="fill: none; fill-rule: evenodd; stroke: rgb(0, 0, 0); stroke-width: 7.89px; stroke-linecap: round; stroke-linejoin: miter;"/>
	<g transform="translate(-89.8465, -622.24)" style="stroke: rgb(0, 0, 0); stroke-width: 0.8;">
		<path style="fill: rgb(160, 157, 157); fill-rule: evenodd; stroke: rgb(0, 0, 0); stroke-width: 0.8; stroke-linecap: butt; stroke-linejoin: miter;" d="M 138.22976,1091.5241 L 292.04703,1077.7639 L 290.67897,1076.851 L 128.34535,1084.8328 L 124.04561,1089.5797 L 138.22976,1091.5241 z"/>
		<path style="fill: rgb(0, 0, 0); fill-rule: evenodd; stroke: rgb(0, 0, 0); stroke-width: 4.60344; stroke-linecap: butt; stroke-linejoin: miter;" d="M 140.14165,357.32867 C 140.14165,368.09355 131.30453,376.8202 120.40339,376.8202 C 109.50225,376.8202 100.66513,368.09355 100.66513,357.32867 C 100.66513,346.56379 109.50225,337.83714 120.40339,337.83714 C 131.30453,337.83714 140.14165,346.56379 140.14165,357.32867 z" transform="matrix(0.293569, 0, 0, -0.102874, 101.038, 1124.43)"/>
	</g>
	<g>
		<path style="color: rgb(0, 0, 0); fill: rgb(245, 245, 255); fill-rule: evenodd; stroke: rgb(0, 0, 0); stroke-width: 1; stroke-linecap: butt; stroke-linejoin: miter; stroke-dashoffset: 0pt; visibility: visible; display: inline; overflow: visible;" d="M 270.20113,169.08654 C 253.65167,231.83743 191.06594,269.32144 130.412,252.80942 C 69.758055,236.2974 34.0043,172.04211 50.553758,109.29122 C 67.103216,46.540334 129.68895,9.0563189 190.34289,25.568338 C 250.99683,42.080358 286.75059,106.33565 270.20113,169.08654 L 270.20113,169.08654 z"/>
		<path style="color: rgb(0, 0, 0); fill: none; fill-rule: evenodd; stroke: rgb(208, 96, 0); stroke-width: 6; stroke-linecap: butt; stroke-linejoin: miter; stroke-dashoffset: 0pt; visibility: visible; display: inline; overflow: visible;" d="M 199.37092,149.80401 C 193.48688,172.11466 171.25899,185.4484 149.72355,179.58574 C 128.18812,173.72309 115.50016,150.8841 121.3842,128.57344 C 127.26825,106.26278 149.49614,92.929039 171.03157,98.791698 C 192.56701,104.65436 205.25497,127.49335 199.37092,149.80401 z"/>
		<path style="color: rgb(0, 0, 0); fill: none; fill-rule: evenodd; stroke: rgb(208, 96, 0); stroke-width: 6; stroke-linecap: butt; stroke-linejoin: miter; stroke-dashoffset: 0pt; visibility: visible; display: inline; overflow: visible;" d="M 209.11924,152.45797 C 201.76806,180.33158 173.98634,196.98683 147.06704,189.6585 C 120.14774,182.33018 104.28464,153.79336 111.63582,125.91974 C 118.987,98.046125 146.76872,81.390875 173.68802,88.719203 C 200.60732,96.04753 216.47042,124.58435 209.11924,152.45797 z"/>
		<path style="color: rgb(0, 0, 0); fill: none; fill-rule: evenodd; stroke: rgb(208, 96, 0); stroke-width: 6; stroke-linecap: butt; stroke-linejoin: miter; stroke-dashoffset: 0pt; visibility: visible; display: inline; overflow: visible;" d="M 218.86754,155.11187 C 210.05034,188.54422 176.71568,208.51755 144.41252,199.72356 C 112.10935,190.92956 93.070208,156.69834 101.88741,123.266 C 110.70461,89.833651 144.03926,69.860319 176.34243,78.654315 C 208.64559,87.448311 227.68474,121.67953 218.86754,155.11187 z"/>
		<path style="color: rgb(0, 0, 0); fill: none; fill-rule: evenodd; stroke: rgb(208, 96, 0); stroke-width: 6; stroke-linecap: butt; stroke-linejoin: miter; stroke-dashoffset: 0pt; visibility: visible; display: inline; overflow: visible;" d="M 228.61606,157.76561 C 218.33384,196.75289 179.44707,220.04123 141.76002,209.78157 C 104.07298,199.52191 81.856976,159.59936 92.139192,120.61207 C 102.42141,81.624788 141.30818,58.336446 178.99523,68.596111 C 216.68227,78.855775 238.89828,118.77832 228.61606,157.76561 z"/>
		<path style="color: rgb(0, 0, 0); fill: none; fill-rule: evenodd; stroke: rgb(208, 96, 0); stroke-width: 6; stroke-linecap: butt; stroke-linejoin: miter; stroke-dashoffset: 0pt; visibility: visible; display: inline; overflow: visible;" d="M 238.36418,160.41937 C 226.61786,204.95811 182.17972,231.55863 139.10883,219.8333 C 96.037931,208.10798 70.644338,162.49693 82.390655,117.9582 C 94.136972,73.41947 138.57511,46.818946 181.646,58.544274 C 224.7169,70.269602 250.11049,115.88064 238.36418,160.41937 z"/>
		<path style="color: rgb(0, 0, 0); fill: none; fill-rule: evenodd; stroke: rgb(208, 96, 0); stroke-width: 6; stroke-linecap: butt; stroke-linejoin: miter; stroke-dashoffset: 0pt; visibility: visible; display: inline; overflow: visible;" d="M 248.11254,163.07323 C 234.903,213.1601 184.91422,243.07012 136.45949,229.87913 C 88.004758,216.68815 59.432878,165.3913 72.642417,115.30444 C 85.851956,65.217572 135.84073,35.307547 184.29547,48.498534 C 232.7502,61.689521 261.32208,112.98636 248.11254,163.07323 z"/>
		<path style="color: rgb(0, 0, 0); fill: none; fill-rule: evenodd; stroke: rgb(208, 96, 0); stroke-width: 6; stroke-linecap: butt; stroke-linejoin: miter; stroke-dashoffset: 0pt; visibility: visible; display: inline; overflow: visible;" d="M 257.86087,165.72702 C 243.18892,221.35893 187.65014,254.57594 133.81154,239.91928 C 79.972944,225.26263 48.222096,168.28248 62.894045,112.65057 C 77.565995,57.01867 133.10478,23.801661 186.94338,38.458316 C 240.78198,53.114971 272.53282,110.09512 257.86087,165.72702 z"/>
		<g transform="matrix(1.06728, 0, 0, 1.06343, -50.0318, -577.053)">
			<path d="M 248.61008,580.71268 L 144.52658,765.78965" style="fill: none; stroke-opacity: 0.65; stroke: rgb(245, 245, 255); stroke-width: 3; stroke-linecap: butt; stroke-linejoin: miter;"/>
			<path d="M 269.92233,597.55059 L 123.21433,748.95174" style="fill: none; stroke-opacity: 0.65; stroke: rgb(245, 245, 255); stroke-width: 3; stroke-linecap: butt; stroke-linejoin: miter;"/>
			<path d="M 223.75127,570.1811 L 169.38539,776.32123" style="fill: none; stroke-opacity: 0.65; stroke: rgb(245, 245, 255); stroke-width: 3; stroke-linecap: butt; stroke-linejoin: miter;"/>
			<path d="M 286.23563,619.54739 L 106.90103,726.95495" style="fill: none; stroke-opacity: 0.65; stroke: rgb(245, 245, 255); stroke-width: 3; stroke-linecap: butt; stroke-linejoin: miter;"/>
			<path d="M 296.43824,645.204 L 96.698409,701.29834" style="fill: none; stroke-opacity: 0.65; stroke: rgb(245, 245, 255); stroke-width: 3; stroke-linecap: butt; stroke-linejoin: miter;"/>
			<path d="M 299.83489,672.77197 L 93.301759,673.73036" style="fill: none; stroke-opacity: 0.65; stroke: rgb(245, 245, 255); stroke-width: 3; stroke-linecap: butt; stroke-linejoin: miter;"/>
			<path d="M 296.19409,700.37261 L 96.942555,646.12972" style="fill: none; stroke-opacity: 0.65; stroke: rgb(245, 245, 255); stroke-width: 3; stroke-linecap: butt; stroke-linejoin: miter;"/>
			<path d="M 197.03999,566.67358 L 196.09667,779.82875" style="fill: none; stroke-opacity: 0.65; stroke: rgb(245, 245, 255); stroke-width: 3; stroke-linecap: butt; stroke-linejoin: miter;"/>
			<path d="M 170.29656,570.42915 L 222.8401,776.07319" style="fill: none; stroke-opacity: 0.65; stroke: rgb(245, 245, 255); stroke-width: 3; stroke-linecap: butt; stroke-linejoin: miter;"/>
			<path d="M 145.34351,581.19187 L 247.79315,765.31046" style="fill: none; stroke-opacity: 0.65; stroke: rgb(245, 245, 255); stroke-width: 3; stroke-linecap: butt; stroke-linejoin: miter;"/>
			<path d="M 123.88135,598.22827 L 269.2553,748.27406" style="fill: none; stroke-opacity: 0.65; stroke: rgb(245, 245, 255); stroke-width: 3; stroke-linecap: butt; stroke-linejoin: miter;"/>
			<path d="M 107.37268,620.37736 L 285.76396,726.12497" style="fill: none; stroke-opacity: 0.65; stroke: rgb(245, 245, 255); stroke-width: 3; stroke-linecap: butt; stroke-linejoin: miter;"/>
		</g>
		<path style="color: rgb(0, 0, 0); fill: rgb(229, 248, 103); fill-opacity: 0.572368; fill-rule: evenodd; stroke: rgb(0, 0, 0); stroke-width: 0.8; stroke-linecap: butt; stroke-linejoin: miter; stroke-dashoffset: 0pt; visibility: visible; display: inline; overflow: visible;" d="M 183.01856,53.387468 C 137.21382,40.924722 89.895817,69.249069 77.397975,116.61141 C 64.900137,163.97378 91.931802,212.52746 137.73653,224.99022 C 183.54125,237.45295 230.85927,209.12865 243.3571,161.76629 C 255.85494,114.40394 228.82327,65.850214 183.01856,53.387468 z M 180.09479,63.183893 C 220.77288,75.809421 244.0002,117.26688 233.40162,158.46653 C 222.80253,199.66819 180.09206,226.64421 139.89828,214.8128 C 100.49957,203.21543 76.174405,158.8135 86.97245,119.14918 C 98.356252,77.33321 138.65467,54.36836 180.09479,63.183893 z"/>
		<path style="fill: rgb(0, 0, 0); stroke: none;" d="M 177.9926,139.40875 C 177.99819,149.10326 170.14079,156.9652 160.44626,156.9652 C 150.75173,156.9652 142.89434,149.10326 142.89993,139.40875 C 142.89434,129.71423 150.75173,121.85229 160.44626,121.85229 C 170.14079,121.85229 177.99819,129.71423 177.9926,139.40875 z"/>
	</g>
	<path d="M 248.6754,229.27132 C 240.71328,237.59579 231.7073,244.78164 221.90198,250.63378 L 159.95307,138.90343 L 248.6754,229.27132 z" style="color: rgb(0, 0, 0); fill: rgb(55, 85, 42); fill-opacity: 0.407895; fill-rule: evenodd; stroke: rgb(245, 245, 255); stroke-width: 0.8; stroke-linecap: butt; stroke-linejoin: miter; stroke-dashoffset: 0pt; visibility: visible; display: inline; overflow: visible;"/>
	<g transform="translate(-332.995, 65.9132)">
		<path style="color: rgb(0, 0, 0); fill: rgb(245, 245, 255); fill-rule: evenodd; stroke: rgb(0, 0, 0); stroke-width: 0.8; stroke-linecap: butt; stroke-linejoin: miter; stroke-dashoffset: 0pt; visibility: visible; display: inline; overflow: visible;" d="M 602.83867,373.27585 C 586.28921,390.64837 523.70348,401.02579 463.04954,396.45445 C 402.39559,391.88311 366.64184,374.09409 383.1913,356.72157 C 399.74076,339.34904 462.32649,328.97162 522.98043,333.54296 C 583.63437,338.1143 619.38813,355.90332 602.83867,373.27585 L 602.83867,373.27585 z"/>
		<g transform="matrix(1, 0, 0, 0.276849, -29.8652, 319.51)">
			<path style="color: rgb(0, 0, 0); fill: rgb(208, 96, 0); fill-rule: evenodd; visibility: visible; display: inline; overflow: visible;" d="M 526.25,119.875 C 506.0791,118.7321 487.09223,132.37007 481.59375,153.21875 C 475.30978,177.04583 488.90988,201.57208 512.0625,207.875 C 535.21515,214.17792 559.09103,199.79582 565.375,175.96875 C 571.65898,152.14168 558.09015,127.61542 534.9375,121.3125 C 532.04342,120.52464 529.13156,120.03827 526.25,119.875 z M 525.90625,125.875 C 528.38528,126.01754 530.88522,126.41595 533.375,127.09375 C 553.29323,132.51615 565.07787,153.64325 559.59375,174.4375 C 554.10963,195.23174 533.54323,207.51615 513.625,202.09375 C 493.7068,196.67135 481.92214,175.54424 487.40625,154.75 C 492.20486,136.55504 508.55304,124.87723 525.90625,125.875 z"/>
			<path style="color: rgb(0, 0, 0); fill: rgb(208, 96, 0); fill-rule: evenodd; visibility: visible; display: inline; overflow: visible;" d="M 521.59375,109.46875 C 498.77486,110.5252 478.1417,126.68244 471.84375,150.5625 C 464.09243,179.95334 480.8706,210.2004 509.40625,217.96875 C 537.94191,225.73711 567.37371,208.01583 575.125,178.625 C 582.87632,149.23417 566.12942,118.98711 537.59375,111.21875 C 532.24331,109.76218 526.85965,109.22495 521.59375,109.46875 z M 526.53125,115.46875 C 529.68033,115.64987 532.86838,116.17021 536.03125,117.03125 C 561.33421,123.91955 576.29479,150.73734 569.34375,177.09375 C 562.39273,203.45014 536.27169,219.04455 510.96875,212.15625 C 485.66582,205.26796 470.70521,178.45015 477.65625,152.09375 C 483.73841,129.03189 504.48772,114.20094 526.53125,115.46875 z"/>
			<path style="color: rgb(0, 0, 0); fill: rgb(208, 96, 0); fill-rule: evenodd; visibility: visible; display: inline; overflow: visible;" d="M 521.21875,99.0625 C 494.0958,100.31291 469.583,119.50914 462.09375,147.90625 C 452.87622,182.85653 472.83125,218.79743 506.75,228.03125 C 540.66874,237.26506 575.65744,216.23154 584.875,181.28125 C 594.09253,146.33097 574.16875,110.39006 540.25,101.15625 C 533.89023,99.424911 527.47789,98.773944 521.21875,99.0625 z M 521.46875,105.03125 C 527.13152,104.77397 532.93358,105.37109 538.6875,106.9375 C 569.37508,115.29168 587.51062,147.8356 579.09375,179.75 C 570.67685,211.66441 539.00008,230.57292 508.3125,222.21875 C 477.62491,213.86456 459.48938,181.3519 467.90625,149.4375 C 474.74496,123.50704 496.93008,106.14614 521.46875,105.03125 z"/>
			<path style="color: rgb(0, 0, 0); fill: rgb(208, 96, 0); fill-rule: evenodd; visibility: visible; display: inline; overflow: visible;" d="M 520.875,88.65625 C 489.44818,90.09975 461.02348,112.33897 452.34375,145.25 C 441.66103,185.7559 464.79183,227.39448 504.09375,238.09375 C 543.39567,248.79303 583.94229,224.44338 594.625,183.9375 C 605.30773,143.4316 582.20814,101.79304 542.90625,91.09375 C 535.53714,89.087634 528.12734,88.323135 520.875,88.65625 z M 521.09375,94.625 C 527.74983,94.323116 534.54897,95.064992 541.3125,96.90625 C 577.38464,106.72629 598.72546,144.93757 588.84375,182.40625 C 578.96205,219.87491 541.72843,242.10129 505.65625,232.28125 C 469.58408,222.46122 448.27455,184.24993 458.15625,146.78125 C 466.18515,116.33795 492.25073,95.933165 521.09375,94.625 z"/>
			<path style="color: rgb(0, 0, 0); fill: rgb(208, 96, 0); fill-rule: evenodd; visibility: visible; display: inline; overflow: visible;" d="M 520.5,78.28125 C 484.76953,79.917051 452.46319,105.17166 442.59375,142.59375 C 430.44677,188.65171 456.75237,235.96023 501.4375,248.125 C 546.12261,260.28977 592.22804,232.65172 604.375,186.59375 C 616.52198,140.53579 590.24761,93.227271 545.5625,81.0625 C 537.18404,78.781605 528.74549,77.903758 520.5,78.28125 z M 520.71875,84.25 C 528.36809,83.9037 536.19562,84.727647 543.96875,86.84375 C 585.42542,98.129634 609.93939,142.043 598.59375,185.0625 C 587.24813,228.08202 544.45667,253.62964 503,242.34375 C 461.54331,231.05787 437.06061,187.1445 448.40625,144.125 C 457.6246,109.17165 487.57162,85.750634 520.71875,84.25 z"/>
			<path style="color: rgb(0, 0, 0); fill: rgb(208, 96, 0); fill-rule: evenodd; visibility: visible; display: inline; overflow: visible;" d="M 520.125,67.875 C 480.09106,69.702352 443.90218,98.007078 432.84375,139.9375 C 419.23339,191.54417 448.71292,244.55725 498.78125,258.1875 C 548.84958,271.81777 600.51461,240.85667 614.125,189.25 C 627.73536,137.64332 598.25581,84.63026 548.1875,71 C 538.79969,68.444326 529.3636,67.453303 520.125,67.875 z M 520.375,73.875 C 529.01754,73.484459 537.84229,74.390304 546.625,76.78125 C 593.46612,89.53296 621.15247,139.15169 608.34375,187.71875 C 595.53501,236.28581 547.21613,265.12671 500.375,252.375 C 453.53387,239.6233 425.84753,190.0358 438.65625,141.46875 C 449.06334,102.00802 482.92398,75.567342 520.375,73.875 z"/>
			<path style="color: rgb(0, 0, 0); fill: rgb(208, 96, 0); fill-rule: evenodd; visibility: visible; display: inline; overflow: visible;" d="M 519.75,57.5 C 475.41276,59.51819 435.37176,90.845041 423.125,137.28125 C 408.05209,194.43352 440.70464,253.12299 496.15625,268.21875 C 551.60786,283.31453 608.8021,249.05853 623.875,191.90625 C 638.94792,134.75399 606.29537,76.064519 550.84375,60.96875 C 540.44657,58.138293 529.98167,57.034264 519.75,57.5 z M 520,63.5 C 529.63571,63.065385 539.48895,64.084211 549.28125,66.75 C 601.50684,80.967538 632.33348,136.26346 618.0625,190.375 C 603.79153,244.48656 549.94434,276.65504 497.71875,262.4375 C 445.49317,248.21997 414.63528,192.92405 428.90625,138.8125 C 440.50143,94.846876 478.24528,65.38333 520,63.5 z"/>
			<g transform="matrix(1.06728, 0, 0, 1.06343, 313.086, -551.65)">
				<path style="fill: none; stroke-opacity: 0.65; stroke: rgb(245, 245, 255); stroke-width: 3; stroke-linecap: butt; stroke-linejoin: miter;" d="M 248.61008,580.71268 L 144.52658,765.78965"/>
				<path style="fill: none; stroke-opacity: 0.65; stroke: rgb(245, 245, 255); stroke-width: 3; stroke-linecap: butt; stroke-linejoin: miter;" d="M 269.92233,597.55059 L 123.21433,748.95174"/>
				<path style="fill: none; stroke-opacity: 0.65; stroke: rgb(245, 245, 255); stroke-width: 3; stroke-linecap: butt; stroke-linejoin: miter;" d="M 223.75127,570.1811 L 169.38539,776.32123"/>
				<path style="fill: none; stroke-opacity: 0.65; stroke: rgb(245, 245, 255); stroke-width: 3; stroke-linecap: butt; stroke-linejoin: miter;" d="M 286.23563,619.54739 L 106.90103,726.95495"/>
				<path style="fill: none; stroke-opacity: 0.65; stroke: rgb(245, 245, 255); stroke-width: 3; stroke-linecap: butt; stroke-linejoin: miter;" d="M 296.43824,645.204 L 96.698409,701.29834"/>
				<path style="fill: none; stroke-opacity: 0.65; stroke: rgb(245, 245, 255); stroke-width: 3; stroke-linecap: butt; stroke-linejoin: miter;" d="M 299.83489,672.77197 L 93.301759,673.73036"/>
				<path style="fill: none; stroke-opacity: 0.65; stroke: rgb(245, 245, 255); stroke-width: 3; stroke-linecap: butt; stroke-linejoin: miter;" d="M 296.19409,700.37261 L 96.942555,646.12972"/>
				<path style="fill: none; stroke-opacity: 0.65; stroke: rgb(245, 245, 255); stroke-width: 3; stroke-linecap: butt; stroke-linejoin: miter;" d="M 197.03999,566.67358 L 196.09667,779.82875"/>
				<path style="fill: none; stroke-opacity: 0.65; stroke: rgb(245, 245, 255); stroke-width: 3; stroke-linecap: butt; stroke-linejoin: miter;" d="M 170.29656,570.42915 L 222.8401,776.07319"/>
				<path style="fill: none; stroke-opacity: 0.65; stroke: rgb(245, 245, 255); stroke-width: 3; stroke-linecap: butt; stroke-linejoin: miter;" d="M 145.34351,581.19187 L 247.79315,765.31046"/>
				<path style="fill: none; stroke-opacity: 0.65; stroke: rgb(245, 245, 255); stroke-width: 3; stroke-linecap: butt; stroke-linejoin: miter;" d="M 123.88135,598.22827 L 269.2553,748.27406"/>
				<path style="fill: none; stroke-opacity: 0.65; stroke: rgb(245, 245, 255); stroke-width: 3; stroke-linecap: butt; stroke-linejoin: miter;" d="M 107.37268,620.37736 L 285.76396,726.12497"/>
			</g>
			<path style="fill: rgb(0, 0, 0); stroke: none;" d="M 541.1102,164.8122 C 541.11579,174.50671 533.25839,182.36865 523.56386,182.36865 C 513.86933,182.36865 506.01194,174.50671 506.01753,164.8122 C 506.01194,155.11768 513.86933,147.25574 523.56386,147.25574 C 533.25839,147.25574 541.11579,155.11768 541.1102,164.8122 z"/>
		</g>
		<path style="color: rgb(0, 0, 0); fill: rgb(229, 248, 103); fill-opacity: 0.572368; fill-rule: evenodd; stroke: rgb(0, 0, 0); stroke-width: 0.8; stroke-linecap: butt; stroke-linejoin: miter; stroke-dashoffset: 0pt; visibility: visible; display: inline; overflow: visible;" d="M 515.97229,341.77841 C 470.97312,338.39179 424.48728,346.08862 412.20924,358.95881 C 399.9312,371.82902 426.48746,385.02293 471.48664,388.40954 C 516.48579,391.79616 562.97163,384.09935 575.24967,371.22915 C 587.52771,358.35896 560.97144,345.16502 515.97229,341.77841 z M 514.22285,343.61222 C 555.68273,346.73246 580.15033,358.88868 568.83798,370.74661 C 557.52563,382.60454 514.69597,389.69599 473.23606,386.57574 C 431.77615,383.45549 407.30858,371.29928 418.62093,359.44136 C 429.93327,347.58342 472.76293,340.49196 514.22285,343.61222 z"/>
	</g>
	<path style="fill: none; fill-rule: evenodd; stroke: rgb(0, 0, 0); stroke-width: 7.73649px; stroke-linecap: butt; stroke-linejoin: miter;" d="M 46.572403,460.18807 L 46.558024,465.78167"/>
	<g transform="translate(-81.2255, -603.457)" style="stroke: rgb(0, 0, 0); stroke-width: 0.8;">
		<g transform="translate(122.725, -23.1423)" style="stroke: rgb(0, 0, 0); stroke-width: 0.8;">
			<path transform="translate(36.2343, 535.491)" d="M 131.56432,541.8307 L 121.51543,542.73558 L 119.3182,540.81831 L 119.29678,538.81807 L 131.61195,539.68758 L 131.56432,541.8307 z" style="fill: rgb(128, 224, 255); fill-rule: evenodd; stroke: rgb(0, 0, 0); stroke-width: 0.8; stroke-linecap: square; stroke-linejoin: miter;"/>
			<rect style="fill: rgb(128, 224, 255); stroke: rgb(0, 0, 0); stroke-width: 0.8;" width="9.9001188" height="2.614126" x="-1157.3842" y="-1636.4474" transform="matrix(0.996506, -0.0835226, -0.801224, -0.598364, 0, 0)"/>
		</g>
		<path style="fill: rgb(160, 157, 157); fill-rule: evenodd; stroke: rgb(0, 0, 0); stroke-width: 0.8; stroke-linecap: butt; stroke-linejoin: miter;" d="M 129.6087,1065.7365 L 283.42597,1051.9763 L 282.05791,1051.0634 L 119.72429,1059.0452 L 115.42455,1063.7921 L 129.6087,1065.7365 z"/>
		<path style="fill: rgb(0, 0, 0); fill-rule: evenodd; stroke: rgb(0, 0, 0); stroke-width: 4.60344; stroke-linecap: butt; stroke-linejoin: miter;" d="M 140.14165,357.32867 C 140.14165,368.09355 131.30453,376.8202 120.40339,376.8202 C 109.50225,376.8202 100.66513,368.09355 100.66513,357.32867 C 100.66513,346.56379 109.50225,337.83714 120.40339,337.83714 C 131.30453,337.83714 140.14165,346.56379 140.14165,357.32867 z" transform="matrix(0.293569, 0, 0, -0.102874, 92.4166, 1098.65)"/>
	</g>
	<path style="fill: none; fill-rule: evenodd; stroke: rgb(0, 0, 0); stroke-width: 7.74489px; stroke-linecap: butt; stroke-linejoin: miter;" d="M 46.610499,442.19992 L 46.495928,458.82407"/>
	<g transform="translate(-90.1802, -647.798)" style="stroke: rgb(0, 0, 0); stroke-width: 0.8;">
		<path style="fill: rgb(160, 157, 157); fill-rule: evenodd; stroke: rgb(0, 0, 0); stroke-width: 0.8; stroke-linecap: butt; stroke-linejoin: miter;" d="M 138.22976,1091.5241 L 292.04703,1077.7639 L 290.67897,1076.851 L 128.34535,1084.8328 L 124.04561,1089.5797 L 138.22976,1091.5241 z"/>
		<path style="fill: rgb(0, 0, 0); fill-rule: evenodd; stroke: rgb(0, 0, 0); stroke-width: 4.60344; stroke-linecap: butt; stroke-linejoin: miter;" d="M 140.14165,357.32867 C 140.14165,368.09355 131.30453,376.8202 120.40339,376.8202 C 109.50225,376.8202 100.66513,368.09355 100.66513,357.32867 C 100.66513,346.56379 109.50225,337.83714 120.40339,337.83714 C 131.30453,337.83714 140.14165,346.56379 140.14165,357.32867 z" transform="matrix(0.293569, 0, 0, -0.102874, 101.038, 1124.43)"/>
	</g>
	<path style="fill: none; fill-rule: evenodd; stroke: rgb(0, 0, 0); stroke-width: 7.86082px; stroke-linecap: butt; stroke-linejoin: miter;" d="M 46.50364,434.60723 L 46.486979,439.59853"/>
	<g transform="translate(-332.614, 40.0051)">
		<path style="color: rgb(0, 0, 0); fill: rgb(245, 245, 255); fill-rule: evenodd; stroke: rgb(0, 0, 0); stroke-width: 0.8; stroke-linecap: butt; stroke-linejoin: miter; stroke-dashoffset: 0pt; visibility: visible; display: inline; overflow: visible;" d="M 602.83867,373.27585 C 586.28921,390.64837 523.70348,401.02579 463.04954,396.45445 C 402.39559,391.88311 366.64184,374.09409 383.1913,356.72157 C 399.74076,339.34904 462.32649,328.97162 522.98043,333.54296 C 583.63437,338.1143 619.38813,355.90332 602.83867,373.27585 L 602.83867,373.27585 z"/>
		<g transform="matrix(1, 0, 0, 0.276849, -29.8652, 319.51)">
			<path style="color: rgb(0, 0, 0); fill: rgb(208, 96, 0); fill-rule: evenodd; visibility: visible; display: inline; overflow: visible;" d="M 526.25,119.875 C 506.0791,118.7321 487.09223,132.37007 481.59375,153.21875 C 475.30978,177.04583 488.90988,201.57208 512.0625,207.875 C 535.21515,214.17792 559.09103,199.79582 565.375,175.96875 C 571.65898,152.14168 558.09015,127.61542 534.9375,121.3125 C 532.04342,120.52464 529.13156,120.03827 526.25,119.875 z M 525.90625,125.875 C 528.38528,126.01754 530.88522,126.41595 533.375,127.09375 C 553.29323,132.51615 565.07787,153.64325 559.59375,174.4375 C 554.10963,195.23174 533.54323,207.51615 513.625,202.09375 C 493.7068,196.67135 481.92214,175.54424 487.40625,154.75 C 492.20486,136.55504 508.55304,124.87723 525.90625,125.875 z"/>
			<path style="color: rgb(0, 0, 0); fill: rgb(208, 96, 0); fill-rule: evenodd; visibility: visible; display: inline; overflow: visible;" d="M 521.59375,109.46875 C 498.77486,110.5252 478.1417,126.68244 471.84375,150.5625 C 464.09243,179.95334 480.8706,210.2004 509.40625,217.96875 C 537.94191,225.73711 567.37371,208.01583 575.125,178.625 C 582.87632,149.23417 566.12942,118.98711 537.59375,111.21875 C 532.24331,109.76218 526.85965,109.22495 521.59375,109.46875 z M 526.53125,115.46875 C 529.68033,115.64987 532.86838,116.17021 536.03125,117.03125 C 561.33421,123.91955 576.29479,150.73734 569.34375,177.09375 C 562.39273,203.45014 536.27169,219.04455 510.96875,212.15625 C 485.66582,205.26796 470.70521,178.45015 477.65625,152.09375 C 483.73841,129.03189 504.48772,114.20094 526.53125,115.46875 z"/>
			<path style="color: rgb(0, 0, 0); fill: rgb(208, 96, 0); fill-rule: evenodd; visibility: visible; display: inline; overflow: visible;" d="M 521.21875,99.0625 C 494.0958,100.31291 469.583,119.50914 462.09375,147.90625 C 452.87622,182.85653 472.83125,218.79743 506.75,228.03125 C 540.66874,237.26506 575.65744,216.23154 584.875,181.28125 C 594.09253,146.33097 574.16875,110.39006 540.25,101.15625 C 533.89023,99.424911 527.47789,98.773944 521.21875,99.0625 z M 521.46875,105.03125 C 527.13152,104.77397 532.93358,105.37109 538.6875,106.9375 C 569.37508,115.29168 587.51062,147.8356 579.09375,179.75 C 570.67685,211.66441 539.00008,230.57292 508.3125,222.21875 C 477.62491,213.86456 459.48938,181.3519 467.90625,149.4375 C 474.74496,123.50704 496.93008,106.14614 521.46875,105.03125 z"/>
			<path style="color: rgb(0, 0, 0); fill: rgb(208, 96, 0); fill-rule: evenodd; visibility: visible; display: inline; overflow: visible;" d="M 520.875,88.65625 C 489.44818,90.09975 461.02348,112.33897 452.34375,145.25 C 441.66103,185.7559 464.79183,227.39448 504.09375,238.09375 C 543.39567,248.79303 583.94229,224.44338 594.625,183.9375 C 605.30773,143.4316 582.20814,101.79304 542.90625,91.09375 C 535.53714,89.087634 528.12734,88.323135 520.875,88.65625 z M 521.09375,94.625 C 527.74983,94.323116 534.54897,95.064992 541.3125,96.90625 C 577.38464,106.72629 598.72546,144.93757 588.84375,182.40625 C 578.96205,219.87491 541.72843,242.10129 505.65625,232.28125 C 469.58408,222.46122 448.27455,184.24993 458.15625,146.78125 C 466.18515,116.33795 492.25073,95.933165 521.09375,94.625 z"/>
			<path style="color: rgb(0, 0, 0); fill: rgb(208, 96, 0); fill-rule: evenodd; visibility: visible; display: inline; overflow: visible;" d="M 520.5,78.28125 C 484.76953,79.917051 452.46319,105.17166 442.59375,142.59375 C 430.44677,188.65171 456.75237,235.96023 501.4375,248.125 C 546.12261,260.28977 592.22804,232.65172 604.375,186.59375 C 616.52198,140.53579 590.24761,93.227271 545.5625,81.0625 C 537.18404,78.781605 528.74549,77.903758 520.5,78.28125 z M 520.71875,84.25 C 528.36809,83.9037 536.19562,84.727647 543.96875,86.84375 C 585.42542,98.129634 609.93939,142.043 598.59375,185.0625 C 587.24813,228.08202 544.45667,253.62964 503,242.34375 C 461.54331,231.05787 437.06061,187.1445 448.40625,144.125 C 457.6246,109.17165 487.57162,85.750634 520.71875,84.25 z"/>
			<path style="color: rgb(0, 0, 0); fill: rgb(208, 96, 0); fill-rule: evenodd; visibility: visible; display: inline; overflow: visible;" d="M 520.125,67.875 C 480.09106,69.702352 443.90218,98.007078 432.84375,139.9375 C 419.23339,191.54417 448.71292,244.55725 498.78125,258.1875 C 548.84958,271.81777 600.51461,240.85667 614.125,189.25 C 627.73536,137.64332 598.25581,84.63026 548.1875,71 C 538.79969,68.444326 529.3636,67.453303 520.125,67.875 z M 520.375,73.875 C 529.01754,73.484459 537.84229,74.390304 546.625,76.78125 C 593.46612,89.53296 621.15247,139.15169 608.34375,187.71875 C 595.53501,236.28581 547.21613,265.12671 500.375,252.375 C 453.53387,239.6233 425.84753,190.0358 438.65625,141.46875 C 449.06334,102.00802 482.92398,75.567342 520.375,73.875 z"/>
			<path style="color: rgb(0, 0, 0); fill: rgb(208, 96, 0); fill-rule: evenodd; visibility: visible; display: inline; overflow: visible;" d="M 519.75,57.5 C 475.41276,59.51819 435.37176,90.845041 423.125,137.28125 C 408.05209,194.43352 440.70464,253.12299 496.15625,268.21875 C 551.60786,283.31453 608.8021,249.05853 623.875,191.90625 C 638.94792,134.75399 606.29537,76.064519 550.84375,60.96875 C 540.44657,58.138293 529.98167,57.034264 519.75,57.5 z M 520,63.5 C 529.63571,63.065385 539.48895,64.084211 549.28125,66.75 C 601.50684,80.967538 632.33348,136.26346 618.0625,190.375 C 603.79153,244.48656 549.94434,276.65504 497.71875,262.4375 C 445.49317,248.21997 414.63528,192.92405 428.90625,138.8125 C 440.50143,94.846876 478.24528,65.38333 520,63.5 z"/>
			<g transform="matrix(1.06728, 0, 0, 1.06343, 313.086, -551.65)">
				<path style="fill: none; stroke-opacity: 0.65; stroke: rgb(245, 245, 255); stroke-width: 3; stroke-linecap: butt; stroke-linejoin: miter;" d="M 248.61008,580.71268 L 144.52658,765.78965"/>
				<path style="fill: none; stroke-opacity: 0.65; stroke: rgb(245, 245, 255); stroke-width: 3; stroke-linecap: butt; stroke-linejoin: miter;" d="M 269.92233,597.55059 L 123.21433,748.95174"/>
				<path style="fill: none; stroke-opacity: 0.65; stroke: rgb(245, 245, 255); stroke-width: 3; stroke-linecap: butt; stroke-linejoin: miter;" d="M 223.75127,570.1811 L 169.38539,776.32123"/>
				<path style="fill: none; stroke-opacity: 0.65; stroke: rgb(245, 245, 255); stroke-width: 3; stroke-linecap: butt; stroke-linejoin: miter;" d="M 286.23563,619.54739 L 106.90103,726.95495"/>
				<path style="fill: none; stroke-opacity: 0.65; stroke: rgb(245, 245, 255); stroke-width: 3; stroke-linecap: butt; stroke-linejoin: miter;" d="M 296.43824,645.204 L 96.698409,701.29834"/>
				<path style="fill: none; stroke-opacity: 0.65; stroke: rgb(245, 245, 255); stroke-width: 3; stroke-linecap: butt; stroke-linejoin: miter;" d="M 299.83489,672.77197 L 93.301759,673.73036"/>
				<path style="fill: none; stroke-opacity: 0.65; stroke: rgb(245, 245, 255); stroke-width: 3; stroke-linecap: butt; stroke-linejoin: miter;" d="M 296.19409,700.37261 L 96.942555,646.12972"/>
				<path style="fill: none; stroke-opacity: 0.65; stroke: rgb(245, 245, 255); stroke-width: 3; stroke-linecap: butt; stroke-linejoin: miter;" d="M 197.03999,566.67358 L 196.09667,779.82875"/>
				<path style="fill: none; stroke-opacity: 0.65; stroke: rgb(245, 245, 255); stroke-width: 3; stroke-linecap: butt; stroke-linejoin: miter;" d="M 170.29656,570.42915 L 222.8401,776.07319"/>
				<path style="fill: none; stroke-opacity: 0.65; stroke: rgb(245, 245, 255); stroke-width: 3; stroke-linecap: butt; stroke-linejoin: miter;" d="M 145.34351,581.19187 L 247.79315,765.31046"/>
				<path style="fill: none; stroke-opacity: 0.65; stroke: rgb(245, 245, 255); stroke-width: 3; stroke-linecap: butt; stroke-linejoin: miter;" d="M 123.88135,598.22827 L 269.2553,748.27406"/>
				<path style="fill: none; stroke-opacity: 0.65; stroke: rgb(245, 245, 255); stroke-width: 3; stroke-linecap: butt; stroke-linejoin: miter;" d="M 107.37268,620.37736 L 285.76396,726.12497"/>
			</g>
			<path style="fill: rgb(0, 0, 0); stroke: none;" d="M 541.1102,164.8122 C 541.11579,174.50671 533.25839,182.36865 523.56386,182.36865 C 513.86933,182.36865 506.01194,174.50671 506.01753,164.8122 C 506.01194,155.11768 513.86933,147.25574 523.56386,147.25574 C 533.25839,147.25574 541.11579,155.11768 541.1102,164.8122 z"/>
		</g>
		<path style="color: rgb(0, 0, 0); fill: rgb(229, 248, 103); fill-opacity: 0.572368; fill-rule: evenodd; stroke: rgb(0, 0, 0); stroke-width: 0.8; stroke-linecap: butt; stroke-linejoin: miter; stroke-dashoffset: 0pt; visibility: visible; display: inline; overflow: visible;" d="M 515.97229,341.77841 C 470.97312,338.39179 424.48728,346.08862 412.20924,358.95881 C 399.9312,371.82902 426.48746,385.02293 471.48664,388.40954 C 516.48579,391.79616 562.97163,384.09935 575.24967,371.22915 C 587.52771,358.35896 560.97144,345.16502 515.97229,341.77841 z M 514.22285,343.61222 C 555.68273,346.73246 580.15033,358.88868 568.83798,370.74661 C 557.52563,382.60454 514.69597,389.69599 473.23606,386.57574 C 431.77615,383.45549 407.30858,371.29928 418.62093,359.44136 C 429.93327,347.58342 472.76293,340.49196 514.22285,343.61222 z"/>
	</g>
	<g transform="translate(-81.4949, -629.051)" style="stroke: rgb(0, 0, 0); stroke-width: 0.8;">
		<g transform="translate(122.725, -23.1423)" style="stroke: rgb(0, 0, 0); stroke-width: 0.8;">
			<path transform="translate(36.2343, 535.491)" d="M 131.56432,541.8307 L 121.51543,542.73558 L 119.3182,540.81831 L 119.29678,538.81807 L 131.61195,539.68758 L 131.56432,541.8307 z" style="fill: rgb(128, 224, 255); fill-rule: evenodd; stroke: rgb(0, 0, 0); stroke-width: 0.8; stroke-linecap: square; stroke-linejoin: miter;"/>
			<rect style="fill: rgb(128, 224, 255); stroke: rgb(0, 0, 0); stroke-width: 0.8;" width="9.9001188" height="2.614126" x="-1157.3842" y="-1636.4474" transform="matrix(0.996506, -0.0835226, -0.801224, -0.598364, 0, 0)"/>
		</g>
		<path style="fill: rgb(160, 157, 157); fill-rule: evenodd; stroke: rgb(0, 0, 0); stroke-width: 0.8; stroke-linecap: butt; stroke-linejoin: miter;" d="M 129.6087,1065.7365 L 283.42597,1051.9763 L 282.05791,1051.0634 L 119.72429,1059.0452 L 115.42455,1063.7921 L 129.6087,1065.7365 z"/>
		<path style="fill: rgb(0, 0, 0); fill-rule: evenodd; stroke: rgb(0, 0, 0); stroke-width: 4.60344; stroke-linecap: butt; stroke-linejoin: miter;" d="M 140.14165,357.32867 C 140.14165,368.09355 131.30453,376.8202 120.40339,376.8202 C 109.50225,376.8202 100.66513,368.09355 100.66513,357.32867 C 100.66513,346.56379 109.50225,337.83714 120.40339,337.83714 C 131.30453,337.83714 140.14165,346.56379 140.14165,357.32867 z" transform="matrix(0.293569, 0, 0, -0.102874, 92.4166, 1098.65)"/>
	</g>
	<path style="fill: none; fill-rule: evenodd; stroke: rgb(0, 0, 0); stroke-width: 7.87393px; stroke-linecap: butt; stroke-linejoin: miter;" d="M 46.468766,417.4125 L 46.343382,433.11521"/>
	<g transform="translate(-89.9108, -673.123)" style="stroke: rgb(0, 0, 0); stroke-width: 0.8;">
		<path style="fill: rgb(160, 157, 157); fill-rule: evenodd; stroke: rgb(0, 0, 0); stroke-width: 0.8; stroke-linecap: butt; stroke-linejoin: miter;" d="M 138.22976,1091.5241 L 292.04703,1077.7639 L 290.67897,1076.851 L 128.34535,1084.8328 L 124.04561,1089.5797 L 138.22976,1091.5241 z"/>
		<path style="fill: rgb(0, 0, 0); fill-rule: evenodd; stroke: rgb(0, 0, 0); stroke-width: 4.60344; stroke-linecap: butt; stroke-linejoin: miter;" d="M 140.14165,357.32867 C 140.14165,368.09355 131.30453,376.8202 120.40339,376.8202 C 109.50225,376.8202 100.66513,368.09355 100.66513,357.32867 C 100.66513,346.56379 109.50225,337.83714 120.40339,337.83714 C 131.30453,337.83714 140.14165,346.56379 140.14165,357.32867 z" transform="matrix(0.293569, 0, 0, -0.102874, 101.038, 1124.43)"/>
	</g>
	<path style="fill: none; fill-rule: evenodd; stroke: rgb(0, 0, 0); stroke-width: 7.99381px; stroke-linecap: butt; stroke-linejoin: miter;" d="M 46.398497,410.67873 L 46.375019,414.33446"/>
	<g transform="translate(-332.233, 14.8591)">
		<path style="color: rgb(0, 0, 0); fill: rgb(245, 245, 255); fill-rule: evenodd; stroke: rgb(0, 0, 0); stroke-width: 0.8; stroke-linecap: butt; stroke-linejoin: miter; stroke-dashoffset: 0pt; visibility: visible; display: inline; overflow: visible;" d="M 602.83867,373.27585 C 586.28921,390.64837 523.70348,401.02579 463.04954,396.45445 C 402.39559,391.88311 366.64184,374.09409 383.1913,356.72157 C 399.74076,339.34904 462.32649,328.97162 522.98043,333.54296 C 583.63437,338.1143 619.38813,355.90332 602.83867,373.27585 L 602.83867,373.27585 z"/>
		<g transform="matrix(1, 0, 0, 0.276849, -29.8652, 319.51)">
			<path style="color: rgb(0, 0, 0); fill: rgb(208, 96, 0); fill-rule: evenodd; visibility: visible; display: inline; overflow: visible;" d="M 526.25,119.875 C 506.0791,118.7321 487.09223,132.37007 481.59375,153.21875 C 475.30978,177.04583 488.90988,201.57208 512.0625,207.875 C 535.21515,214.17792 559.09103,199.79582 565.375,175.96875 C 571.65898,152.14168 558.09015,127.61542 534.9375,121.3125 C 532.04342,120.52464 529.13156,120.03827 526.25,119.875 z M 525.90625,125.875 C 528.38528,126.01754 530.88522,126.41595 533.375,127.09375 C 553.29323,132.51615 565.07787,153.64325 559.59375,174.4375 C 554.10963,195.23174 533.54323,207.51615 513.625,202.09375 C 493.7068,196.67135 481.92214,175.54424 487.40625,154.75 C 492.20486,136.55504 508.55304,124.87723 525.90625,125.875 z"/>
			<path style="color: rgb(0, 0, 0); fill: rgb(208, 96, 0); fill-rule: evenodd; visibility: visible; display: inline; overflow: visible;" d="M 521.59375,109.46875 C 498.77486,110.5252 478.1417,126.68244 471.84375,150.5625 C 464.09243,179.95334 480.8706,210.2004 509.40625,217.96875 C 537.94191,225.73711 567.37371,208.01583 575.125,178.625 C 582.87632,149.23417 566.12942,118.98711 537.59375,111.21875 C 532.24331,109.76218 526.85965,109.22495 521.59375,109.46875 z M 526.53125,115.46875 C 529.68033,115.64987 532.86838,116.17021 536.03125,117.03125 C 561.33421,123.91955 576.29479,150.73734 569.34375,177.09375 C 562.39273,203.45014 536.27169,219.04455 510.96875,212.15625 C 485.66582,205.26796 470.70521,178.45015 477.65625,152.09375 C 483.73841,129.03189 504.48772,114.20094 526.53125,115.46875 z"/>
			<path style="color: rgb(0, 0, 0); fill: rgb(208, 96, 0); fill-rule: evenodd; visibility: visible; display: inline; overflow: visible;" d="M 521.21875,99.0625 C 494.0958,100.31291 469.583,119.50914 462.09375,147.90625 C 452.87622,182.85653 472.83125,218.79743 506.75,228.03125 C 540.66874,237.26506 575.65744,216.23154 584.875,181.28125 C 594.09253,146.33097 574.16875,110.39006 540.25,101.15625 C 533.89023,99.424911 527.47789,98.773944 521.21875,99.0625 z M 521.46875,105.03125 C 527.13152,104.77397 532.93358,105.37109 538.6875,106.9375 C 569.37508,115.29168 587.51062,147.8356 579.09375,179.75 C 570.67685,211.66441 539.00008,230.57292 508.3125,222.21875 C 477.62491,213.86456 459.48938,181.3519 467.90625,149.4375 C 474.74496,123.50704 496.93008,106.14614 521.46875,105.03125 z"/>
			<path style="color: rgb(0, 0, 0); fill: rgb(208, 96, 0); fill-rule: evenodd; visibility: visible; display: inline; overflow: visible;" d="M 520.875,88.65625 C 489.44818,90.09975 461.02348,112.33897 452.34375,145.25 C 441.66103,185.7559 464.79183,227.39448 504.09375,238.09375 C 543.39567,248.79303 583.94229,224.44338 594.625,183.9375 C 605.30773,143.4316 582.20814,101.79304 542.90625,91.09375 C 535.53714,89.087634 528.12734,88.323135 520.875,88.65625 z M 521.09375,94.625 C 527.74983,94.323116 534.54897,95.064992 541.3125,96.90625 C 577.38464,106.72629 598.72546,144.93757 588.84375,182.40625 C 578.96205,219.87491 541.72843,242.10129 505.65625,232.28125 C 469.58408,222.46122 448.27455,184.24993 458.15625,146.78125 C 466.18515,116.33795 492.25073,95.933165 521.09375,94.625 z"/>
			<path style="color: rgb(0, 0, 0); fill: rgb(208, 96, 0); fill-rule: evenodd; visibility: visible; display: inline; overflow: visible;" d="M 520.5,78.28125 C 484.76953,79.917051 452.46319,105.17166 442.59375,142.59375 C 430.44677,188.65171 456.75237,235.96023 501.4375,248.125 C 546.12261,260.28977 592.22804,232.65172 604.375,186.59375 C 616.52198,140.53579 590.24761,93.227271 545.5625,81.0625 C 537.18404,78.781605 528.74549,77.903758 520.5,78.28125 z M 520.71875,84.25 C 528.36809,83.9037 536.19562,84.727647 543.96875,86.84375 C 585.42542,98.129634 609.93939,142.043 598.59375,185.0625 C 587.24813,228.08202 544.45667,253.62964 503,242.34375 C 461.54331,231.05787 437.06061,187.1445 448.40625,144.125 C 457.6246,109.17165 487.57162,85.750634 520.71875,84.25 z"/>
			<path style="color: rgb(0, 0, 0); fill: rgb(208, 96, 0); fill-rule: evenodd; visibility: visible; display: inline; overflow: visible;" d="M 520.125,67.875 C 480.09106,69.702352 443.90218,98.007078 432.84375,139.9375 C 419.23339,191.54417 448.71292,244.55725 498.78125,258.1875 C 548.84958,271.81777 600.51461,240.85667 614.125,189.25 C 627.73536,137.64332 598.25581,84.63026 548.1875,71 C 538.79969,68.444326 529.3636,67.453303 520.125,67.875 z M 520.375,73.875 C 529.01754,73.484459 537.84229,74.390304 546.625,76.78125 C 593.46612,89.53296 621.15247,139.15169 608.34375,187.71875 C 595.53501,236.28581 547.21613,265.12671 500.375,252.375 C 453.53387,239.6233 425.84753,190.0358 438.65625,141.46875 C 449.06334,102.00802 482.92398,75.567342 520.375,73.875 z"/>
			<path style="color: rgb(0, 0, 0); fill: rgb(208, 96, 0); fill-rule: evenodd; visibility: visible; display: inline; overflow: visible;" d="M 519.75,57.5 C 475.41276,59.51819 435.37176,90.845041 423.125,137.28125 C 408.05209,194.43352 440.70464,253.12299 496.15625,268.21875 C 551.60786,283.31453 608.8021,249.05853 623.875,191.90625 C 638.94792,134.75399 606.29537,76.064519 550.84375,60.96875 C 540.44657,58.138293 529.98167,57.034264 519.75,57.5 z M 520,63.5 C 529.63571,63.065385 539.48895,64.084211 549.28125,66.75 C 601.50684,80.967538 632.33348,136.26346 618.0625,190.375 C 603.79153,244.48656 549.94434,276.65504 497.71875,262.4375 C 445.49317,248.21997 414.63528,192.92405 428.90625,138.8125 C 440.50143,94.846876 478.24528,65.38333 520,63.5 z"/>
			<g transform="matrix(1.06728, 0, 0, 1.06343, 313.086, -551.65)">
				<path style="fill: none; stroke-opacity: 0.65; stroke: rgb(245, 245, 255); stroke-width: 3; stroke-linecap: butt; stroke-linejoin: miter;" d="M 248.61008,580.71268 L 144.52658,765.78965"/>
				<path style="fill: none; stroke-opacity: 0.65; stroke: rgb(245, 245, 255); stroke-width: 3; stroke-linecap: butt; stroke-linejoin: miter;" d="M 269.92233,597.55059 L 123.21433,748.95174"/>
				<path style="fill: none; stroke-opacity: 0.65; stroke: rgb(245, 245, 255); stroke-width: 3; stroke-linecap: butt; stroke-linejoin: miter;" d="M 223.75127,570.1811 L 169.38539,776.32123"/>
				<path style="fill: none; stroke-opacity: 0.65; stroke: rgb(245, 245, 255); stroke-width: 3; stroke-linecap: butt; stroke-linejoin: miter;" d="M 286.23563,619.54739 L 106.90103,726.95495"/>
				<path style="fill: none; stroke-opacity: 0.65; stroke: rgb(245, 245, 255); stroke-width: 3; stroke-linecap: butt; stroke-linejoin: miter;" d="M 296.43824,645.204 L 96.698409,701.29834"/>
				<path style="fill: none; stroke-opacity: 0.65; stroke: rgb(245, 245, 255); stroke-width: 3; stroke-linecap: butt; stroke-linejoin: miter;" d="M 299.83489,672.77197 L 93.301759,673.73036"/>
				<path style="fill: none; stroke-opacity: 0.65; stroke: rgb(245, 245, 255); stroke-width: 3; stroke-linecap: butt; stroke-linejoin: miter;" d="M 296.19409,700.37261 L 96.942555,646.12972"/>
				<path style="fill: none; stroke-opacity: 0.65; stroke: rgb(245, 245, 255); stroke-width: 3; stroke-linecap: butt; stroke-linejoin: miter;" d="M 197.03999,566.67358 L 196.09667,779.82875"/>
				<path style="fill: none; stroke-opacity: 0.65; stroke: rgb(245, 245, 255); stroke-width: 3; stroke-linecap: butt; stroke-linejoin: miter;" d="M 170.29656,570.42915 L 222.8401,776.07319"/>
				<path style="fill: none; stroke-opacity: 0.65; stroke: rgb(245, 245, 255); stroke-width: 3; stroke-linecap: butt; stroke-linejoin: miter;" d="M 145.34351,581.19187 L 247.79315,765.31046"/>
				<path style="fill: none; stroke-opacity: 0.65; stroke: rgb(245, 245, 255); stroke-width: 3; stroke-linecap: butt; stroke-linejoin: miter;" d="M 123.88135,598.22827 L 269.2553,748.27406"/>
				<path style="fill: none; stroke-opacity: 0.65; stroke: rgb(245, 245, 255); stroke-width: 3; stroke-linecap: butt; stroke-linejoin: miter;" d="M 107.37268,620.37736 L 285.76396,726.12497"/>
			</g>
			<path style="fill: rgb(0, 0, 0); stroke: none;" d="M 541.1102,164.8122 C 541.11579,174.50671 533.25839,182.36865 523.56386,182.36865 C 513.86933,182.36865 506.01194,174.50671 506.01753,164.8122 C 506.01194,155.11768 513.86933,147.25574 523.56386,147.25574 C 533.25839,147.25574 541.11579,155.11768 541.1102,164.8122 z"/>
		</g>
		<path style="color: rgb(0, 0, 0); fill: rgb(229, 248, 103); fill-opacity: 0.572368; fill-rule: evenodd; stroke: rgb(0, 0, 0); stroke-width: 0.8; stroke-linecap: butt; stroke-linejoin: miter; stroke-dashoffset: 0pt; visibility: visible; display: inline; overflow: visible;" d="M 515.97229,341.77841 C 470.97312,338.39179 424.48728,346.08862 412.20924,358.95881 C 399.9312,371.82902 426.48746,385.02293 471.48664,388.40954 C 516.48579,391.79616 562.97163,384.09935 575.24967,371.22915 C 587.52771,358.35896 560.97144,345.16502 515.97229,341.77841 z M 514.22285,343.61222 C 555.68273,346.73246 580.15033,358.88868 568.83798,370.74661 C 557.52563,382.60454 514.69597,389.69599 473.23606,386.57574 C 431.77615,383.45549 407.30858,371.29928 418.62093,359.44136 C 429.93327,347.58342 472.76293,340.49196 514.22285,343.61222 z"/>
	</g>
	<g transform="translate(-81.2255, -654.375)" style="stroke: rgb(0, 0, 0); stroke-width: 0.8;">
		<g transform="translate(122.725, -23.1423)" style="stroke: rgb(0, 0, 0); stroke-width: 0.8;">
			<path transform="translate(36.2343, 535.491)" d="M 131.56432,541.8307 L 121.51543,542.73558 L 119.3182,540.81831 L 119.29678,538.81807 L 131.61195,539.68758 L 131.56432,541.8307 z" style="fill: rgb(128, 224, 255); fill-rule: evenodd; stroke: rgb(0, 0, 0); stroke-width: 0.8; stroke-linecap: square; stroke-linejoin: miter;"/>
			<rect style="fill: rgb(128, 224, 255); stroke: rgb(0, 0, 0); stroke-width: 0.8;" width="9.9001188" height="2.614126" x="-1157.3842" y="-1636.4474" transform="matrix(0.996506, -0.0835226, -0.801224, -0.598364, 0, 0)"/>
		</g>
		<path style="fill: rgb(160, 157, 157); fill-rule: evenodd; stroke: rgb(0, 0, 0); stroke-width: 0.8; stroke-linecap: butt; stroke-linejoin: miter;" d="M 129.6087,1065.7365 L 283.42597,1051.9763 L 282.05791,1051.0634 L 119.72429,1059.0452 L 115.42455,1063.7921 L 129.6087,1065.7365 z"/>
		<path style="fill: rgb(0, 0, 0); fill-rule: evenodd; stroke: rgb(0, 0, 0); stroke-width: 4.60344; stroke-linecap: butt; stroke-linejoin: miter;" d="M 140.14165,357.32867 C 140.14165,368.09355 131.30453,376.8202 120.40339,376.8202 C 109.50225,376.8202 100.66513,368.09355 100.66513,357.32867 C 100.66513,346.56379 109.50225,337.83714 120.40339,337.83714 C 131.30453,337.83714 140.14165,346.56379 140.14165,357.32867 z" transform="matrix(0.293569, 0, 0, -0.102874, 92.4166, 1098.65)"/>
	</g>
	<path style="fill: none; fill-rule: evenodd; stroke: rgb(0, 0, 0); stroke-width: 8.05461px; stroke-linecap: butt; stroke-linejoin: miter;" d="M 46.452359,391.59619 L 46.321217,407.30466"/>
	<g transform="translate(-89.7761, -698.582)" style="stroke: rgb(0, 0, 0); stroke-width: 0.8;">
		<path style="fill: rgb(160, 157, 157); fill-rule: evenodd; stroke: rgb(0, 0, 0); stroke-width: 0.8; stroke-linecap: butt; stroke-linejoin: miter;" d="M 138.22976,1091.5241 L 292.04703,1077.7639 L 290.67897,1076.851 L 128.34535,1084.8328 L 124.04561,1089.5797 L 138.22976,1091.5241 z"/>
		<path style="fill: rgb(0, 0, 0); fill-rule: evenodd; stroke: rgb(0, 0, 0); stroke-width: 4.60344; stroke-linecap: butt; stroke-linejoin: miter;" d="M 140.14165,357.32867 C 140.14165,368.09355 131.30453,376.8202 120.40339,376.8202 C 109.50225,376.8202 100.66513,368.09355 100.66513,357.32867 C 100.66513,346.56379 109.50225,337.83714 120.40339,337.83714 C 131.30453,337.83714 140.14165,346.56379 140.14165,357.32867 z" transform="matrix(0.293569, 0, 0, -0.102874, 101.038, 1124.43)"/>
	</g>
	<g transform="translate(-36.2343, -535.491)" style="stroke: rgb(0, 0, 0); stroke-width: 0.8;">
		<rect transform="matrix(0.929363, -0.369168, -0.335078, -0.942191, 0, 0)" y="-785.01807" x="-32.395222" height="6.1313863" width="10.289927" style="fill: rgb(128, 224, 255); stroke: rgb(0, 0, 0); stroke-width: 0.800265;"/>
		<path style="fill: rgb(160, 157, 157); fill-rule: evenodd; stroke: rgb(0, 0, 0); stroke-width: 0.8; stroke-linecap: butt; stroke-linejoin: miter;" d="M 86.71658,811.67577 L 235.8061,749.16407 L 234.46569,745.80229 L 77.030583,787.02581 L 72.923691,805.28079 L 86.71658,811.67577 z"/>
		<path style="fill: rgb(0, 0, 0); fill-rule: evenodd; stroke: rgb(0, 0, 0); stroke-width: 2.52809; stroke-linecap: butt; stroke-linejoin: miter;" d="M 140.14165,357.32867 C 140.14165,368.09355 131.30453,376.8202 120.40339,376.8202 C 109.50225,376.8202 100.66513,368.09355 100.66513,357.32867 C 100.66513,346.56379 109.50225,337.83714 120.40339,337.83714 C 131.30453,337.83714 140.14165,346.56379 140.14165,357.32867 z" transform="matrix(0.291679, -0.0332601, -0.0386455, -0.338907, 64.6336, 923.118)"/>
	</g>
	<path d="M 178.92135,353.44022 C 178.92694,356.17302 171.06954,358.38924 161.37501,358.38924 C 151.68048,358.38924 143.82309,356.17302 143.82868,353.44022 C 143.82309,350.70741 151.68048,348.4912 161.37501,348.4912 C 171.06954,348.4912 178.92694,350.70741 178.92135,353.44022 z" style="fill: rgb(0, 0, 0); stroke: none;"/>
	<g transform="translate(-331.471, -10.668)">
		<path style="color: rgb(0, 0, 0); fill: rgb(245, 245, 255); fill-rule: evenodd; stroke: rgb(0, 0, 0); stroke-width: 0.8; stroke-linecap: butt; stroke-linejoin: miter; stroke-dashoffset: 0pt; visibility: visible; display: inline; overflow: visible;" d="M 602.83867,373.27585 C 586.28921,390.64837 523.70348,401.02579 463.04954,396.45445 C 402.39559,391.88311 366.64184,374.09409 383.1913,356.72157 C 399.74076,339.34904 462.32649,328.97162 522.98043,333.54296 C 583.63437,338.1143 619.38813,355.90332 602.83867,373.27585 L 602.83867,373.27585 z"/>
		<g transform="matrix(1, 0, 0, 0.276849, -29.8652, 319.51)">
			<path style="color: rgb(0, 0, 0); fill: rgb(208, 96, 0); fill-rule: evenodd; visibility: visible; display: inline; overflow: visible;" d="M 526.25,119.875 C 506.0791,118.7321 487.09223,132.37007 481.59375,153.21875 C 475.30978,177.04583 488.90988,201.57208 512.0625,207.875 C 535.21515,214.17792 559.09103,199.79582 565.375,175.96875 C 571.65898,152.14168 558.09015,127.61542 534.9375,121.3125 C 532.04342,120.52464 529.13156,120.03827 526.25,119.875 z M 525.90625,125.875 C 528.38528,126.01754 530.88522,126.41595 533.375,127.09375 C 553.29323,132.51615 565.07787,153.64325 559.59375,174.4375 C 554.10963,195.23174 533.54323,207.51615 513.625,202.09375 C 493.7068,196.67135 481.92214,175.54424 487.40625,154.75 C 492.20486,136.55504 508.55304,124.87723 525.90625,125.875 z"/>
			<path style="color: rgb(0, 0, 0); fill: rgb(208, 96, 0); fill-rule: evenodd; visibility: visible; display: inline; overflow: visible;" d="M 521.59375,109.46875 C 498.77486,110.5252 478.1417,126.68244 471.84375,150.5625 C 464.09243,179.95334 480.8706,210.2004 509.40625,217.96875 C 537.94191,225.73711 567.37371,208.01583 575.125,178.625 C 582.87632,149.23417 566.12942,118.98711 537.59375,111.21875 C 532.24331,109.76218 526.85965,109.22495 521.59375,109.46875 z M 526.53125,115.46875 C 529.68033,115.64987 532.86838,116.17021 536.03125,117.03125 C 561.33421,123.91955 576.29479,150.73734 569.34375,177.09375 C 562.39273,203.45014 536.27169,219.04455 510.96875,212.15625 C 485.66582,205.26796 470.70521,178.45015 477.65625,152.09375 C 483.73841,129.03189 504.48772,114.20094 526.53125,115.46875 z"/>
			<path style="color: rgb(0, 0, 0); fill: rgb(208, 96, 0); fill-rule: evenodd; visibility: visible; display: inline; overflow: visible;" d="M 521.21875,99.0625 C 494.0958,100.31291 469.583,119.50914 462.09375,147.90625 C 452.87622,182.85653 472.83125,218.79743 506.75,228.03125 C 540.66874,237.26506 575.65744,216.23154 584.875,181.28125 C 594.09253,146.33097 574.16875,110.39006 540.25,101.15625 C 533.89023,99.424911 527.47789,98.773944 521.21875,99.0625 z M 521.46875,105.03125 C 527.13152,104.77397 532.93358,105.37109 538.6875,106.9375 C 569.37508,115.29168 587.51062,147.8356 579.09375,179.75 C 570.67685,211.66441 539.00008,230.57292 508.3125,222.21875 C 477.62491,213.86456 459.48938,181.3519 467.90625,149.4375 C 474.74496,123.50704 496.93008,106.14614 521.46875,105.03125 z"/>
			<path style="color: rgb(0, 0, 0); fill: rgb(208, 96, 0); fill-rule: evenodd; visibility: visible; display: inline; overflow: visible;" d="M 520.875,88.65625 C 489.44818,90.09975 461.02348,112.33897 452.34375,145.25 C 441.66103,185.7559 464.79183,227.39448 504.09375,238.09375 C 543.39567,248.79303 583.94229,224.44338 594.625,183.9375 C 605.30773,143.4316 582.20814,101.79304 542.90625,91.09375 C 535.53714,89.087634 528.12734,88.323135 520.875,88.65625 z M 521.09375,94.625 C 527.74983,94.323116 534.54897,95.064992 541.3125,96.90625 C 577.38464,106.72629 598.72546,144.93757 588.84375,182.40625 C 578.96205,219.87491 541.72843,242.10129 505.65625,232.28125 C 469.58408,222.46122 448.27455,184.24993 458.15625,146.78125 C 466.18515,116.33795 492.25073,95.933165 521.09375,94.625 z"/>
			<path style="color: rgb(0, 0, 0); fill: rgb(208, 96, 0); fill-rule: evenodd; visibility: visible; display: inline; overflow: visible;" d="M 520.5,78.28125 C 484.76953,79.917051 452.46319,105.17166 442.59375,142.59375 C 430.44677,188.65171 456.75237,235.96023 501.4375,248.125 C 546.12261,260.28977 592.22804,232.65172 604.375,186.59375 C 616.52198,140.53579 590.24761,93.227271 545.5625,81.0625 C 537.18404,78.781605 528.74549,77.903758 520.5,78.28125 z M 520.71875,84.25 C 528.36809,83.9037 536.19562,84.727647 543.96875,86.84375 C 585.42542,98.129634 609.93939,142.043 598.59375,185.0625 C 587.24813,228.08202 544.45667,253.62964 503,242.34375 C 461.54331,231.05787 437.06061,187.1445 448.40625,144.125 C 457.6246,109.17165 487.57162,85.750634 520.71875,84.25 z"/>
			<path style="color: rgb(0, 0, 0); fill: rgb(208, 96, 0); fill-rule: evenodd; visibility: visible; display: inline; overflow: visible;" d="M 520.125,67.875 C 480.09106,69.702352 443.90218,98.007078 432.84375,139.9375 C 419.23339,191.54417 448.71292,244.55725 498.78125,258.1875 C 548.84958,271.81777 600.51461,240.85667 614.125,189.25 C 627.73536,137.64332 598.25581,84.63026 548.1875,71 C 538.79969,68.444326 529.3636,67.453303 520.125,67.875 z M 520.375,73.875 C 529.01754,73.484459 537.84229,74.390304 546.625,76.78125 C 593.46612,89.53296 621.15247,139.15169 608.34375,187.71875 C 595.53501,236.28581 547.21613,265.12671 500.375,252.375 C 453.53387,239.6233 425.84753,190.0358 438.65625,141.46875 C 449.06334,102.00802 482.92398,75.567342 520.375,73.875 z"/>
			<path style="color: rgb(0, 0, 0); fill: rgb(208, 96, 0); fill-rule: evenodd; visibility: visible; display: inline; overflow: visible;" d="M 519.75,57.5 C 475.41276,59.51819 435.37176,90.845041 423.125,137.28125 C 408.05209,194.43352 440.70464,253.12299 496.15625,268.21875 C 551.60786,283.31453 608.8021,249.05853 623.875,191.90625 C 638.94792,134.75399 606.29537,76.064519 550.84375,60.96875 C 540.44657,58.138293 529.98167,57.034264 519.75,57.5 z M 520,63.5 C 529.63571,63.065385 539.48895,64.084211 549.28125,66.75 C 601.50684,80.967538 632.33348,136.26346 618.0625,190.375 C 603.79153,244.48656 549.94434,276.65504 497.71875,262.4375 C 445.49317,248.21997 414.63528,192.92405 428.90625,138.8125 C 440.50143,94.846876 478.24528,65.38333 520,63.5 z"/>
			<g transform="matrix(1.06728, 0, 0, 1.06343, 313.086, -551.65)">
				<path style="fill: none; stroke-opacity: 0.65; stroke: rgb(245, 245, 255); stroke-width: 3; stroke-linecap: butt; stroke-linejoin: miter;" d="M 248.61008,580.71268 L 144.52658,765.78965"/>
				<path style="fill: none; stroke-opacity: 0.65; stroke: rgb(245, 245, 255); stroke-width: 3; stroke-linecap: butt; stroke-linejoin: miter;" d="M 269.92233,597.55059 L 123.21433,748.95174"/>
				<path style="fill: none; stroke-opacity: 0.65; stroke: rgb(245, 245, 255); stroke-width: 3; stroke-linecap: butt; stroke-linejoin: miter;" d="M 223.75127,570.1811 L 169.38539,776.32123"/>
				<path style="fill: none; stroke-opacity: 0.65; stroke: rgb(245, 245, 255); stroke-width: 3; stroke-linecap: butt; stroke-linejoin: miter;" d="M 286.23563,619.54739 L 106.90103,726.95495"/>
				<path style="fill: none; stroke-opacity: 0.65; stroke: rgb(245, 245, 255); stroke-width: 3; stroke-linecap: butt; stroke-linejoin: miter;" d="M 296.43824,645.204 L 96.698409,701.29834"/>
				<path style="fill: none; stroke-opacity: 0.65; stroke: rgb(245, 245, 255); stroke-width: 3; stroke-linecap: butt; stroke-linejoin: miter;" d="M 299.83489,672.77197 L 93.301759,673.73036"/>
				<path style="fill: none; stroke-opacity: 0.65; stroke: rgb(245, 245, 255); stroke-width: 3; stroke-linecap: butt; stroke-linejoin: miter;" d="M 296.19409,700.37261 L 96.942555,646.12972"/>
				<path style="fill: none; stroke-opacity: 0.65; stroke: rgb(245, 245, 255); stroke-width: 3; stroke-linecap: butt; stroke-linejoin: miter;" d="M 197.03999,566.67358 L 196.09667,779.82875"/>
				<path style="fill: none; stroke-opacity: 0.65; stroke: rgb(245, 245, 255); stroke-width: 3; stroke-linecap: butt; stroke-linejoin: miter;" d="M 170.29656,570.42915 L 222.8401,776.07319"/>
				<path style="fill: none; stroke-opacity: 0.65; stroke: rgb(245, 245, 255); stroke-width: 3; stroke-linecap: butt; stroke-linejoin: miter;" d="M 145.34351,581.19187 L 247.79315,765.31046"/>
				<path style="fill: none; stroke-opacity: 0.65; stroke: rgb(245, 245, 255); stroke-width: 3; stroke-linecap: butt; stroke-linejoin: miter;" d="M 123.88135,598.22827 L 269.2553,748.27406"/>
				<path style="fill: none; stroke-opacity: 0.65; stroke: rgb(245, 245, 255); stroke-width: 3; stroke-linecap: butt; stroke-linejoin: miter;" d="M 107.37268,620.37736 L 285.76396,726.12497"/>
			</g>
			<path style="fill: rgb(0, 0, 0); stroke: none;" d="M 541.1102,164.8122 C 541.11579,174.50671 533.25839,182.36865 523.56386,182.36865 C 513.86933,182.36865 506.01194,174.50671 506.01753,164.8122 C 506.01194,155.11768 513.86933,147.25574 523.56386,147.25574 C 533.25839,147.25574 541.11579,155.11768 541.1102,164.8122 z"/>
		</g>
		<path style="color: rgb(0, 0, 0); fill: rgb(229, 248, 103); fill-opacity: 0.572368; fill-rule: evenodd; stroke: rgb(0, 0, 0); stroke-width: 0.8; stroke-linecap: butt; stroke-linejoin: miter; stroke-dashoffset: 0pt; visibility: visible; display: inline; overflow: visible;" d="M 515.97229,341.77841 C 470.97312,338.39179 424.48728,346.08862 412.20924,358.95881 C 399.9312,371.82902 426.48746,385.02293 471.48664,388.40954 C 516.48579,391.79616 562.97163,384.09935 575.24967,371.22915 C 587.52771,358.35896 560.97144,345.16502 515.97229,341.77841 z M 514.22285,343.61222 C 555.68273,346.73246 580.15033,358.88868 568.83798,370.74661 C 557.52563,382.60454 514.69597,389.69599 473.23606,386.57574 C 431.77615,383.45549 407.30858,371.29928 418.62093,359.44136 C 429.93327,347.58342 472.76293,340.49196 514.22285,343.61222 z"/>
	</g>
	<path style="fill: none; fill-rule: evenodd; stroke: rgb(0, 0, 0); stroke-width: 8.27304px; stroke-linecap: butt; stroke-linejoin: miter;" d="M 46.418037,385.04354 L 46.394111,388.88617"/>
	<g transform="translate(-81.2255, -679.893)" style="stroke: rgb(0, 0, 0); stroke-width: 0.8;">
		<g transform="translate(122.725, -23.1423)" style="stroke: rgb(0, 0, 0); stroke-width: 0.8;">
			<path transform="translate(36.2343, 535.491)" d="M 131.56432,541.8307 L 121.51543,542.73558 L 119.3182,540.81831 L 119.29678,538.81807 L 131.61195,539.68758 L 131.56432,541.8307 z" style="fill: rgb(128, 224, 255); fill-rule: evenodd; stroke: rgb(0, 0, 0); stroke-width: 0.8; stroke-linecap: square; stroke-linejoin: miter;"/>
			<rect style="fill: rgb(128, 224, 255); stroke: rgb(0, 0, 0); stroke-width: 0.8;" width="9.9001188" height="2.614126" x="-1157.3842" y="-1636.4474" transform="matrix(0.996506, -0.0835226, -0.801224, -0.598364, 0, 0)"/>
		</g>
		<path style="fill: rgb(160, 157, 157); fill-rule: evenodd; stroke: rgb(0, 0, 0); stroke-width: 0.8; stroke-linecap: butt; stroke-linejoin: miter;" d="M 129.6087,1065.7365 L 283.42597,1051.9763 L 282.05791,1051.0634 L 119.72429,1059.0452 L 115.42455,1063.7921 L 129.6087,1065.7365 z"/>
		<path style="fill: rgb(0, 0, 0); fill-rule: evenodd; stroke: rgb(0, 0, 0); stroke-width: 4.60344; stroke-linecap: butt; stroke-linejoin: miter;" d="M 140.14165,357.32867 C 140.14165,368.09355 131.30453,376.8202 120.40339,376.8202 C 109.50225,376.8202 100.66513,368.09355 100.66513,357.32867 C 100.66513,346.56379 109.50225,337.83714 120.40339,337.83714 C 131.30453,337.83714 140.14165,346.56379 140.14165,357.32867 z" transform="matrix(0.293569, 0, 0, -0.102874, 92.4166, 1098.65)"/>
	</g>
	<path d="M 46.640224,364.22179 L 46.502822,378.85751" style="fill: none; fill-rule: evenodd; stroke: rgb(0, 0, 0); stroke-width: 7.86443px; stroke-linecap: round; stroke-linejoin: miter;"/>
	<g transform="matrix(1.49161, 0, 0, 1.67091, -271.901, -735.5)">
		<path style="color: rgb(0, 0, 0); fill: rgb(0, 0, 0); fill-rule: evenodd; stroke: rgb(0, 0, 0); stroke-width: 3; stroke-linecap: butt; stroke-linejoin: miter; stroke-dashoffset: 0pt; visibility: visible; display: inline; overflow: visible;" d="M 156,559.36218 C 156,599.67897 124.65993,632.36218 86,632.36218 C 47.340068,632.36218 16,599.67897 16,559.36218 C 16,519.04539 47.340068,486.36218 86,486.36218 C 124.65993,486.36218 156,519.04539 156,559.36218 z" transform="matrix(-0.165936, 0.000496417, -0.000361829, -0.0274783, 305.485, 667.259)"/>
		<rect style="color: rgb(0, 0, 0); fill: rgb(0, 0, 0); fill-rule: evenodd; stroke: rgb(0, 0, 0); stroke-width: 1.67657; stroke-linecap: butt; stroke-linejoin: miter; stroke-dashoffset: 0pt; visibility: visible; display: inline; overflow: visible;" width="21.761118" height="1.8944851" x="-293.07742" y="-652.17627" transform="matrix(-0.999996, 0.00291435, -0.0135156, -0.999909, 0, 0)"/>
		<path style="color: rgb(0, 0, 0); fill: rgb(0, 0, 0); fill-rule: evenodd; stroke: rgb(0, 0, 0); stroke-width: 3; stroke-linecap: butt; stroke-linejoin: miter; stroke-dashoffset: 0pt; visibility: visible; display: inline; overflow: visible;" d="M 156,559.36218 C 156,599.67897 124.65993,632.36218 86,632.36218 C 47.340068,632.36218 16,599.67897 16,559.36218 C 16,519.04539 47.340068,486.36218 86,486.36218 C 124.65993,486.36218 156,519.04539 156,559.36218 z" transform="matrix(-0.165936, 0.000496417, -0.000361829, -0.0274783, 305.445, 664.046)"/>
	</g>
<!-- Movement arrows -->
	<g>
		<path style="fill: rgb(0, 192, 0); fill-rule: evenodd;" d="M 65.90049,50.25474 L 61.26224,63.75262 L 73.5401,56.47524 C 69.93364,56.29845 66.85592,53.77653 65.90049,50.25474 z"/>
		<path d="M 114.98034,22.23828 L 113.18576,23.03882 L 114.98034,22.23828 z M 109.77758,23.07837 L 107.59346,24.10123 L 107.55918,24.09875 L 104.66633,25.53553 L 101.87454,27.01542 L 102.78174,28.83468 L 105.53746,27.38797 L 105.57352,27.35479 L 108.43031,25.95119 L 110.61443,24.92833 L 109.77758,23.07837 z M 98.01522,29.20534 L 96.2425,30.25798 L 96.24072,30.29364 L 93.54291,31.95926 L 93.50685,31.99244 L 90.90834,33.73683 L 90.87228,33.77001 L 90.51703,33.9948 L 91.63702,35.68632 L 91.95799,35.45905 L 91.99227,35.46153 L 94.59078,33.71714 L 97.25609,32.01337 L 97.25431,32.04903 L 98.99276,30.99391 L 98.01522,29.20534 z M 86.91243,36.59682 L 85.76922,37.44453 L 85.73316,37.47771 L 83.2629,39.41032 L 80.85766,41.41922 L 80.82337,41.41673 L 79.95975,42.17732 L 81.2222,43.77179 L 82.08582,43.01121 L 84.48929,41.03797 L 86.92527,39.10288 L 86.9235,39.13853 L 88.06848,38.25517 L 86.91243,36.59682 z M 76.64595,45.15827 L 76.17719,45.58957 L 76.14291,45.58709 L 73.90197,47.75103 L 71.72783,49.9556 L 71.69354,49.95311 L 70.27662,51.46096 L 71.6833,52.92273 L 73.10022,51.41488 L 75.27259,49.24597 L 77.47747,47.11521 L 77.94623,46.68391 L 76.64595,45.15827 z M 58.98425,65.42362 L 58.05616,66.78792 L 58.02188,66.78544 L 56.34599,69.34817 L 56.30993,69.38134 L 54.70083,71.98469 L 54.66655,71.98221 L 54.06476,73.01227 L 55.73095,74.09916 L 56.33097,73.10476 L 57.93829,70.53707 L 57.97435,70.5039 L 59.64668,68.01249 L 59.64846,67.97683 L 60.57477,66.64818 L 58.98425,65.42362 z M 51.80539,76.92846 L 51.58016,77.30581 L 51.57838,77.34147 L 50.13715,80.02855 L 50.13537,80.06421 L 48.76093,82.79191 L 48.75915,82.82757 L 47.71988,85.04272 L 49.46351,85.95628 L 50.50101,83.77679 L 50.50278,83.74113 L 51.87545,81.04909 L 53.31669,78.36201 L 53.28241,78.35953 L 53.50763,77.98217 L 51.80539,76.92846 z M 45.86124,89.20265 L 45.00049,91.28758 L 44.99871,91.32324 L 43.8932,94.17777 L 43.85714,94.21095 L 42.8202,97.07044 L 42.81842,97.1061 L 42.61505,97.73555 L 44.47396,98.40695 L 44.67378,97.84882 L 44.67556,97.81316 L 45.7125,94.95366 L 46.81624,92.13479 L 46.81802,92.09913 L 47.67699,90.04986 L 45.86124,89.20265 z M 41.22926,102.07287 L 40.94312,102.98262 L 40.94135,103.01828 L 40.10654,105.96399 L 40.10477,105.99965 L 39.33675,108.98598 L 39.33498,109.02164 L 38.89627,110.9224 L 40.79834,111.41798 L 41.23527,109.55288 L 41.23705,109.51722 L 41.96723,106.59973 L 41.969,106.56407 L 42.80203,103.65402 L 42.80381,103.61836 L 43.08995,102.7086 L 41.22926,102.07287 z M 37.91655,115.39647 L 37.43523,118.15305 L 37.43345,118.18871 L 36.93793,121.23055 L 36.93615,121.26621 L 36.5417,124.35116 L 36.53992,124.38682 L 36.50031,124.49131 L 38.44909,124.73977 L 38.48693,124.67093 L 38.4887,124.63527 L 38.87961,121.62164 L 38.88138,121.58598 L 39.37513,118.5798 L 39.37691,118.54414 L 39.85646,115.82322 L 37.91655,115.39647 z M 37.8682,149.53421 L 37.86998,149.49855 L 37.68163,146.3714 L 37.56184,143.24922 L 37.56362,143.21356 L 37.58138,142.85697 L 35.62016,142.85813 L 35.60063,143.25038 L 35.71864,146.40822 L 35.71686,146.44388 L 35.90344,149.60668 L 35.90166,149.64234 L 36.12552,152.05631 L 38.05778,151.94569 L 37.8682,149.53421 z M 36.06734,129.04076 L 35.92065,130.60479 L 35.91887,130.64045 L 35.73011,133.74029 L 35.72834,133.77595 L 35.60637,136.91641 L 35.60924,138.24076 L 37.5669,138.31092 L 37.56225,137.02223 L 37.56403,136.98657 L 37.68245,133.91743 L 37.68422,133.88177 L 37.87121,130.81758 L 37.87298,130.78192 L 38.0179,129.25356 L 36.06734,129.04076 z" style="fill: rgb(0, 192, 0); fill-rule: nonzero;"/>
	</g>
	<g transform="translate(67.0893, 27.9858)">
		<g>
			<path style="fill: rgb(255, 255, 255); fill-opacity: 1; fill-rule: evenodd;" d="M 1.3600578,209.24138 C 2.5160728,216.08517 3.6710848,221.39566 4.8288078,228.23916 C 6.946002,221.25602 11.620904,218.71844 18.134938,219.48386 C 13.337957,215.39505 11.036434,213.1064 8.1265618,210.48853 C 4.3976338,207.42153 -1.8151242,199.83722 1.3600578,209.24138 z "/>
			<path d="M 13.791749,218.01308 L 3.5756876,208.95533 L 5.9531511,223.00083 C 7.2611529,219.68298 10.432826,217.67914 13.791749,218.01308 z " style="fill: rgb(0, 192, 0); fill-rule: evenodd;"/>
		</g>
		<g>
			<path style="fill: rgb(255, 255, 255); fill-opacity: 1; fill-rule: evenodd;" d="M 15.242439,244.20207 C 17.114595,237.5186 18.33394,232.22251 20.204426,225.53857 C 15.312049,230.95256 10.00143,231.25481 4.4354375,227.78519 C 7.0313324,233.52896 8.1374329,236.58043 9.6534589,240.18906 C 11.718884,244.55315 14.105131,254.06241 15.242439,244.20207 z "/>
			<path d="M 7.940814,231.15238 L 13.418728,244.15174 L 17.018956,230.43217 C 14.489063,232.77906 10.82169,233.05764 7.940814,231.15238 z " style="fill: rgb(0, 192, 0); fill-rule: evenodd;"/>
		</g>
		<g>
			<path style="fill: rgb(255, 255, 255); fill-opacity: 1; fill-rule: nonzero; stroke: none;" d="M 8.8533131,220.02681 C 5.4228891,221.95375 8.4431031,227.06761 9.4783131,229.87056 C 14.571095,233.09131 13.843906,225.24607 12.134563,222.43306 C 12.030706,221.05841 10.106028,218.93063 8.8533131,220.02681 z "/>
			<path style="fill: rgb(0, 192, 0); fill-rule: nonzero;" d="M 11.865893,252.34908 L 11.951386,251.62717 L 11.972181,251.53978 L 12.224141,248.48697 L 12.173328,248.51931 L 12.247388,246.39554 L 12.74858,245.55748 L 13.589177,245.46758 L 14.14104,246.22892 L 14.129489,246.45878 L 14.055411,248.58256 L 14.085406,248.63763 L 13.812675,251.77781 L 13.842687,251.83287 L 13.736387,252.64216 L 13.205189,253.42518 L 12.30456,253.40493 L 11.884316,252.63399 L 11.865893,252.34908 z M -10.885153,192.65988 L -10.353948,191.87688 L -9.483344,191.84207 L -9.3424761,191.97492 L -6.9571386,194.09124 L -6.9271184,194.14632 L -5.0567485,196.07114 L -4.7589267,196.99412 L -5.290124,197.77714 L -6.1399458,197.72456 L -6.3108287,197.53661 L -8.2319881,195.6441 L -10.536518,193.55052 L -10.885153,192.65988 z M 10.396793,228.43831 L 9.9720123,226.78028 L 9.9420049,226.7252 L 9.1109035,223.69408 L 9.080873,223.63902 L 8.7530515,222.66098 L 8.8801341,221.7643 L 9.6722571,221.33441 L 10.41812,221.82399 L 10.508175,221.98918 L 10.866017,223.0223 L 10.896035,223.07735 L 11.757167,226.16353 L 11.787187,226.21862 L 12.241968,227.9317 L 12.013278,228.89306 L 11.161122,229.21279 L 10.466049,228.6909 L 10.396793,228.43831 z M -2.6993438,201.02353 L -2.0572937,200.31835 L -1.1982543,200.51338 L -1.0574043,200.64624 L 1.0807826,203.43899 L 1.1108131,203.49405 L 2.484666,205.51233 L 2.6000533,206.47721 L 1.9280059,207.12737 L 1.0689461,206.93231 L 0.94889091,206.71206 L -0.39496746,204.74886 L -0.42499276,204.69379 L -2.4823342,201.92379 L -2.6993438,201.02353 z "/>
		</g>
	</g>
<!-- Legend -->
	<g>
		<path style="fill: none; stroke: rgb(255, 255, 255); stroke-width: 4; stroke-linecap: square; stroke-linejoin: bevel;" d="M 242.96517,182.1203 L 277.83794,199.48304"/>
		<g style="fill: rgb(0, 192, 0); stroke: rgb(255, 255, 255); stroke-width: 1;" transform="matrix(1.59027, -0.728046, 0.728046, 1.59027, -631.863, 149.072)">
			<path d="M 450.12885,229.41389 C 451.71449,229.59453 453.30013,229.77516 454.88578,229.95579 C 451.54385,227.56732 448.20195,225.17883 444.86003,222.79036 C 446.43566,226.58384 448.01131,230.37733 449.58694,234.17083 C 449.76756,232.58518 449.9482,230.99955 450.12885,229.41389 z" style="fill: rgb(0, 192, 0); stroke: rgb(255, 255, 255); stroke-width: 1; stroke-linecap: butt; stroke-linejoin: bevel;"/>
		</g>
		<path style="fill: none; stroke: rgb(0, 192, 0); stroke-width: 1; stroke-linecap: square; stroke-linejoin: bevel;" d="M 242.96517,182.1203 L 277.83794,199.48304"/>
	</g>
	<g transform="matrix(0.998384, -0.0568266, 0.0568266, 0.998384, -14.3301, 13.5448)">
		<g style="fill: rgb(0, 192, 0); stroke: none; stroke-width: 1;" transform="matrix(1.18789, -0.0908417, -0.0185435, 1.16803, -280.509, 15.7313)">
			<path d="M 450.12885,229.41389 C 451.71449,229.59453 453.30013,229.77516 454.88578,229.95579 C 451.54385,227.56732 448.20195,225.17883 444.86003,222.79036 C 446.43566,226.58384 448.01131,230.37733 449.58694,234.17083 C 449.76756,232.58518 449.9482,230.99955 450.12885,229.41389 z" style="fill: rgb(0, 192, 0); stroke: none; stroke-width: 1; stroke-linecap: butt; stroke-linejoin: bevel;"/>
		</g>
		<path style="fill: none; stroke: rgb(0, 192, 0); stroke-width: 1; stroke-linecap: square; stroke-linejoin: bevel;" d="M 245.92444,238.02693 L 264.91515,259.49749"/>
	</g>
	<g>
		<g transform="matrix(0.445006, -0.895528, -0.895528, -0.445006, 257.59, 662.881)">
			<path d="M 243.63721,182.31231 L 278.50998,199.67505" style="opacity: 1; fill: none; stroke: rgb(255, 255, 255); stroke-width: 4; stroke-linecap: square; stroke-linejoin: bevel;"/>
			<g transform="matrix(1.59027, -0.728046, 0.728046, 1.59027, -631.191, 149.264)" style="fill: rgb(0, 192, 0); stroke: rgb(255, 255, 255); stroke-width: 1;">
				<path style="fill: rgb(0, 192, 0); stroke: rgb(255, 255, 255); stroke-width: 1; stroke-linecap: butt; stroke-linejoin: bevel;" d="M 450.12885,229.41389 C 451.71449,229.59453 453.30013,229.77516 454.88578,229.95579 C 451.54385,227.56732 448.20195,225.17883 444.86003,222.79036 C 446.43566,226.58384 448.01131,230.37733 449.58694,234.17083 C 449.76756,232.58518 449.9482,230.99955 450.12885,229.41389 z"/>
			</g>
			<path d="M 243.63721,182.31231 L 278.50998,199.67505" style="fill: none; stroke: rgb(0, 192, 0); stroke-width: 1; stroke-linecap: square; stroke-linejoin: bevel;"/>
		</g>
		<path style="fill: none; stroke: rgb(0, 192, 0); stroke-width: 1; stroke-linecap: square; stroke-linejoin: bevel;" d="M 202.67708,363.64302 L 202.67708,299.24615 L 179.90162,288.10068"/>
	</g>
	<g>
		<g transform="matrix(0.445006, 0.895528, -0.895528, 0.445006, 257.585, -78.1822)">
			<path d="M 243.63721,182.31231 L 278.50998,199.67505" style="opacity: 1; fill: none; stroke: rgb(255, 255, 255); stroke-width: 4; stroke-linecap: square; stroke-linejoin: bevel;"/>
			<g transform="matrix(1.59027, -0.728046, 0.728046, 1.59027, -631.191, 149.264)" style="fill: rgb(0, 192, 0); stroke: rgb(255, 255, 255); stroke-width: 1;">
				<path style="fill: rgb(0, 192, 0); stroke: rgb(255, 255, 255); stroke-width: 1; stroke-linecap: butt; stroke-linejoin: bevel;" d="M 450.12885,229.41389 C 451.71449,229.59453 453.30013,229.77516 454.88578,229.95579 C 451.54385,227.56732 448.20195,225.17883 444.86003,222.79036 C 446.43566,226.58384 448.01131,230.37733 449.58694,234.17083 C 449.76756,232.58518 449.9482,230.99955 450.12885,229.41389 z"/>
			</g>
			<path d="M 243.63721,182.31231 L 278.50998,199.67505" style="fill: none; stroke: rgb(0, 192, 0); stroke-width: 1; stroke-linecap: square; stroke-linejoin: bevel;"/>
		</g>
		<path style="fill: none; stroke: rgb(0, 192, 0); stroke-width: 1; stroke-linecap: square; stroke-linejoin: bevel;" d="M 202.67708,225.02068 L 202.67708,270.65946 L 179.90162,281.80493"/>
	</g>
	<g>
		<g>
			<path d="M 302.03276,371.85896 L 302.03276,417.49774 L 279.2573,428.64321" style="fill: none; stroke: rgb(0, 192, 0); stroke-width: 1; stroke-linecap: square; stroke-linejoin: bevel;"/>
			<path d="M 302.03276,345.63323 L 302.03276,391.27201 L 279.2573,402.41748" style="fill: none; stroke: rgb(0, 192, 0); stroke-width: 1; stroke-linecap: square; stroke-linejoin: bevel;"/>
			<path d="M 302.03276,319.63845 L 302.03276,365.27723 L 279.2573,376.4227" style="fill: none; stroke: rgb(0, 192, 0); stroke-width: 1; stroke-linecap: square; stroke-linejoin: bevel;"/>
			<path d="M 302.03276,293.42151 L 302.03276,339.06029 L 279.2573,350.20576" style="fill: none; stroke: rgb(0, 192, 0); stroke-width: 1; stroke-linecap: square; stroke-linejoin: bevel;"/>
		</g>
		<g style="fill: rgb(0, 192, 0); stroke: none; stroke-width: 1;" transform="matrix(0.205596, -1.17348, 1.1272, 0.306679, -66.3986, 805.371)">
			<path d="M 450.12885,229.41389 C 451.71449,229.59453 453.30013,229.77516 454.88578,229.95579 C 451.54385,227.56732 448.20195,225.17883 444.86003,222.79036 C 446.43566,226.58384 448.01131,230.37733 449.58694,234.17083 C 449.76756,232.58518 449.9482,230.99955 450.12885,229.41389 z" style="fill: rgb(0, 192, 0); stroke: none; stroke-width: 1; stroke-linecap: butt; stroke-linejoin: bevel;"/>
		</g>
		<g style="fill: rgb(0, 192, 0); stroke: none; stroke-width: 1;" transform="matrix(0.205596, -1.17348, 1.1272, 0.306679, -66.8956, 831.895)">
			<path d="M 450.12885,229.41389 C 451.71449,229.59453 453.30013,229.77516 454.88578,229.95579 C 451.54385,227.56732 448.20195,225.17883 444.86003,222.79036 C 446.43566,226.58384 448.01131,230.37733 449.58694,234.17083 C 449.76756,232.58518 449.9482,230.99955 450.12885,229.41389 z" style="fill: rgb(0, 192, 0); stroke: none; stroke-width: 1; stroke-linecap: butt; stroke-linejoin: bevel;"/>
		</g>
		<g style="fill: rgb(0, 192, 0); stroke: none; stroke-width: 1;" transform="matrix(0.205596, -1.17348, 1.1272, 0.306679, -66.8956, 857.923)">
			<path d="M 450.12885,229.41389 C 451.71449,229.59453 453.30013,229.77516 454.88578,229.95579 C 451.54385,227.56732 448.20195,225.17883 444.86003,222.79036 C 446.43566,226.58384 448.01131,230.37733 449.58694,234.17083 C 449.76756,232.58518 449.9482,230.99955 450.12885,229.41389 z" style="fill: rgb(0, 192, 0); stroke: none; stroke-width: 1; stroke-linecap: butt; stroke-linejoin: bevel;"/>
		</g>
		<g style="fill: rgb(0, 192, 0); stroke: none; stroke-width: 1;" transform="matrix(0.205596, -1.17348, 1.1272, 0.306679, -66.8956, 884.117)">
			<path d="M 450.12885,229.41389 C 451.71449,229.59453 453.30013,229.77516 454.88578,229.95579 C 451.54385,227.56732 448.20195,225.17883 444.86003,222.79036 C 446.43566,226.58384 448.01131,230.37733 449.58694,234.17083 C 449.76756,232.58518 449.9482,230.99955 450.12885,229.41389 z" style="fill: rgb(0, 192, 0); stroke: none; stroke-width: 1; stroke-linecap: butt; stroke-linejoin: bevel;"/>
		</g>
	</g>
	<g transform="matrix(-1, 0, 0, -1, 445.592, 568.09)">
		<g transform="matrix(0.445006, 0.895528, -0.895528, 0.445006, 257.585, -78.1822)">
			<path d="M 243.63721,182.31231 L 278.50998,199.67505" style="opacity: 1; fill: none; stroke: rgb(255, 255, 255); stroke-width: 4; stroke-linecap: square; stroke-linejoin: bevel;"/>
			<g transform="matrix(1.59027, -0.728046, 0.728046, 1.59027, -631.191, 149.264)" style="fill: rgb(0, 192, 0); stroke: rgb(255, 255, 255); stroke-width: 1;">
				<path style="fill: rgb(0, 192, 0); stroke: rgb(255, 255, 255); stroke-width: 1; stroke-linecap: butt; stroke-linejoin: bevel;" d="M 450.12885,229.41389 C 451.71449,229.59453 453.30013,229.77516 454.88578,229.95579 C 451.54385,227.56732 448.20195,225.17883 444.86003,222.79036 C 446.43566,226.58384 448.01131,230.37733 449.58694,234.17083 C 449.76756,232.58518 449.9482,230.99955 450.12885,229.41389 z"/>
			</g>
			<path d="M 243.63721,182.31231 L 278.50998,199.67505" style="fill: none; stroke: rgb(0, 192, 0); stroke-width: 1; stroke-linecap: square; stroke-linejoin: bevel;"/>
		</g>
		<path style="fill: none; stroke: rgb(0, 192, 0); stroke-width: 1; stroke-linecap: square; stroke-linejoin: bevel;" d="M 202.67708,225.02068 C 202.67708,225.11334 202.67708,270.65946 202.67708,270.65946 L 179.90162,281.80493"/>
	</g>
	<g transform="matrix(-1, 0, 0, -1, 438.798, 639.893)">
		<path style="fill: none; stroke: rgb(0, 192, 0); stroke-width: 1; stroke-linecap: square; stroke-linejoin: bevel;" d="M 423.05669,333.10922 C 423.05669,333.15763 423.05669,352.97172 423.05669,352.97172 L 400.28123,364.11719"/>
		<path style="fill: rgb(0, 192, 0); stroke: none; stroke-width: 1; stroke-linecap: butt; stroke-linejoin: bevel;" d="M 405.76606,361.42151 C 406.29568,359.61619 406.82528,357.81087 407.35489,356.00554 C 403.97552,359.19473 400.59612,362.38388 397.21674,365.57306 C 401.81671,364.88747 406.41669,364.20186 411.01669,363.51628 C 409.26647,362.81804 407.51628,362.11979 405.76606,361.42151 z"/>
	</g>
	<g transform="matrix(-1, 0, 0, 1, 438.798, 3.53961)">
		<path style="fill: none; stroke: rgb(0, 192, 0); stroke-width: 1; stroke-linecap: square; stroke-linejoin: bevel;" d="M 423.05669,321.87995 C 423.05669,321.94977 423.05669,352.97172 423.05669,352.97172 L 400.28123,364.11719"/>
		<path style="fill: rgb(0, 192, 0); stroke: none; stroke-width: 1; stroke-linecap: butt; stroke-linejoin: bevel;" d="M 405.76606,361.42151 C 406.29568,359.61619 406.82528,357.81087 407.35489,356.00554 C 403.97552,359.19473 400.59612,362.38388 397.21674,365.57306 C 401.81671,364.88747 406.41669,364.20186 411.01669,363.51628 C 409.26647,362.81804 407.51628,362.11979 405.76606,361.42151 z"/>
	</g>
	<text y="291.524" x="296.232" style="font-size: 18px; fill: rgb(0, 192, 0);">A</text>
	<text y="322.761" x="11.1006" style="font-size: 18px; fill: rgb(0, 192, 0);">B</text>
	<text y="291.432" x="164.707" style="font-size: 18px; fill: rgb(0, 192, 0);">C</text>
	<text y="291.355" x="267.41" style="font-size: 18px; fill: rgb(0, 192, 0);">D</text>
	<text y="207.54" x="279.96" style="font-size: 18px; fill: rgb(0, 192, 0);">E</text>
	<text y="266.913" x="267.246" style="font-size: 18px; fill: rgb(0, 192, 0);">F</text>
</svg>