<?xml version="1.0" encoding="UTF-8" standalone="no"?>
<!-- Created with Inkscape (http://www.inkscape.org/) -->

<svg
   xmlns:dc="http://purl.org/dc/elements/1.1/"
   xmlns:cc="http://creativecommons.org/ns#"
   xmlns:rdf="http://www.w3.org/1999/02/22-rdf-syntax-ns#"
   xmlns:svg="http://www.w3.org/2000/svg"
   xmlns="http://www.w3.org/2000/svg"
   xmlns:sodipodi="http://sodipodi.sourceforge.net/DTD/sodipodi-0.dtd"
   xmlns:inkscape="http://www.inkscape.org/namespaces/inkscape"
   width="818.28619"
   height="758.43353"
   id="svg2"
   version="1.1"
   inkscape:version="0.91 r13725"
   sodipodi:docname="hierarchies2.svg">
  <defs
     id="defs4">
    <marker
       inkscape:stockid="Arrow1Lend"
       orient="auto"
       refY="0"
       refX="0"
       id="Arrow1Lend"
       style="overflow:visible">
      <path
         id="path4579"
         d="M 0,0 5,-5 -12.5,0 5,5 0,0 z"
         style="fill-rule:evenodd;stroke:#000000;stroke-width:1pt;marker-start:none"
         transform="matrix(-0.8,0,0,-0.8,-10,0)"
         inkscape:connector-curvature="0" />
    </marker>
    <marker
       inkscape:stockid="Arrow2Lend"
       orient="auto"
       refY="0"
       refX="0"
       id="Arrow2Lend"
       style="overflow:visible">
      <path
         id="path4136"
         style="font-size:12px;fill-rule:evenodd;stroke-width:0.625;stroke-linejoin:round"
         d="M 8.7185878,4.0337352 -2.2072895,0.01601326 8.7185884,-4.0017078 c -1.7454984,2.3720609 -1.7354408,5.6174519 -6e-7,8.035443 z"
         transform="matrix(-1.1,0,0,-1.1,-1.1,0)"
         inkscape:connector-curvature="0" />
    </marker>
    <marker
       inkscape:stockid="Arrow2Lstart"
       orient="auto"
       refY="0"
       refX="0"
       id="Arrow2Lstart"
       style="overflow:visible">
      <path
         id="path4133"
         style="font-size:12px;fill-rule:evenodd;stroke-width:0.625;stroke-linejoin:round"
         d="M 8.7185878,4.0337352 -2.2072895,0.01601326 8.7185884,-4.0017078 c -1.7454984,2.3720609 -1.7354408,5.6174519 -6e-7,8.035443 z"
         transform="matrix(1.1,0,0,1.1,1.1,0)"
         inkscape:connector-curvature="0" />
    </marker>
    <marker
       inkscape:stockid="Arrow1Lstart"
       orient="auto"
       refY="0"
       refX="0"
       id="Arrow1Lstart"
       style="overflow:visible">
      <path
         id="path4115"
         d="M 0,0 5,-5 -12.5,0 5,5 0,0 z"
         style="fill-rule:evenodd;stroke:#000000;stroke-width:1pt;marker-start:none"
         transform="matrix(0.8,0,0,0.8,10,0)"
         inkscape:connector-curvature="0" />
    </marker>
    <marker
       inkscape:stockid="Arrow2Lend"
       orient="auto"
       refY="0"
       refX="0"
       id="Arrow2Lend-1"
       style="overflow:visible">
      <path
         inkscape:connector-curvature="0"
         id="path4136-7"
         style="font-size:12px;fill-rule:evenodd;stroke-width:0.625;stroke-linejoin:round"
         d="M 8.7185878,4.0337352 -2.2072895,0.01601326 8.7185884,-4.0017078 c -1.7454984,2.3720609 -1.7354408,5.6174519 -6e-7,8.035443 z"
         transform="matrix(-1.1,0,0,-1.1,-1.1,0)" />
    </marker>
    <marker
       inkscape:stockid="Arrow2Lend"
       orient="auto"
       refY="0"
       refX="0"
       id="Arrow2Lend-5"
       style="overflow:visible">
      <path
         inkscape:connector-curvature="0"
         id="path4136-5"
         style="font-size:12px;fill-rule:evenodd;stroke-width:0.625;stroke-linejoin:round"
         d="M 8.7185878,4.0337352 -2.2072895,0.01601326 8.7185884,-4.0017078 c -1.7454984,2.3720609 -1.7354408,5.6174519 -6e-7,8.035443 z"
         transform="matrix(-1.1,0,0,-1.1,-1.1,0)" />
    </marker>
  </defs>
  <sodipodi:namedview
     id="base"
     pagecolor="#ffffff"
     bordercolor="#666666"
     borderopacity="1.0"
     inkscape:pageopacity="0.0"
     inkscape:pageshadow="2"
     inkscape:zoom="0.9899495"
     inkscape:cx="266.29143"
     inkscape:cy="280.39035"
     inkscape:document-units="px"
     inkscape:current-layer="layer1"
     showgrid="true"
     inkscape:window-width="1188"
     inkscape:window-height="724"
     inkscape:window-x="101"
     inkscape:window-y="0"
     inkscape:window-maximized="0"
     fit-margin-top="0"
     fit-margin-left="0"
     fit-margin-right="0"
     fit-margin-bottom="0"
     showguides="true"
     inkscape:guide-bbox="true">
    <inkscape:grid
       type="xygrid"
       id="grid2989"
       empspacing="5"
       visible="true"
       enabled="true"
       snapvisiblegridlinesonly="true" />
  </sodipodi:namedview>
  <metadata
     id="metadata7">
    <rdf:RDF>
      <cc:Work
         rdf:about="">
        <dc:format>image/svg+xml</dc:format>
        <dc:type
           rdf:resource="http://purl.org/dc/dcmitype/StillImage" />
        <dc:title />
      </cc:Work>
    </rdf:RDF>
  </metadata>
  <g
     inkscape:label="Calque 1"
     inkscape:groupmode="layer"
     id="layer1"
     transform="translate(674.82294,942.87354)">
    <rect
       style="fill:#ffffff;fill-opacity:1;stroke:#000000;stroke-width:2;stroke-miterlimit:4;stroke-opacity:1;stroke-dasharray:none;stroke-dashoffset:0"
       id="rect3835-50"
       width="60"
       height="60"
       x="-390.53674"
       y="-941.87354" />
    <text
       xml:space="preserve"
       style="font-size:40px;font-style:normal;font-weight:normal;line-height:125%;letter-spacing:0px;word-spacing:0px;fill:#000000;fill-opacity:1;stroke:none;font-family:Sans"
       x="-366.53674"
       y="-901.87354"
       id="text2985-0-0-2-0-1"
       sodipodi:linespacing="125%"><tspan
         sodipodi:role="line"
         x="-366.53674"
         y="-901.87354"
         id="tspan3839-0-3-2"
         style="font-size:32px;font-style:normal;font-variant:normal;font-weight:normal;font-stretch:normal;fill:#000000;fill-opacity:1;font-family:'Fira Mono';-inkscape-font-specification:'Fira Mono'">/</tspan></text>
    <rect
       style="fill:#ffffff;fill-opacity:1;stroke:#000000;stroke-width:1;stroke-miterlimit:4;stroke-dasharray:none;stroke-dashoffset:0;stroke-opacity:1"
       id="rect3835-90"
       width="80"
       height="60"
       x="-670.53674"
       y="-741.87354" />
    <text
       xml:space="preserve"
       style="font-style:normal;font-weight:normal;font-size:40px;line-height:125%;font-family:Sans;letter-spacing:0px;word-spacing:0px;fill:#000000;fill-opacity:1;stroke:none"
       x="-656.53674"
       y="-701.87354"
       id="text2985-0-0-2-0-4"
       sodipodi:linespacing="125%"><tspan
         sodipodi:role="line"
         x="-656.53674"
         y="-701.87354"
         id="tspan3839-0-3-1"
         style="font-style:normal;font-variant:normal;font-weight:normal;font-stretch:normal;font-size:32px;font-family:'Fira Mono';-inkscape-font-specification:'Fira Mono';fill:#000000;fill-opacity:1">bin</tspan></text>
    <rect
       style="fill:#ffffff;fill-opacity:1;stroke:#000000;stroke-width:1;stroke-miterlimit:4;stroke-opacity:1;stroke-dasharray:none;stroke-dashoffset:0"
       id="rect3835-90-0"
       width="80"
       height="60"
       x="-550.53674"
       y="-741.87354" />
    <text
       xml:space="preserve"
       style="font-size:40px;font-style:normal;font-weight:normal;line-height:125%;letter-spacing:0px;word-spacing:0px;fill:#000000;fill-opacity:1;stroke:none;font-family:Sans"
       x="-538.53674"
       y="-701.87354"
       id="text2985-0-0-2-0-4-5"
       sodipodi:linespacing="125%"><tspan
         sodipodi:role="line"
         x="-538.53674"
         y="-701.87354"
         id="tspan3839-0-3-1-7"
         style="font-size:32px;font-style:normal;font-variant:normal;font-weight:normal;font-stretch:normal;fill:#000000;fill-opacity:1;font-family:'Fira Mono';-inkscape-font-specification:'Fira Mono'">dev</tspan></text>
    <rect
       style="fill:#ffffff;fill-opacity:1;stroke:#000000;stroke-width:1;stroke-miterlimit:4;stroke-opacity:1;stroke-dasharray:none;stroke-dashoffset:0"
       id="rect3835-90-4"
       width="80"
       height="60"
       x="-430.53674"
       y="-741.87354" />
    <text
       xml:space="preserve"
       style="font-size:40px;font-style:normal;font-weight:normal;line-height:125%;letter-spacing:0px;word-spacing:0px;fill:#000000;fill-opacity:1;stroke:none;font-family:Sans"
       x="-416.53674"
       y="-701.87354"
       id="text2985-0-0-2-0-4-59"
       sodipodi:linespacing="125%"><tspan
         sodipodi:role="line"
         x="-416.53674"
         y="-701.87354"
         id="tspan3839-0-3-1-1"
         style="font-size:32px;font-style:normal;font-variant:normal;font-weight:normal;font-stretch:normal;fill:#000000;fill-opacity:1;font-family:'Fira Mono';-inkscape-font-specification:'Fira Mono'">etc</tspan></text>
    <rect
       style="fill:#ffffff;fill-opacity:1;stroke:#000000;stroke-width:1;stroke-miterlimit:4;stroke-opacity:1;stroke-dasharray:none;stroke-dashoffset:0"
       id="rect3835-90-4-0"
       width="118"
       height="60"
       x="-308.53674"
       y="-741.87354" />
    <text
       xml:space="preserve"
       style="font-style:normal;font-weight:normal;font-size:40px;line-height:125%;font-family:Sans;letter-spacing:0px;word-spacing:0px;fill:#000000;fill-opacity:1;stroke:none"
       x="-286.53674"
       y="-701.87354"
       id="text2985-0-0-2-0-4-59-3"
       sodipodi:linespacing="125%"><tspan
         sodipodi:role="line"
         x="-286.53674"
         y="-701.87354"
         id="tspan3839-0-3-1-1-5"
         style="font-style:normal;font-variant:normal;font-weight:normal;font-stretch:normal;font-size:32px;font-family:'Fira Mono';-inkscape-font-specification:'Fira Mono';fill:#000000;fill-opacity:1">home</tspan></text>
    <text
       xml:space="preserve"
       style="font-size:40px;font-style:normal;font-weight:normal;line-height:125%;letter-spacing:0px;word-spacing:0px;fill:#000000;fill-opacity:1;stroke:none;font-family:Sans"
       x="-166.53674"
       y="-709.87354"
       id="text2985-0-0-2-0-4-59-3-7"
       sodipodi:linespacing="125%"><tspan
         sodipodi:role="line"
         x="-166.53674"
         y="-709.87354"
         id="tspan3839-0-3-1-1-5-2"
         style="font-size:32px;font-style:normal;font-variant:normal;font-weight:normal;font-stretch:normal;fill:#000000;fill-opacity:1;font-family:DejaVu Sans;-inkscape-font-specification:DejaVu Sans">...</tspan></text>
    <path
       style="fill:none;stroke:#000000;stroke-width:1;stroke-linecap:round;stroke-linejoin:miter;stroke-miterlimit:4;stroke-dasharray:none;stroke-opacity:1"
       d="m -391.02725,-871.41709 c -18.39235,0 -239.10061,121.50949 -239.10061,121.50949"
       id="path4114"
       inkscape:connector-curvature="0" />
    <path
       style="fill:none;stroke:#000000;stroke-width:0.99999994;stroke-linecap:round;stroke-linejoin:miter;stroke-miterlimit:4;stroke-dasharray:none;stroke-opacity:1"
       d="m -371.04165,-871.41656 c -10.57468,0 -137.47095,122.01487 -137.47095,122.01487"
       id="path4114-6"
       inkscape:connector-curvature="0" />
    <path
       style="fill:none;stroke:#000000;stroke-width:1;stroke-linecap:round;stroke-linejoin:miter;stroke-miterlimit:4;stroke-dasharray:none;stroke-opacity:1"
       d="m -361.03674,-871.42245 c -29.5,122.0244 -29.5,122.0244 -29.5,122.0244"
       id="path4134"
       inkscape:connector-curvature="0" />
    <path
       style="fill:none;stroke:#000000;stroke-width:1;stroke-linecap:round;stroke-linejoin:miter;stroke-miterlimit:4;stroke-dasharray:none;stroke-opacity:1"
       d="m -351.03646,-871.42071 c 112.01973,122.52601 112.01973,122.52601 112.01973,122.52601"
       id="path4137"
       inkscape:connector-curvature="0" />
    <path
       style="fill:none;stroke:#000000;stroke-width:1;stroke-linecap:round;stroke-linejoin:miter;stroke-miterlimit:4;stroke-dasharray:none;stroke-opacity:1"
       d="m -331.03617,-871.41781 268.483628,122.01518"
       id="path4139"
       inkscape:connector-curvature="0" />
    <rect
       style="fill:#ffffff;fill-opacity:1;stroke:#000000;stroke-width:1;stroke-miterlimit:4;stroke-opacity:1;stroke-dasharray:none;stroke-dashoffset:0"
       id="rect3835-90-6"
       width="80"
       height="60"
       x="-106.53674"
       y="-741.87354" />
    <text
       xml:space="preserve"
       style="font-size:40px;font-style:normal;font-weight:normal;line-height:125%;letter-spacing:0px;word-spacing:0px;fill:#000000;fill-opacity:1;stroke:none;font-family:Sans"
       x="-92.536743"
       y="-703.87354"
       id="text2985-0-0-2-0-4-0"
       sodipodi:linespacing="125%"><tspan
         sodipodi:role="line"
         x="-92.536743"
         y="-703.87354"
         id="tspan3839-0-3-1-73"
         style="font-size:32px;font-style:normal;font-variant:normal;font-weight:normal;font-stretch:normal;fill:#000000;fill-opacity:1;font-family:'Fira Mono';-inkscape-font-specification:'Fira Mono'">usr</tspan></text>
    <text
       xml:space="preserve"
       style="font-size:40px;font-style:normal;font-weight:normal;line-height:125%;letter-spacing:0px;word-spacing:0px;fill:#000000;fill-opacity:1;stroke:none;font-family:Sans"
       x="13.463259"
       y="-711.87354"
       id="text2985-0-0-2-0-4-59-3-7-7"
       sodipodi:linespacing="125%"><tspan
         sodipodi:role="line"
         x="13.463259"
         y="-711.87354"
         id="tspan3839-0-3-1-1-5-2-1"
         style="font-size:32px;font-style:normal;font-variant:normal;font-weight:normal;font-stretch:normal;fill:#000000;fill-opacity:1;font-family:DejaVu Sans;-inkscape-font-specification:DejaVu Sans">...</tspan></text>
    <rect
       style="fill:#ffffff;fill-opacity:1;stroke:#cc595a;stroke-width:6;stroke-miterlimit:4;stroke-opacity:1;stroke-dasharray:none;stroke-dashoffset:0"
       id="rect3835-90-1"
       width="80"
       height="60"
       x="-430.53674"
       y="-599.87354" />
    <text
       xml:space="preserve"
       style="font-style:normal;font-weight:normal;font-size:40px;line-height:125%;font-family:Sans;letter-spacing:0px;word-spacing:0px;fill:#000000;fill-opacity:1;stroke:none"
       x="-418.53674"
       y="-559.87354"
       id="text2985-0-0-2-0-4-00"
       sodipodi:linespacing="125%"><tspan
         sodipodi:role="line"
         x="-418.53674"
         y="-559.87354"
         id="tspan3839-0-3-1-0"
         style="font-style:normal;font-variant:normal;font-weight:normal;font-stretch:normal;font-size:32px;font-family:'Fira Mono';-inkscape-font-specification:'Fira Mono';fill:#cc595a;fill-opacity:1">guy</tspan></text>
    <rect
       style="fill:#ffffff;fill-opacity:1;stroke:#000000;stroke-width:1;stroke-miterlimit:4;stroke-opacity:1;stroke-dasharray:none;stroke-dashoffset:0"
       id="rect3835-90-1-9"
       width="100"
       height="60"
       x="-310.53674"
       y="-601.87354" />
    <text
       xml:space="preserve"
       style="font-style:normal;font-weight:normal;font-size:40px;line-height:125%;font-family:Sans;letter-spacing:0px;word-spacing:0px;fill:#000000;fill-opacity:1;stroke:none"
       x="-298.53674"
       y="-561.87354"
       id="text2985-0-0-2-0-4-00-1"
       sodipodi:linespacing="125%"><tspan
         sodipodi:role="line"
         x="-298.53674"
         y="-561.87354"
         id="tspan3839-0-3-1-0-8"
         style="font-style:normal;font-variant:normal;font-weight:normal;font-stretch:normal;font-size:32px;font-family:'Fira Mono';-inkscape-font-specification:'Fira Mono';fill:#000000;fill-opacity:1">jean</tspan></text>
    <rect
       style="fill:#ffffff;fill-opacity:1;stroke:#000000;stroke-width:1;stroke-miterlimit:4;stroke-opacity:1;stroke-dasharray:none;stroke-dashoffset:0"
       id="rect3835-90-1-1"
       width="80"
       height="60"
       x="-168.53674"
       y="-601.87354" />
    <text
       xml:space="preserve"
       style="font-style:normal;font-weight:normal;font-size:40px;line-height:125%;font-family:Sans;letter-spacing:0px;word-spacing:0px;fill:#000000;fill-opacity:1;stroke:none"
       x="-166.53674"
       y="-561.87354"
       id="text2985-0-0-2-0-4-00-3"
       sodipodi:linespacing="125%"><tspan
         sodipodi:role="line"
         x="-166.53674"
         y="-561.87354"
         id="tspan3839-0-3-1-0-1"
         style="font-style:normal;font-variant:normal;font-weight:normal;font-stretch:normal;font-size:32px;font-family:'Fira Mono';-inkscape-font-specification:'Fira Mono';fill:#000000;fill-opacity:1">paul</tspan></text>
    <rect
       style="fill:#ffffff;fill-opacity:1;stroke:#000000;stroke-width:1;stroke-miterlimit:4;stroke-opacity:1;stroke-dasharray:none;stroke-dashoffset:0"
       id="rect3835-90-1-90"
       width="80"
       height="60"
       x="-470.53674"
       y="-481.87354" />
    <text
       xml:space="preserve"
       style="font-size:40px;font-style:normal;font-weight:normal;line-height:125%;letter-spacing:0px;word-spacing:0px;fill:#000000;fill-opacity:1;stroke:none;font-family:Sans"
       x="-448.53674"
       y="-441.87354"
       id="text2985-0-0-2-0-4-00-7"
       sodipodi:linespacing="125%"><tspan
         sodipodi:role="line"
         x="-448.53674"
         y="-441.87354"
         id="tspan3839-0-3-1-0-0"
         style="font-size:32px;font-style:normal;font-variant:normal;font-weight:normal;font-stretch:normal;fill:#000000;fill-opacity:1;font-family:'Fira Mono';-inkscape-font-specification:'Fira Mono'">TP</tspan></text>
    <rect
       style="fill:#ffffff;fill-opacity:1;stroke:#000000;stroke-width:1;stroke-miterlimit:4;stroke-opacity:1;stroke-dasharray:none;stroke-dashoffset:0"
       id="rect3835-90-1-90-6"
       width="80"
       height="60"
       x="-328.53674"
       y="-481.87354" />
    <text
       xml:space="preserve"
       style="font-size:40px;font-style:normal;font-weight:normal;line-height:125%;letter-spacing:0px;word-spacing:0px;fill:#000000;fill-opacity:1;stroke:none;font-family:Sans"
       x="-306.53674"
       y="-441.87354"
       id="text2985-0-0-2-0-4-00-7-4"
       sodipodi:linespacing="125%"><tspan
         sodipodi:role="line"
         x="-306.53674"
         y="-441.87354"
         id="tspan3839-0-3-1-0-0-7"
         style="font-size:32px;font-style:normal;font-variant:normal;font-weight:normal;font-stretch:normal;fill:#000000;fill-opacity:1;font-family:'Fira Mono';-inkscape-font-specification:'Fira Mono'">TP</tspan></text>
    <rect
       style="fill:#ffffff;fill-opacity:1;stroke:#000000;stroke-width:1;stroke-miterlimit:4;stroke-opacity:1;stroke-dasharray:none;stroke-dashoffset:0"
       id="rect3835-90-1-90-5"
       width="80"
       height="60"
       x="-190.53674"
       y="-481.87354" />
    <text
       xml:space="preserve"
       style="font-size:40px;font-style:normal;font-weight:normal;line-height:125%;letter-spacing:0px;word-spacing:0px;fill:#000000;fill-opacity:1;stroke:none;font-family:Sans"
       x="-168.53674"
       y="-441.87354"
       id="text2985-0-0-2-0-4-00-7-8"
       sodipodi:linespacing="125%"><tspan
         sodipodi:role="line"
         x="-168.53674"
         y="-441.87354"
         id="tspan3839-0-3-1-0-0-3"
         style="font-size:32px;font-style:normal;font-variant:normal;font-weight:normal;font-stretch:normal;fill:#000000;fill-opacity:1;font-family:'Fira Mono';-inkscape-font-specification:'Fira Mono'">TP</tspan></text>
    <path
       style="fill:none;stroke:#000000;stroke-width:0.99999994;stroke-linecap:round;stroke-linejoin:miter;stroke-miterlimit:4;stroke-dasharray:none;stroke-opacity:1"
       d="m -291.03712,-671.41715 -99.49416,62.01382"
       id="path4304"
       inkscape:connector-curvature="0" />
    <path
       style="fill:none;stroke:#000000;stroke-width:0.99999994;stroke-linecap:round;stroke-linejoin:miter;stroke-miterlimit:4;stroke-dasharray:none;stroke-opacity:1"
       d="m -251.03674,-671.42543 -10,62.53545"
       id="path4306"
       inkscape:connector-curvature="0" />
    <path
       style="fill:none;stroke:#000000;stroke-width:1;stroke-linecap:round;stroke-linejoin:miter;stroke-miterlimit:4;stroke-dasharray:none;stroke-opacity:1"
       d="m -211.04084,-671.4186 87.07928,62.0167"
       id="path4308"
       inkscape:connector-curvature="0" />
    <path
       style="fill:none;stroke:#000000;stroke-width:0.99999994;stroke-linecap:round;stroke-linejoin:miter;stroke-miterlimit:4;stroke-dasharray:none;stroke-opacity:1"
       d="m -389.52182,-533.44132 -40.50442,44.5469"
       id="path4310"
       inkscape:connector-curvature="0" />
    <path
       style="fill:none;stroke:#000000;stroke-width:1;stroke-linecap:butt;stroke-linejoin:miter;stroke-miterlimit:4;stroke-dasharray:none;stroke-opacity:1"
       d="m -259.57368,-534.96652 -29.99716,45.57693"
       id="path4312"
       inkscape:connector-curvature="0" />
    <path
       style="fill:none;stroke:#000000;stroke-width:0.99999994;stroke-linecap:round;stroke-linejoin:miter;stroke-miterlimit:4;stroke-dasharray:none;stroke-opacity:1"
       d="m -124.51609,-534.96881 -26.47531,45.58156"
       id="path4314"
       inkscape:connector-curvature="0" />
    <text
       xml:space="preserve"
       style="font-style:normal;font-weight:normal;font-size:40px;line-height:125%;font-family:Sans;letter-spacing:0px;word-spacing:0px;fill:#000000;fill-opacity:1;stroke:none"
       x="-654.53674"
       y="-341.87354"
       id="text2985-0-0-2-0-4-00-4"
       sodipodi:linespacing="125%"><tspan
         sodipodi:role="line"
         x="-654.53674"
         y="-341.87354"
         id="tspan3839-0-3-1-0-5"
         style="font-style:normal;font-variant:normal;font-weight:normal;font-stretch:normal;font-size:32px;font-family:'Fira Mono';-inkscape-font-specification:'Fira Mono';fill:#000000;fill-opacity:1">testfork.c</tspan></text>
    <text
       xml:space="preserve"
       style="font-style:normal;font-weight:normal;font-size:40px;line-height:125%;font-family:Sans;letter-spacing:0px;word-spacing:0px;fill:#000000;fill-opacity:1;stroke:none"
       x="-419.24231"
       y="-327.73138"
       id="text2985-0-0-2-0-4-00-4-8"
       sodipodi:linespacing="125%"><tspan
         sodipodi:role="line"
         x="-419.24231"
         y="-327.73138"
         id="tspan3839-0-3-1-0-5-3"
         style="font-style:normal;font-variant:normal;font-weight:normal;font-stretch:normal;font-size:32px;font-family:'Fira Mono';-inkscape-font-specification:'Fira Mono';fill:#000000;fill-opacity:1">testfork.c</tspan></text>
    <text
       xml:space="preserve"
       style="font-style:normal;font-weight:normal;font-size:40px;line-height:125%;font-family:Sans;letter-spacing:0px;word-spacing:0px;fill:#000000;fill-opacity:1;stroke:none"
       x="-325.4505"
       y="-273.18314"
       id="text2985-0-0-2-0-4-00-4-3"
       sodipodi:linespacing="125%"><tspan
         sodipodi:role="line"
         x="-325.4505"
         y="-273.18314"
         id="tspan3839-0-3-1-0-5-6"
         style="font-style:normal;font-variant:normal;font-weight:normal;font-stretch:normal;font-size:32px;font-family:'Fira Mono';-inkscape-font-specification:'Fira Mono';fill:#000000;fill-opacity:1">testfork.c</tspan></text>
    <path
       style="fill:none;stroke:#000000;stroke-width:0.99999994;stroke-linecap:round;stroke-linejoin:miter;stroke-miterlimit:4;stroke-dasharray:none;stroke-opacity:1"
       d="m -447.49708,-413.93756 -83.54374,42.50895"
       id="path4373"
       inkscape:connector-curvature="0" />
    <path
       style="fill:none;stroke:#000000;stroke-width:1px;stroke-linecap:round;stroke-linejoin:miter;stroke-opacity:1"
       d="m -288.06535,-414.27115 -39.67881,57.31823"
       id="path4375"
       inkscape:connector-curvature="0" />
    <path
       style="fill:none;stroke:#000000;stroke-width:0.99999994;stroke-linecap:round;stroke-linejoin:miter;stroke-miterlimit:4;stroke-dasharray:none;stroke-opacity:1"
       d="m -148.08653,-414.02469 -76.30654,109.35328"
       id="path4377"
       inkscape:connector-curvature="0" />
    <rect
       style="fill:#ffffff;fill-opacity:1;stroke:#000000;stroke-width:1;stroke-miterlimit:4;stroke-opacity:1;stroke-dasharray:none;stroke-dashoffset:0"
       id="rect3835-90-2"
       width="80"
       height="60"
       x="62.963261"
       y="-601.42041" />
    <text
       xml:space="preserve"
       style="font-size:40px;font-style:normal;font-weight:normal;line-height:125%;letter-spacing:0px;word-spacing:0px;fill:#000000;fill-opacity:1;stroke:none;font-family:Sans"
       x="76.963257"
       y="-561.42041"
       id="text2985-0-0-2-0-4-1"
       sodipodi:linespacing="125%"><tspan
         sodipodi:role="line"
         x="76.963257"
         y="-561.42041"
         id="tspan3839-0-3-1-9"
         style="font-size:32px;font-style:normal;font-variant:normal;font-weight:normal;font-stretch:normal;fill:#000000;fill-opacity:1;font-family:'Fira Mono';-inkscape-font-specification:'Fira Mono'">bin</tspan></text>
    <path
       style="fill:none;stroke:#000000;stroke-width:1;stroke-linecap:round;stroke-linejoin:miter;stroke-miterlimit:4;stroke-dasharray:none;stroke-opacity:1"
       d="m -61.08929,-671.41206 165.86653,66.54932"
       id="path4403"
       inkscape:connector-curvature="0" />
    <text
       xml:space="preserve"
       style="font-size:40px;font-style:normal;font-weight:normal;line-height:125%;letter-spacing:0px;word-spacing:0px;fill:#000000;fill-opacity:1;stroke:none;font-family:Sans"
       x="36.963257"
       y="-455.42041"
       id="text2985-0-0-2-0-4-00-4-84"
       sodipodi:linespacing="125%"><tspan
         sodipodi:role="line"
         x="36.963257"
         y="-455.42041"
         id="tspan3839-0-3-1-0-5-0"
         style="font-size:32px;font-style:normal;font-variant:normal;font-weight:normal;font-stretch:normal;fill:#cc595a;fill-opacity:1;font-family:'Fira Mono';-inkscape-font-specification:'Fira Mono'">prog</tspan></text>
    <text
       xml:space="preserve"
       style="font-style:normal;font-weight:normal;font-size:40px;line-height:125%;font-family:Sans;letter-spacing:0px;word-spacing:0px;fill:#000000;fill-opacity:1;stroke:none"
       x="-553.03674"
       y="-269.42041"
       id="text2985-0-0-2-0-4-00-4-88"
       sodipodi:linespacing="125%"><tspan
         sodipodi:role="line"
         x="-553.03674"
         y="-269.42041"
         id="tspan3839-0-3-1-0-5-5"
         style="font-style:normal;font-variant:normal;font-weight:normal;font-stretch:normal;font-size:32px;font-family:'Fira Mono';-inkscape-font-specification:'Fira Mono';fill:#000000;fill-opacity:1">testfork</tspan></text>
    <path
       style="fill:none;stroke:#000000;stroke-width:1;stroke-linecap:round;stroke-linejoin:miter;stroke-miterlimit:4;stroke-dasharray:none;stroke-opacity:1"
       d="m -430.03069,-413.94828 -44.29177,115.43963"
       id="path4454"
       inkscape:connector-curvature="0" />
    <path
       style="fill:none;stroke:#000000;stroke-width:0.99999994;stroke-linecap:round;stroke-linejoin:miter;stroke-miterlimit:4;stroke-dasharray:none;stroke-opacity:1"
       d="m 105.18838,-534.43394 -26.487102,45.94725"
       id="path4456"
       inkscape:connector-curvature="0"
       sodipodi:nodetypes="cc" />
    <text
       xml:space="preserve"
       style="font-size:40px;font-style:normal;font-weight:normal;line-height:125%;letter-spacing:0px;word-spacing:0px;fill:#000000;fill-opacity:1;stroke:none;font-family:Sans"
       x="842.46722"
       y="114.28174"
       id="text4498"
       sodipodi:linespacing="125%"
       transform="translate(-671.03674,-942.87354)"><tspan
         sodipodi:role="line"
         id="tspan4500"
         x="842.46722"
         y="114.28174" /></text>
    <text
       xml:space="preserve"
       style="font-size:40px;font-style:normal;font-weight:normal;line-height:125%;letter-spacing:0px;word-spacing:0px;fill:#000000;fill-opacity:1;stroke:none;font-family:Sans"
       x="-651.03674"
       y="-448.96729"
       id="text2985-0-0-2-0-4-00-4-88-6"
       sodipodi:linespacing="125%"><tspan
         sodipodi:role="line"
         x="-651.03674"
         y="-448.96729"
         id="tspan3839-0-3-1-0-5-5-4"
         style="font-size:32px;font-style:normal;font-variant:normal;font-weight:normal;font-stretch:normal;fill:#cc595a;fill-opacity:1;font-family:'Fira Mono';-inkscape-font-specification:'Fira Mono'">monprog</tspan></text>
    <path
       style="fill:none;stroke:#cc595a;stroke-width:6;stroke-linecap:round;stroke-linejoin:miter;stroke-miterlimit:4;stroke-dasharray:none;stroke-opacity:1"
       d="m -411.00527,-528.97943 -167.13401,49.51921"
       id="path4569"
       inkscape:connector-curvature="0" />
    <path
       inkscape:connector-curvature="0"
       id="path4571"
       d="m -33.01916,-517.07276 -0.05078,0.004 -0.05078,0.004 -2.47266,0.27539 -0.05274,0.006 -0.05273,0.008 -2.17383,0.32031 0.87305,5.93555 2.11328,-0.31055 2.42773,-0.26953 0.002,0 1.20898,-0.0918 -0.46094,-5.98242 z m 13.0332,6.0918 1.4707,0.23437 2.7129,0.53711 0.0059,0.002 1.5,0.34375 1.33789,-5.84961 -1.58593,-0.36133 -0.04297,-0.01 -0.04297,-0.01 -2.76563,-0.54688 -0.05468,-0.0117 -0.05469,-0.008 -1.53516,-0.24414 z m -31.33594,-1.60938 -0.06445,0.0273 -0.0625,0.0293 -1.80469,0.85157 -0.06445,0.0312 -0.06445,0.0332 -1.72657,0.91797 -0.06445,0.0332 -0.0625,0.0371 -0.6543,0.39063 3.06836,5.15429 0.57813,-0.34375 1.61719,-0.85742 1.66796,-0.78711 1.12891,-0.4707 -2.30273,-5.54102 z m 48.38086,5.78711 5.72461,1.79688 1.79688,-5.72461 -5.72657,-1.79688 z m 16.98633,5.60742 5.00586,1.77344 0.03516,0.0117 0.57617,0.21289 2.07617,-5.6289 -0.61133,-0.22657 -0.01758,-0.006 -0.01757,-0.006 -5.04102,-1.78711 z m -80.03125,-0.67578 -0.04687,0.0527 -0.04493,0.0547 -1.16601,1.4121 -0.04492,0.0527 -0.04102,0.0566 -1.10351,1.4668 -0.03907,0.0547 -0.03906,0.0547 -1.03906,1.52344 -0.03711,0.0547 -0.03516,0.0547 -0.10937,0.17578 5.09765,3.16602 0.06446,-0.10352 0.97461,-1.42773 1.0332,-1.37891 1.06641,-1.2871 0.14062,-0.1543 -4.43945,-4.03711 z m 96.86328,6.85938 3.0625,1.16406 0.02344,0.01 2.48828,0.9707 2.18164,-5.58789 -2.51172,-0.98047 -0.01172,-0.006 -0.01171,-0.004 -3.08789,-1.17578 z m 16.69922,6.56445 5.20313,2.0918 0.02929,0.0117 0.30274,0.12695 2.29687,-5.54297 -0.33398,-0.13867 -0.01367,-0.006 -0.01563,-0.006 -5.23242,-2.10351 z m -123.15234,4.13672 -0.01563,0.043 -0.01367,0.0449 -0.59766,1.92578 -0.01171,0.041 -0.01172,0.043 -0.54883,1.96875 -0.01172,0.041 -0.0098,0.0391 -0.17578,0.7129 5.82227,1.44726 0.17187,-0.68359 0.0059,-0.0274 0.50196,-1.80664 0.002,-0.004 0.58594,-1.89258 0.0078,-0.0274 0.36328,-1.05273 -5.67187,-1.95312 z m -3.62696,17.16016 -0.0078,0.0547 -0.0059,0.0566 -0.45898,4.54297 -0.0059,0.0508 -0.002,0.0488 -0.08399,1.23633 5.98633,0.40625 0.08398,-1.22656 0,-0.01 0.44727,-4.40234 0.01562,-0.12109 -5.9414,-0.82813 z m -1.06445,19.34179 0,0.0332 0,0.0312 0.03516,4.79687 6,-0.043 -0.03516,-4.73242 0,-0.0215 0,-0.043 0.01758,-1.13867 -6,-0.084 z m -505.95508,8.71485 -0.0156,0.01 -0.0156,0.01 -1.45507,1.00586 3.41015,4.93554 1.42383,-0.98242 0.004,-0.002 0.0273,-0.0195 3.48047,-2.33985 -3.34766,-4.98046 z m 506.41016,8.27734 0.21289,3.96875 0,0.0137 0,0.0156 0.12891,2.02148 5.98828,-0.3789 -0.12696,-1.99024 0,-0.004 -0.002,-0.0273 -0.20898,-3.9375 z m -522.12109,2.90625 -0.0176,0.0137 -0.0195,0.0137 -0.47461,0.35938 3.60742,4.79297 0.43945,-0.33008 0.0234,-0.0176 0.0137,-0.01 4.33008,-3.15625 -3.5332,-4.84961 z m -14.75782,11.33008 -0.0195,0.0156 -0.0176,0.0137 -0.0684,0.0566 3.76758,4.66992 0.0312,-0.0274 0.0312,-0.0234 0.006,-0.006 4.6211,-3.61133 -3.69532,-4.72656 z m 538.07227,3.78515 0.17773,2.39844 0,0.01 0.002,0.01 0.28906,3.58399 5.98047,-0.48438 -0.28907,-3.58398 -0.002,0 -0.17383,-2.37695 z m -550.13281,6.18555 -0.0156,0.0137 -0.0156,0.0137 -1.92969,1.68164 3.94336,4.52343 1.89844,-1.65429 0.0312,-0.0274 2.59179,-2.19726 -3.8789,-4.57813 z m -12.04493,10.83985 -0.0195,0.0195 -0.0215,0.0195 -3.23047,3.12109 4.16797,4.31641 3.19141,-3.08399 0.0156,-0.0137 0.0254,-0.0254 1.0625,-0.98633 -4.08789,-4.39453 z m 563.61133,0.93554 0.47852,5.98047 5.98047,-0.47851 -0.47852,-5.98047 z m -578.36718,14.31836 -0.0312,0.0332 -0.0293,0.0352 -0.98828,1.17383 4.58789,3.86719 0.92773,-1.10352 0.0215,-0.0254 2.96093,-3.30078 -4.46679,-4.00586 z m 579.70312,3.60547 0.01953,0.28516 0.002,0.0351 0.33399,5.59766 0,0.006 0.0019,0.0254 2.51367,-0.14844 3.47657,-0.17187 0,-0.006 0,-0.0137 -0.002,-0.0156 -0.33593,-5.66406 -0.002,-0.0176 -0.0019,-0.0176 -0.02148,-0.32031 z m -588.84375,8.0625 -0.0195,0.0293 -0.0195,0.0293 -1.25977,1.87891 -0.0215,0.0312 -0.0195,0.0332 -1.1836,1.86914 -0.0215,0.0352 -0.0215,0.0352 -0.29882,0.50195 5.15625,3.06641 0.29882,-0.5 1.09766,-1.73438 0.004,-0.006 1.21484,-1.81445 0.54297,-0.77149 -4.90625,-3.45507 z m 589.69531,9.76758 0.10547,4.86328 0.0059,1.08594 6,-0.0293 -0.0059,-1.13672 0,-0.0273 -0.0019,-0.0254 -0.10547,-4.86133 z m -598.4375,7.4668 -0.0234,0.0723 -0.0195,0.0742 -0.45898,1.73242 -0.0176,0.0645 -0.0137,0.0664 -0.58984,2.70899 5.86328,1.27539 0.57422,-2.63868 0.42382,-1.60156 0.41407,-1.29101 -5.71485,-1.83008 z m 598.29297,13.65234 -0.0019,0.0273 -0.16016,2.59375 5.98828,0.36914 0.16407,-2.66796 0.002,-0.0371 0.0019,-0.0371 0.12305,-3.32422 -5.9961,-0.22071 z m -601.65039,5.34766 -0.004,0.043 -0.004,0.041 -0.34961,3.80664 5.97461,0.54883 0.34765,-3.79492 0.002,-0.0117 0.25,-2.07813 -5.95703,-0.71679 z m 600.24609,10.17968 -0.73242,4.69336 5.92774,0.92578 0.73828,-4.72851 0.0078,-0.0508 0.0059,-0.0508 0.14648,-1.20508 -5.95703,-0.72071 z m -601.20507,8.72266 0,0.0391 0,0.0391 0.0508,3.21485 5.99804,-0.0937 -0.0488,-3.18164 0,-0.0332 0.0293,-2.70507 -6,-0.0664 z m 597.71679,8.15234 -0.0078,0.0274 -0.01172,0.041 -0.68554,2.27149 -0.0039,0.0117 -0.71289,2.17187 -0.01172,0.0352 -0.01367,0.0391 -0.04102,0.11133 5.64844,2.02148 0.06641,-0.18554 0.01367,-0.0371 0.01172,-0.0371 0.76171,-2.31836 0.01172,-0.0352 0.01172,-0.0352 0.70703,-2.35156 0.01172,-0.0351 0.0098,-0.0332 0.24023,-0.87695 -5.78515,-1.5918 z m -597.01172,7.36719 0.4004,4.06836 0.006,0.0449 0.004,0.043 0.24414,1.89649 5.95117,-0.76368 -0.23632,-1.84961 -0.39649,-4.02734 z m 590.00782,9.85156 -0.01758,0.0332 -1.08008,1.8789 -0.01953,0.0312 -0.75586,1.22071 5.09961,3.16015 0.77539,-1.25195 0.02734,-0.041 0.02344,-0.043 1.17774,-2.04882 0.02343,-0.041 0.02344,-0.043 1.01758,-1.91015 -5.29492,-2.82227 z m -587.38672,8.22657 0.0859,0.45507 0.01,0.0508 0.0117,0.0488 1.04883,4.58399 0.0117,0.0527 0.0137,0.0547 0.2168,0.80664 5.79492,-1.55078 -0.20899,-0.7832 -0.006,-0.0234 -1.00976,-4.42383 -0.0781,-0.40625 z m 578.13476,4.58789 -0.01757,0.0195 -1.57227,1.625 -0.01758,0.0176 -1.61523,1.54882 -0.3125,0.27735 3.99023,4.48047 0.34961,-0.3086 0.04102,-0.0371 0.04101,-0.0391 1.74024,-1.67187 0.04101,-0.0391 0.03906,-0.041 1.66602,-1.72266 0.03906,-0.0391 0.03516,-0.041 0.48437,-0.53906 -4.46484,-4.00781 z m -14.80468,11.71289 -2.24805,1.24609 -0.0273,0.0156 -0.58008,0.29296 2.72265,5.34766 0.67383,-0.34375 0.0469,-0.0234 0.0469,-0.0254 2.3125,-1.2832 0.0469,-0.0273 0.0469,-0.0274 2.22656,-1.3418 0.0469,-0.0273 0.0449,-0.0312 -1.64062,-2.50976 -0.008,-0.0117 -1.54101,-2.5586 z m -558.29688,1.47461 0.29297,0.78906 0.0117,0.0332 0.0137,0.0312 0.81445,2.04883 0.0137,0.0352 0.0137,0.0332 0.85351,2.00781 0.0156,0.0352 0.0156,0.0332 0.32032,0.70313 5.45898,-2.49024 -0.28906,-0.63281 -0.82617,-1.93945 -0.78907,-1.98438 -0.004,-0.01 -0.28907,-0.77735 z m 543.63867,5.04687 -0.0176,0.006 -0.0449,0.0156 -4.41992,1.4414 1.86133,5.70313 4.48242,-1.46289 0.0312,-0.01 0.0312,-0.0117 1.21289,-0.42383 -1.98633,-5.66211 z m -18.14062,5.67774 -0.0156,0.004 -0.0176,0.006 -3.42579,0.98633 1.65821,5.76562 3.45898,-0.99414 0.0156,-0.006 0.0176,-0.004 2.29883,-0.69141 -1.72461,-5.74609 z m -517.07422,5.98828 1.03125,1.48242 0.0293,0.043 0.0332,0.043 1.18945,1.58789 0.0332,0.0449 0.0352,0.043 1.23438,1.52343 0.0371,0.0469 0.0391,0.043 0.16211,0.1875 4.51367,-3.95313 -0.13867,-0.16015 -0.0234,-0.0274 -1.12695,-1.39453 -1.11914,-1.49219 -1.00586,-1.44531 z m 498.0918,-0.75586 -0.0293,0.008 -1.72656,0.43555 1.4707,5.81836 1.75586,-0.44532 0.0156,-0.004 0.0156,-0.004 4.04883,-1.06836 -1.53125,-5.80078 z m -19.19532,4.65039 1.35352,5.8457 5.8457,-1.35351 -1.35351,-5.84571 z m -14.21093,3.08203 0,0.002 -3.30664,0.66602 1.1875,5.88086 3.33203,-0.67188 0.0137,-0.004 0.0137,-0.002 2.54492,-0.53711 -1.24218,-5.87109 z m -451.35352,6.58594 0.83203,0.54687 0.0625,0.043 0.0664,0.0371 1.5957,0.93945 0.0684,0.041 0.0684,0.0351 1.64453,0.85547 0.0703,0.0371 0.0723,0.0332 1.17773,0.53711 2.48829,-5.46094 -1.11915,-0.50977 -1.51562,-0.78906 -1.42969,-0.84375 -0.7832,-0.51367 z m 430.41992,-2.55469 1.08203,5.90039 5.90039,-1.08203 -1.08203,-5.90234 z m -14.41406,2.45312 -0.0234,0.004 -3.24023,0.51172 0.93359,5.92578 3.26563,-0.51367 0.0117,-0.002 0.0117,-0.002 2.65821,-0.4414 -0.98242,-5.91993 z m -397.90234,6.41016 5.95117,0.75195 0.75195,-5.95312 -5.95312,-0.75195 z m 376.88086,-3.25976 0.83984,5.9414 5.94141,-0.8418 -0.83985,-5.93945 z m -358.98829,5.49218 5.96094,0.68555 0.68555,-5.95899 -5.95899,-0.6875 z m 17.91797,2.03321 5.9668,0.62304 0.62305,-5.96875 -5.96875,-0.62109 z m 324.93946,-5.41993 -0.0215,0.002 -1.63086,0.19336 0.70508,5.95898 1.6543,-0.19726 0.01,0 0.0117,-0.002 4.30078,-0.54101 -0.75,-5.95313 z m -307.00196,7.25586 5.97461,0.55664 0.55664,-5.97265 -5.97265,-0.5586 z m 291.69141,-5.49804 0,-0.002 -4.1875,0.43555 0.61914,5.96875 4.18945,-0.43555 0.01,-0.002 0.01,0 1.7793,-0.19727 -0.66211,-5.96484 z m -273.73242,7.13672 5.97851,0.49218 0.49414,-5.98047 -5.98047,-0.49218 z m 251.66797,-4.99024 0.53711,5.97461 5.97656,-0.53711 -0.53711,-5.97656 z m -233.69336,6.42969 5.98437,0.42773 0.42774,-5.98437 -5.98438,-0.42774 z m 216.47461,-5.04297 -0.0195,0.002 -0.64453,0.0449 0.41797,5.98438 0.66406,-0.0469 0.01,0 0.01,0 5.32031,-0.4082 -0.45703,-5.98242 z m -198.48633,6.2832 5.99023,0.36524 0.36328,-5.99024 -5.98828,-0.36328 z m 182.40625,-5.21289 -0.0195,0.002 -2.48633,0.14063 0.33984,5.99023 2.50586,-0.14257 0.01,0 0.01,0 3.48243,-0.22071 -0.37891,-5.98828 z m -164.4043,6.25586 5.99219,0.29883 0.30078,-5.99219 -5.99219,-0.30078 z m 148.13477,-5.38086 -4.17578,0.18555 0.26562,5.99414 4.17578,-0.18555 0.01,0 0.01,0 1.81641,-0.0918 -0.30273,-5.99219 z m -130.1211,6.22071 5.9961,0.23242 0.23242,-5.99414 -5.99414,-0.23438 z m 113.68555,-5.54102 -5.68164,0.16797 0.17383,5.99609 5.68359,-0.16601 0.0137,0 0.0137,0 0.31446,-0.0117 -0.23047,-5.9961 z m -95.66406,6.17578 5.99804,0.16797 0.16797,-5.99805 -5.99804,-0.16797 z m 72.02344,-5.56641 0.10351,5.99805 6,-0.10351 -0.10547,-6 z m -53.9961,5.9961 6,0.10156 0.10156,-6 -6,-0.10156 z m 36.03125,-5.7793 0.0352,6 6,-0.0352 -0.0352,-6 z m -17.99805,5.99609 6,0.0352 0.0332,-6 -6,-0.0352 z"
       style="color:#000000;font-style:normal;font-variant:normal;font-weight:normal;font-stretch:normal;font-size:medium;line-height:normal;font-family:sans-serif;text-indent:0;text-align:start;text-decoration:none;text-decoration-line:none;text-decoration-style:solid;text-decoration-color:#000000;letter-spacing:normal;word-spacing:normal;text-transform:none;direction:ltr;block-progression:tb;writing-mode:lr-tb;baseline-shift:baseline;text-anchor:start;white-space:normal;clip-rule:nonzero;display:inline;overflow:visible;visibility:visible;opacity:1;isolation:auto;mix-blend-mode:normal;color-interpolation:sRGB;color-interpolation-filters:linearRGB;solid-color:#000000;solid-opacity:1;fill:#cc595a;fill-opacity:1;fill-rule:nonzero;stroke:none;stroke-width:6;stroke-linecap:butt;stroke-linejoin:miter;stroke-miterlimit:4;stroke-dasharray:6, 12;stroke-dashoffset:0;stroke-opacity:1;color-rendering:auto;image-rendering:auto;shape-rendering:auto;text-rendering:auto;enable-background:accumulate" />
    <path
       id="path4264"
       d="m 10.028358,-508.07517 -31.513544,12.60542 86.662246,11.02974 -67.7541194,-55.1487 12.6054174,31.51354 z"
       style="fill-rule:evenodd;stroke:#cc595a;stroke-width:0.7999999pt;marker-start:none;stroke-opacity:1;fill:#cc595a;fill-opacity:1"
       inkscape:connector-curvature="0" />
  </g>
</svg>
